<svg width="30" height="30" viewBox="0 0 30 30" fill="none" xmlns="http://www.w3.org/2000/svg">
<path d="M21.5975 14.9538H8.4025C5.5 14.9538 3.125 17.3288 3.125 20.2313V24.49C3.125 25.1463 3.65625 25.6775 4.3125 25.6775C4.96875 25.6775 5.5 25.1463 5.5 24.49V22.605C5.5 21.9488 6.03125 21.4175 6.6875 21.4175H23.3125C23.9688 21.4175 24.5 21.9488 24.5 22.605V24.49C24.5 25.1463 25.0312 25.6775 25.6875 25.6775C26.3437 25.6775 26.875 25.1463 26.875 24.49V20.23C26.875 17.3275 24.5 14.9525 21.5975 14.9525V14.9538Z" fill="#F34646"/>
<path d="M23.3125 11.4975C22.6212 11.4975 22.0625 10.9375 22.0625 10.2475V8.73754C22.0625 7.68129 21.2025 6.82129 20.1462 6.82129H9.85375C8.79625 6.82129 7.9375 7.68129 7.9375 8.73754V10.2475C7.9375 10.9375 7.37875 11.4975 6.6875 11.4975C5.99625 11.4975 5.4375 10.9375 5.4375 10.2475V8.73754C5.4375 6.30254 7.41875 4.32129 9.85375 4.32129H20.145C22.58 4.32129 24.5612 6.30254 24.5612 8.73754V10.2475C24.5612 10.9375 24.0037 11.4975 23.3125 11.4975Z" fill="#F34646"/>
<path d="M18.59 9.69006H11.4113C10.5207 9.69006 9.79877 10.412 9.79877 11.3026V11.5688C9.79877 12.4594 10.5207 13.1813 11.4113 13.1813H18.59C19.4806 13.1813 20.2025 12.4594 20.2025 11.5688V11.3026C20.2025 10.412 19.4806 9.69006 18.59 9.69006Z" fill="#F34646"/>
</svg>
