<svg width="25" height="25" viewBox="0 0 25 25" fill="none" xmlns="http://www.w3.org/2000/svg">
<path d="M8.68651 19.209L12.0605 23.2812C12.168 23.4131 12.3291 23.4863 12.5 23.4863C12.6709 23.4863 12.832 23.4131 12.9394 23.2812L16.3135 19.209C16.5137 18.9648 16.4795 18.6084 16.2402 18.4082C15.9961 18.208 15.6396 18.2422 15.4394 18.4814L13.0713 21.3379L13.0713 2.08496C13.0713 1.77246 12.8174 1.51367 12.5 1.51367C12.1875 1.51367 11.9287 1.76758 11.9287 2.08496L11.9287 21.3379L9.56053 18.4814C9.44823 18.3447 9.2871 18.2764 9.12108 18.2764C8.99413 18.2764 8.86229 18.3203 8.75975 18.4082C8.52049 18.6084 8.48632 18.9697 8.68651 19.209Z" fill="white"/>
</svg>
