<svg width="20" height="20" viewBox="0 0 20 20" fill="none" xmlns="http://www.w3.org/2000/svg">
<path d="M6.06494 16.9798C6.06517 16.7155 6.17036 16.4621 6.35736 16.2753L11.4561 11.1766C11.6104 11.0223 11.7329 10.8391 11.8164 10.6375C11.8999 10.4359 11.9429 10.2198 11.9429 10.0016C11.9429 9.78337 11.8999 9.56729 11.8164 9.36568C11.7329 9.16407 11.6104 8.98089 11.4561 8.8266L6.36401 3.73118C6.18242 3.54317 6.08194 3.29135 6.08421 3.02997C6.08648 2.76859 6.19132 2.51856 6.37615 2.33373C6.56098 2.1489 6.81101 2.04406 7.0724 2.04179C7.33378 2.03951 7.58559 2.13999 7.77361 2.32159L12.8657 7.41302C13.5504 8.09905 13.9349 9.0287 13.9349 9.99794C13.9349 10.9672 13.5504 11.8968 12.8657 12.5829L7.76696 17.6816C7.62774 17.8209 7.45038 17.9159 7.25725 17.9545C7.06412 17.9931 6.86389 17.9736 6.68181 17.8985C6.49973 17.8235 6.34397 17.6961 6.23419 17.5326C6.1244 17.3691 6.06551 17.1768 6.06494 16.9798Z" fill="white"/>
</svg>
