<svg width="25" height="25" viewBox="0 0 25 25" fill="none" xmlns="http://www.w3.org/2000/svg">
<g clip-path="url(#clip0_114_7510)">
<path d="M9.0625 18.75H3.125C1.56979 18.75 0 17.5688 0 14.9313V9.68129C0.0219033 7.28772 0.918153 4.98474 2.51997 3.20602C4.1218 1.4273 6.31866 0.295591 8.69687 0.0239952C10.0389 -0.0734274 11.3862 0.119184 12.6472 0.588742C13.9082 1.0583 15.0533 1.7938 16.0048 2.74526C16.9562 3.69673 17.6917 4.84186 18.1613 6.10285C18.6309 7.36383 18.8235 8.71112 18.726 10.0532C18.4541 12.4323 17.3214 14.6299 15.5414 16.2319C13.7615 17.8338 11.4571 18.7294 9.0625 18.75ZM20.8333 9.45837H20.8208C20.8208 9.70525 20.8208 9.95212 20.8083 10.2C20.4062 15.8334 15.2573 20.6021 9.4625 20.8136V20.8292C10.1923 22.0949 11.242 23.1466 12.5065 23.8786C13.7709 24.6106 15.2056 24.9974 16.6667 25H21.875C22.7038 25 23.4987 24.6708 24.0847 24.0847C24.6708 23.4987 25 22.7038 25 21.875V16.6667C24.9985 15.2053 24.6127 13.7701 23.8814 12.5049C23.1501 11.2397 22.0989 10.189 20.8333 9.45837Z" fill="white"/>
</g>
<defs>
<clipPath id="clip0_114_7510">
<rect width="25" height="25" fill="white"/>
</clipPath>
</defs>
</svg>
