<svg width="30" height="30" viewBox="0 0 30 30" fill="none" xmlns="http://www.w3.org/2000/svg">
<g clip-path="url(#clip0_403_18970)">
<path d="M21.8943 5.80761L15 12.7019L8.10572 5.80761C7.47112 5.17301 6.44222 5.17301 5.80762 5.80761C5.17302 6.44221 5.17302 7.47111 5.80762 8.10571L12.7019 15L5.80762 21.8943C5.17302 22.5289 5.17302 23.5578 5.80762 24.1924C6.44222 24.827 7.47112 24.827 8.10572 24.1924L15 17.2981L21.8943 24.1924C22.5289 24.827 23.5578 24.827 24.1924 24.1924C24.827 23.5578 24.827 22.5289 24.1924 21.8943L17.2981 15L24.1924 8.10571C24.827 7.47111 24.827 6.44221 24.1924 5.80761C23.5578 5.17301 22.5289 5.17301 21.8943 5.80761Z" fill="white"/>
</g>
<defs>
<clipPath id="clip0_403_18970">
<rect width="30" height="30" fill="white"/>
</clipPath>
</defs>
</svg>
