<svg width="20" height="20" viewBox="0 0 20 20" fill="none" xmlns="http://www.w3.org/2000/svg">
<g clip-path="url(#clip0_369_18959)">
<path d="M11.5767 20C9.94333 20 8.37917 19.9933 7.83417 19.9783C7.59945 19.971 7.36631 19.9371 7.13917 19.8775C6.55716 19.7163 6.03955 19.3784 5.65779 18.9104C5.27603 18.4425 5.04894 17.8675 5.00787 17.265C4.96681 16.6625 5.11379 16.0621 5.42853 15.5466C5.74327 15.0312 6.21025 14.6262 6.765 14.3875C6.61585 13.6341 6.63206 12.8573 6.8125 12.1108C7.06532 11.0886 7.63442 10.1723 8.43866 9.49258C9.24289 8.81284 10.2412 8.40436 11.2913 8.32538C12.3413 8.24641 13.3895 8.50097 14.2863 9.05277C15.1832 9.60457 15.883 10.4254 16.2858 11.3983C16.3992 11.67 16.9217 11.7892 16.9217 11.7892C17.9684 12.0744 18.8632 12.7557 19.4167 13.6888C19.9702 14.6219 20.139 15.7338 19.8875 16.7892C19.7128 17.5398 19.3314 18.2265 18.7864 18.7714C18.2415 19.3164 17.5548 19.6978 16.8042 19.8725C16.5131 19.9389 16.216 19.9754 15.9175 19.9817C15.1908 19.9917 13.3442 20 11.5767 20ZM7.48917 8.12917C8.31375 7.45811 9.28805 6.9959 10.3294 6.78177C11.3707 6.56764 12.4484 6.60791 13.4708 6.89917C13.6793 6.95507 13.897 6.96839 14.1107 6.93833C14.3245 6.90826 14.53 6.83542 14.715 6.72417L16.7542 5.53333C16.8454 5.47287 16.9239 5.39502 16.9851 5.30424C17.0463 5.21345 17.089 5.1115 17.1108 5.00421C17.1325 4.89692 17.133 4.78639 17.112 4.67893C17.0911 4.57147 17.0492 4.46919 16.9888 4.37792C16.9283 4.28665 16.8504 4.20818 16.7597 4.147C16.6689 4.08582 16.5669 4.04311 16.4596 4.02133C16.3523 3.99955 16.2418 3.99911 16.1343 4.02004C16.0269 4.04098 15.9246 4.08287 15.8333 4.14333L13.6325 5.60167C13.1708 5.83583 12.93 5.23333 12.5742 5.00417L14.11 2.3825C14.1653 2.288 14.2015 2.18354 14.2164 2.07506C14.2314 1.96659 14.2248 1.85623 14.1971 1.7503C14.1694 1.64436 14.1211 1.54492 14.055 1.45765C13.9888 1.37038 13.9062 1.29699 13.8117 1.24167C13.7172 1.18635 13.6127 1.15018 13.5042 1.13524C13.3958 1.12029 13.2854 1.12686 13.1795 1.15456C13.0735 1.18226 12.9741 1.23056 12.8868 1.29669C12.7995 1.36283 12.7262 1.4455 12.6708 1.54L11.1533 4.13583C10.7828 3.98382 10.3957 3.87586 10 3.81417V0.833333C10 0.61232 9.9122 0.400358 9.75592 0.244078C9.59964 0.0877974 9.38768 0 9.16667 0C8.94565 0 8.73369 0.0877974 8.57741 0.244078C8.42113 0.400358 8.33333 0.61232 8.33333 0.833333V3.81667C7.95534 3.87815 7.58494 3.97955 7.22833 4.11917L5.6925 1.52833C5.63669 1.43416 5.56288 1.35191 5.47527 1.28627C5.38767 1.22063 5.288 1.17288 5.18195 1.14576C4.96777 1.09098 4.7406 1.12353 4.55042 1.23625C4.36023 1.34897 4.22262 1.53262 4.16784 1.7468C4.11307 1.96098 4.14562 2.18815 4.25833 2.37833L5.78667 4.95583C5.49735 5.18836 5.23188 5.44909 4.99417 5.73417L2.41083 4.2225C2.31631 4.16293 2.21078 4.12297 2.1005 4.105C1.99023 4.08703 1.87747 4.09142 1.76893 4.11791C1.66038 4.1444 1.55828 4.19244 1.46868 4.25919C1.37907 4.32593 1.30381 4.41001 1.24736 4.50643C1.1909 4.60284 1.15442 4.70963 1.14006 4.82043C1.12571 4.93123 1.13378 5.04379 1.16381 5.15141C1.19383 5.25903 1.24518 5.35951 1.31482 5.44688C1.38446 5.53425 1.47096 5.60673 1.56917 5.66L4.135 7.16667C3.9822 7.54159 3.87396 7.93316 3.8125 8.33333H0.833333C0.61232 8.33333 0.400358 8.42113 0.244078 8.57741C0.0877974 8.73369 0 8.94565 0 9.16667C0 9.38768 0.0877974 9.59964 0.244078 9.75592C0.400358 9.9122 0.61232 10 0.833333 10H3.81333C3.85156 10.2486 3.90725 10.4942 3.98 10.735C3.99476 10.8272 3.97814 10.9216 3.93281 11.0032C3.88747 11.0848 3.81605 11.1488 3.73 11.185L1.47333 12.5283C1.28337 12.6414 1.1461 12.8253 1.09171 13.0395C1.03733 13.2538 1.07028 13.4809 1.18333 13.6708C1.29638 13.8608 1.48026 13.9981 1.69452 14.0525C1.90878 14.1068 2.13587 14.0739 2.32583 13.9608L4.48417 12.7C4.6553 12.6029 4.80489 12.4721 4.9238 12.3153C5.04271 12.1586 5.12847 11.9793 5.17583 11.7883C5.51729 10.3448 6.33156 9.05677 7.48917 8.12917Z" fill="#F34646"/>
</g>
<defs>
<clipPath id="clip0_369_18959">
<rect width="20" height="20" fill="white"/>
</clipPath>
</defs>
</svg>
