<svg width="30" height="30" viewBox="0 0 30 30" fill="none" xmlns="http://www.w3.org/2000/svg">
<path d="M22.7917 6H8.20833C6.82751 6.00165 5.50371 6.55092 4.52731 7.52731C3.55092 8.50371 3.00165 9.82751 3 11.2083H28C27.9983 9.82751 27.4491 8.50371 26.4727 7.52731C25.4963 6.55092 24.1725 6.00165 22.7917 6Z" fill="#333333"/>
<path d="M3 19.5416C3.00165 20.9225 3.55092 22.2463 4.52731 23.2226C5.50371 24.199 6.82751 24.7483 8.20833 24.75H22.7917C24.1725 24.7483 25.4963 24.199 26.4727 23.2226C27.4491 22.2463 27.9983 20.9225 28 19.5416V13.2916H3V19.5416ZM10.2917 19.0208C10.2917 19.3298 10.2 19.6319 10.0283 19.8889C9.85665 20.1458 9.61262 20.3461 9.32711 20.4644C9.0416 20.5826 8.72743 20.6136 8.42434 20.5533C8.12124 20.493 7.84283 20.3442 7.62431 20.1256C7.40579 19.9071 7.25698 19.6287 7.19669 19.3256C7.1364 19.0225 7.16734 18.7084 7.2856 18.4228C7.40387 18.1373 7.60414 17.8933 7.86109 17.7216C8.11804 17.5499 8.42013 17.4583 8.72917 17.4583C9.14357 17.4583 9.541 17.6229 9.83402 17.9159C10.127 18.209 10.2917 18.6064 10.2917 19.0208Z" fill="#333333"/>
</svg>
