<svg width="25" height="25" viewBox="0 0 25 25" fill="none" xmlns="http://www.w3.org/2000/svg">
<path d="M19.7916 18.2292C19.7968 18.1668 19.7968 18.1041 19.7916 18.0417C19.7916 17.4892 19.5721 16.9593 19.1814 16.5686C18.7907 16.1779 18.2608 15.9584 17.7083 15.9584C17.1558 15.9584 16.6259 16.1779 16.2352 16.5686C15.8445 16.9593 15.625 17.4892 15.625 18.0417C15.6198 18.1041 15.6198 18.1668 15.625 18.2292C15.625 18.7817 15.8445 19.3116 16.2352 19.7023C16.6259 20.093 17.1558 20.3125 17.7083 20.3125C18.2608 20.3125 18.7907 20.093 19.1814 19.7023C19.5721 19.3116 19.7916 18.7817 19.7916 18.2292Z" fill="#333333"/>
<path d="M11.4583 18.2292C11.4635 18.1668 11.4635 18.1041 11.4583 18.0417C11.4583 17.4892 11.2388 16.9593 10.8481 16.5686C10.4574 16.1779 9.92753 15.9584 9.37499 15.9584C8.82246 15.9584 8.29255 16.1779 7.90185 16.5686C7.51115 16.9593 7.29166 17.4892 7.29166 18.0417C7.28649 18.1041 7.28649 18.1668 7.29166 18.2292C7.29166 18.7817 7.51115 19.3116 7.90185 19.7023C8.29255 20.093 8.82246 20.3125 9.37499 20.3125C9.92753 20.3125 10.4574 20.093 10.8481 19.7023C11.2388 19.3116 11.4583 18.7817 11.4583 18.2292Z" fill="#333333"/>
<path d="M3.64581 13.2812H2.08331C1.93987 13.2809 1.79918 13.3206 1.67706 13.3958C1.57095 13.4613 1.48203 13.5511 1.41773 13.6579C1.35343 13.7647 1.31562 13.8854 1.30747 14.0097C1.29931 14.1341 1.32104 14.2587 1.37084 14.373C1.42064 14.4872 1.49706 14.588 1.59373 14.6667C1.73007 14.7831 1.90405 14.846 2.08331 14.8438H4.68748C4.89468 14.8438 5.09339 14.9261 5.23991 15.0726C5.38642 15.2191 5.46873 15.4178 5.46873 15.625C5.46873 15.8322 5.38642 16.0309 5.23991 16.1774C5.09339 16.3239 4.89468 16.4062 4.68748 16.4062H3.64581C3.43861 16.4062 3.2399 16.4886 3.09339 16.6351C2.94687 16.7816 2.86456 16.9803 2.86456 17.1875C2.86456 17.3947 2.94687 17.5934 3.09339 17.7399C3.2399 17.8864 3.43861 17.9688 3.64581 17.9688H6.52081C6.56563 17.439 6.76078 16.933 7.08331 16.5104C7.35288 16.1576 7.69945 15.871 8.09659 15.6724C8.49374 15.4738 8.93098 15.3685 9.37498 15.3646C10.0906 15.3618 10.7811 15.628 11.3097 16.1103C11.8383 16.5926 12.1665 17.2559 12.2291 17.9688H14.8541C14.9153 17.2539 15.2425 16.588 15.771 16.1027C16.2995 15.6175 16.9908 15.3482 17.7083 15.3482C18.4258 15.3482 19.1172 15.6175 19.6457 16.1027C20.1742 16.588 20.5013 17.2539 20.5625 17.9688H21.9791C22.2228 17.9737 22.4605 17.893 22.6509 17.7407C22.8412 17.5884 22.9721 17.3742 23.0208 17.1354L23.7083 13.6979C23.7029 13.6739 23.7029 13.649 23.7083 13.625C23.7231 13.5353 23.7231 13.4438 23.7083 13.3542L21.75 7.58333C21.6433 7.27686 21.4432 7.01155 21.1779 6.8247C20.9125 6.63785 20.5953 6.53887 20.2708 6.54167H18.3958L18.5104 5.70833C18.5384 5.48753 18.5192 5.2633 18.4542 5.05046C18.3891 4.83762 18.2796 4.64102 18.1329 4.47364C17.9862 4.30626 17.8056 4.17192 17.6031 4.0795C17.4007 3.98708 17.1809 3.93868 16.9583 3.9375H5.20831C5.00111 3.9375 4.8024 4.01981 4.65589 4.16632C4.50937 4.31284 4.42706 4.51155 4.42706 4.71875C4.42706 4.92595 4.50937 5.12466 4.65589 5.27118C4.8024 5.41769 5.00111 5.5 5.20831 5.5H6.5104C6.7176 5.5 6.91631 5.58231 7.06282 5.72882C7.20934 5.87534 7.29165 6.07405 7.29165 6.28125C7.29165 6.48845 7.20934 6.68716 7.06282 6.83368C6.91631 6.98019 6.7176 7.0625 6.5104 7.0625H2.08331C1.87695 7.0652 1.6798 7.14837 1.53387 7.29431C1.38794 7.44024 1.30476 7.63739 1.30206 7.84375C1.30178 8.04117 1.37724 8.23117 1.51291 8.37459C1.64858 8.51801 1.8341 8.60391 2.03123 8.61458H4.68748C4.89468 8.61458 5.09339 8.69689 5.23991 8.84341C5.38642 8.98992 5.46873 9.18863 5.46873 9.39583C5.46873 9.60303 5.38642 9.80175 5.23991 9.94826C5.09339 10.0948 4.89468 10.1771 4.68748 10.1771H3.12498H2.95831C2.78465 10.215 2.6291 10.311 2.51737 10.4493C2.40563 10.5875 2.34438 10.7597 2.34373 10.9375C2.34373 11.1447 2.42604 11.3434 2.57255 11.4899C2.71907 11.6364 2.91778 11.7188 3.12498 11.7188H3.64581C3.85301 11.7188 4.05173 11.8011 4.19824 11.9476C4.34475 12.0941 4.42706 12.2928 4.42706 12.5C4.42706 12.7072 4.34475 12.9059 4.19824 13.0524C4.05173 13.1989 3.85301 13.2812 3.64581 13.2812ZM18.2291 8.07292H20.125C20.1797 8.07374 20.2328 8.0911 20.2774 8.12271C20.322 8.15432 20.3561 8.1987 20.375 8.25L21.875 12.7604H17.6041L18.2291 8.07292Z" fill="#333333"/>
</svg>
