<svg width="6" height="4" viewBox="0 0 6 4" fill="none" xmlns="http://www.w3.org/2000/svg">
<path d="M0.670779 0.590088H5.32911C5.41152 0.590406 5.49197 0.613178 5.5603 0.655526C5.62862 0.697874 5.68176 0.757896 5.71298 0.828002C5.74419 0.898107 5.7521 0.975148 5.73569 1.04938C5.71928 1.12362 5.67929 1.19171 5.62078 1.24506L3.29578 3.38232C3.25704 3.41822 3.21096 3.44672 3.16019 3.46616C3.10941 3.48561 3.05495 3.49562 2.99995 3.49562C2.94494 3.49562 2.89048 3.48561 2.83971 3.46616C2.78893 3.44672 2.74285 3.41822 2.70411 3.38232L0.379113 1.24506C0.320604 1.19171 0.280616 1.12362 0.264205 1.04938C0.247795 0.975148 0.255698 0.898107 0.286917 0.828002C0.318136 0.757896 0.371269 0.697874 0.439595 0.655526C0.507921 0.613178 0.588374 0.590406 0.670779 0.590088Z" fill="#333333"/>
</svg>
