<svg width="30" height="30" viewBox="0 0 30 30" fill="none" xmlns="http://www.w3.org/2000/svg">
<path d="M19.5417 2.3125C20.2769 2.56456 20.9459 2.97898 21.499 3.525L23.224 5.25208C23.7706 5.80447 24.1855 6.47319 24.4375 7.20833H19.5417V2.3125ZM17.4583 14.5H13.2917C13.0154 14.5 12.7504 14.6097 12.5551 14.8051C12.3597 15.0004 12.25 15.2654 12.25 15.5417C12.25 15.8179 12.3597 16.0829 12.5551 16.2782C12.7504 16.4736 13.0154 16.5833 13.2917 16.5833H17.4583C17.7346 16.5833 17.9996 16.4736 18.1949 16.2782C18.3903 16.0829 18.5 15.8179 18.5 15.5417C18.5 15.2654 18.3903 15.0004 18.1949 14.8051C17.9996 14.6097 17.7346 14.5 17.4583 14.5ZM19.5417 9.29167C18.9891 9.29167 18.4592 9.07217 18.0685 8.68147C17.6778 8.29077 17.4583 7.76087 17.4583 7.20833V2H11.2083C9.82751 2.00165 8.50371 2.55092 7.52731 3.52731C6.55092 4.50371 6.00165 5.82751 6 7.20833V21.7917C6.00165 23.1725 6.55092 24.4963 7.52731 25.4727C8.50371 26.4491 9.82751 26.9983 11.2083 27H19.5417C20.9225 26.9983 22.2463 26.4491 23.2227 25.4727C24.1991 24.4963 24.7483 23.1725 24.75 21.7917V9.29167H19.5417ZM19.5417 22.8333H11.2083C10.9321 22.8333 10.6671 22.7236 10.4718 22.5282C10.2764 22.3329 10.1667 22.0679 10.1667 21.7917C10.1667 21.5154 10.2764 21.2504 10.4718 21.0551C10.6671 20.8597 10.9321 20.75 11.2083 20.75H19.5417C19.8179 20.75 20.0829 20.8597 20.2782 21.0551C20.4736 21.2504 20.5833 21.5154 20.5833 21.7917C20.5833 22.0679 20.4736 22.3329 20.2782 22.5282C20.0829 22.7236 19.8179 22.8333 19.5417 22.8333ZM17.4583 18.6667H13.2917C12.4629 18.6667 11.668 18.3374 11.082 17.7514C10.4959 17.1653 10.1667 16.3705 10.1667 15.5417C10.1667 14.7129 10.4959 13.918 11.082 13.332C11.668 12.7459 12.4629 12.4167 13.2917 12.4167H17.4583C18.2871 12.4167 19.082 12.7459 19.668 13.332C20.2541 13.918 20.5833 14.7129 20.5833 15.5417C20.5833 16.3705 20.2541 17.1653 19.668 17.7514C19.082 18.3374 18.2871 18.6667 17.4583 18.6667Z" fill="#333333"/>
</svg>
