<svg width="30" height="30" viewBox="0 0 30 30" fill="none" xmlns="http://www.w3.org/2000/svg">
<path d="M4.16668 20.9584H6.875C8.07161 20.9584 9.04168 21.9284 9.04168 23.1251V25.8334C9.04168 27.03 8.07161 28.0001 6.875 28.0001H4.16668C2.97007 28.0001 2 27.03 2 25.8334V23.1251C2 21.9284 2.97007 20.9584 4.16668 20.9584Z" fill="#333333"/>
<path d="M23.125 20.9584H25.8333C27.03 20.9584 28 21.9284 28 23.1251V25.8334C28 27.03 27.03 28.0001 25.8333 28.0001H23.125C21.9284 28.0001 20.9583 27.03 20.9583 25.8334V23.1251C20.9583 21.9284 21.9284 20.9584 23.125 20.9584Z" fill="#333333"/>
<path d="M4.16668 11.4791H6.875C8.07161 11.4791 9.04168 12.4492 9.04168 13.6458V16.3541C9.04168 17.5507 8.07161 18.5208 6.875 18.5208H4.16668C2.97007 18.5208 2 17.5507 2 16.3541V13.6458C2 12.4491 2.97007 11.4791 4.16668 11.4791Z" fill="#333333"/>
<path d="M23.125 11.4791H25.8333C27.0299 11.4791 28 12.4492 28 13.6458V16.3541C28 17.5507 27.03 18.5208 25.8333 18.5208H23.125C21.9284 18.5208 20.9583 17.5507 20.9583 16.3541V13.6458C20.9583 12.4491 21.9284 11.4791 23.125 11.4791Z" fill="#333333"/>
<path d="M4.16668 2H6.875C8.07161 2 9.04168 2.97007 9.04168 4.16668V6.875C9.04168 8.07161 8.07161 9.04168 6.875 9.04168H4.16668C2.97007 9.04168 2 8.07161 2 6.875V4.16668C2 2.97007 2.97007 2 4.16668 2Z" fill="#333333"/>
<path d="M13.6458 20.9584H16.3541C17.5507 20.9584 18.5208 21.9284 18.5208 23.1251V25.8334C18.5208 27.03 17.5507 28.0001 16.3541 28.0001H13.6458C12.4492 28.0001 11.4791 27.03 11.4791 25.8334V23.1251C11.4792 21.9284 12.4492 20.9584 13.6458 20.9584Z" fill="#333333"/>
<path d="M13.6458 11.4791H16.3541C17.5507 11.4791 18.5208 12.4492 18.5208 13.6458V16.3541C18.5208 17.5507 17.5507 18.5208 16.3541 18.5208H13.6458C12.4492 18.5208 11.4791 17.5507 11.4791 16.3541V13.6458C11.4792 12.4491 12.4492 11.4791 13.6458 11.4791Z" fill="#333333"/>
<path d="M13.6458 2H16.3541C17.5507 2 18.5208 2.97007 18.5208 4.16668V6.875C18.5208 8.07161 17.5507 9.04168 16.3541 9.04168H13.6458C12.4492 9.04168 11.4791 8.07161 11.4791 6.875V4.16668C11.4792 2.97007 12.4492 2 13.6458 2Z" fill="#333333"/>
<path d="M23.125 2H25.8333C27.03 2 28 2.97007 28 4.16668V6.875C28 8.07161 27.03 9.04168 25.8333 9.04168H23.125C21.9284 9.04168 20.9583 8.07161 20.9583 6.875V4.16668C20.9583 2.97007 21.9284 2 23.125 2Z" fill="#333333"/>
</svg>
