<svg width="30" height="30" viewBox="0 0 30 30" fill="none" xmlns="http://www.w3.org/2000/svg">
<path d="M6.33332 2H9.58332C11.9765 2 13.9166 3.9401 13.9166 6.33332V9.58332C13.9166 11.9765 11.9765 13.9166 9.58332 13.9166H6.33332C3.9401 13.9167 2 11.9766 2 9.58332V6.33332C2 3.9401 3.9401 2 6.33332 2Z" fill="#333333"/>
<path d="M20.4167 2H23.6667C26.0599 2 28 3.9401 28 6.33332V9.58332C28 11.9765 26.0599 13.9166 23.6667 13.9166H20.4167C18.0235 13.9166 16.0834 11.9765 16.0834 9.58332V6.33332C16.0833 3.9401 18.0234 2 20.4167 2Z" fill="#333333"/>
<path d="M6.33332 16.0834H9.58332C11.9765 16.0834 13.9166 18.0235 13.9166 20.4167V23.6667C13.9166 26.0599 11.9765 28 9.58332 28H6.33332C3.9401 28.0001 2 26.06 2 23.6667V20.4167C2 18.0235 3.9401 16.0834 6.33332 16.0834Z" fill="#333333"/>
<path d="M20.4167 16.0834H23.6667C26.0599 16.0834 28 18.0235 28 20.4167V23.6667C28 26.06 26.0599 28.0001 23.6667 28.0001H20.4167C18.0235 28.0001 16.0834 26.06 16.0834 23.6667V20.4167C16.0833 18.0235 18.0234 16.0834 20.4167 16.0834Z" fill="#333333"/>
</svg>
