<svg width="30" height="30" viewBox="0 0 30 30" fill="none" xmlns="http://www.w3.org/2000/svg">
<path d="M20.5001 5.03308C19.374 5.0506 18.2725 5.36494 17.3068 5.94436C16.3411 6.52379 15.5454 7.34778 15 8.33312C14.4546 7.34778 13.6589 6.52379 12.6932 5.94436C11.7275 5.36494 10.626 5.0506 9.49992 5.03308C7.70484 5.11107 6.01358 5.89635 4.79564 7.21734C3.5777 8.53834 2.93208 10.2877 2.99984 12.0832C2.99984 16.6302 7.7859 21.5963 11.8 24.9633C12.6962 25.7165 13.8293 26.1294 15 26.1294C16.1707 26.1294 17.3038 25.7165 18.2 24.9633C22.2141 21.5963 27.0002 16.6302 27.0002 12.0832C27.0679 10.2877 26.4223 8.53834 25.2043 7.21734C23.9864 5.89635 22.2952 5.11107 20.5001 5.03308Z" fill="#333333"/>
</svg>
