<svg width="30" height="30" viewBox="0 0 30 30" fill="none" xmlns="http://www.w3.org/2000/svg">
<path d="M14.5032 18.6133C12.7769 18.6133 11.3774 20.0128 11.3774 21.7391V27.9906H17.629V21.7391C17.629 20.0128 16.2295 18.6133 14.5032 18.6133Z" fill="#F34646"/>
<path d="M19.7128 21.7391V27.9907H23.8805C25.6068 27.9907 27.0063 26.5912 27.0063 24.8649V15.3615C27.0065 14.8202 26.7962 14.3001 26.4197 13.9112L17.5654 4.33892C16.0031 2.64855 13.3663 2.54477 11.6759 4.10708C11.5956 4.18131 11.5183 4.25863 11.4441 4.33892L2.60538 13.908C2.21749 14.2986 1.99985 14.8267 2 15.3771V24.8649C2 26.5912 3.39947 27.9907 5.12579 27.9907H9.29349V21.7391C9.31297 18.898 11.6069 16.5779 14.3765 16.5111C17.2387 16.442 19.691 18.8016 19.7128 21.7391Z" fill="#F34646"/>
<path d="M14.5032 18.6133C12.7769 18.6133 11.3774 20.0128 11.3774 21.7391V27.9906H17.629V21.7391C17.629 20.0128 16.2295 18.6133 14.5032 18.6133Z" fill="#F34646"/>
</svg>
