<svg width="25" height="25" viewBox="0 0 25 25" fill="none" xmlns="http://www.w3.org/2000/svg">
<path d="M4.1 21.6002H5.85C7.00501 21.6002 7.95 20.6552 7.95 19.5002V13.2702C7.95 12.1082 7.00501 11.1702 5.85 11.1702H4.1C2.94499 11.1702 2 12.1082 2 13.2702V19.5002C2 20.6552 2.94499 21.6002 4.1 21.6002Z" fill="#F34646"/>
<path d="M13.375 7.28516H11.625C10.47 7.28516 9.52502 8.23014 9.52502 9.38516V19.5002C9.52502 20.6551 10.47 21.6002 11.625 21.6002H13.375C14.53 21.6002 15.475 20.6551 15.475 19.5002V9.38516C15.475 8.23014 14.53 7.28516 13.375 7.28516Z" fill="#F34646"/>
<path d="M20.9 3.40015H19.15C17.995 3.40015 17.05 4.34513 17.05 5.50015V19.5001C17.05 20.6551 17.995 21.6001 19.15 21.6001H20.9C22.055 21.6001 23 20.6551 23 19.5001V5.50015C23 4.34513 22.055 3.40015 20.9 3.40015Z" fill="#F34646"/>
</svg>
