<svg width="30" height="30" viewBox="0 0 30 30" fill="none" xmlns="http://www.w3.org/2000/svg">
<path d="M16.9999 20.7051L13.4656 24.2393C11.3095 26.3378 7.86058 26.2911 5.76213 24.135C3.70416 22.0206 3.70371 18.652 5.76106 16.537L9.29533 12.9995C9.71839 12.5761 9.71814 11.89 9.29477 11.4669C8.87141 11.0438 8.18526 11.0441 7.7622 11.4675L4.229 15.005C1.25594 17.9796 1.25716 22.801 4.23169 25.7741C7.20623 28.7473 12.0278 28.746 15.0009 25.7715L18.5351 22.2372C18.9508 21.8068 18.9389 21.1209 18.5085 20.7052C18.0887 20.2996 17.423 20.2996 17.0031 20.7052H16.9999V20.7051Z" fill="#333333"/>
<path d="M25.7749 4.22988C24.3508 2.796 22.412 1.99183 20.3911 1.99685C18.3714 1.99147 16.4332 2.79397 15.0085 4.22557L11.4688 7.7609C11.0454 8.18396 11.0451 8.8701 11.4682 9.29346C11.8913 9.71683 12.5774 9.71708 13.0008 9.29402L16.5383 5.75976C17.5571 4.73476 18.9437 4.1601 20.3889 4.16381C23.3976 4.16483 25.8358 6.60461 25.8348 9.61327C25.8344 11.0573 25.2606 12.442 24.2396 13.4632L20.7053 16.9975C20.2819 17.4209 20.2819 18.1073 20.7053 18.5306C21.1287 18.954 21.8151 18.954 22.2384 18.5306L25.7727 14.9985C28.7416 12.0231 28.7426 7.20634 25.7749 4.22988Z" fill="#333333"/>
<path d="M17.4853 10.9821L10.9845 17.4829C10.554 17.8986 10.5421 18.5845 10.9578 19.0149C11.3735 19.4453 12.0595 19.4572 12.4899 19.0415C12.4989 19.0328 12.5077 19.024 12.5165 19.0149L19.0173 12.5141C19.433 12.0837 19.4211 11.3978 18.9906 10.9821C18.5708 10.5766 17.9052 10.5766 17.4853 10.9821Z" fill="#333333"/>
</svg>
