<svg width="30" height="30" viewBox="0 0 30 30" fill="none" xmlns="http://www.w3.org/2000/svg">
<path d="M9.58333 8.50004H26.9167C27.204 8.50004 27.4795 8.3859 27.6827 8.18274C27.8859 7.97958 28 7.70403 28 7.41671C28 7.12939 27.8859 6.85384 27.6827 6.65068C27.4795 6.44751 27.204 6.33337 26.9167 6.33337H9.58333C9.29602 6.33337 9.02047 6.44751 8.8173 6.65068C8.61414 6.85384 8.5 7.12939 8.5 7.41671C8.5 7.70403 8.61414 7.97958 8.8173 8.18274C9.02047 8.3859 9.29602 8.50004 9.58333 8.50004Z" fill="#333333"/>
<path d="M26.9167 13.9166H9.58333C9.29602 13.9166 9.02047 14.0308 8.8173 14.2339C8.61414 14.4371 8.5 14.7126 8.5 15C8.5 15.2873 8.61414 15.5628 8.8173 15.766C9.02047 15.9692 9.29602 16.0833 9.58333 16.0833H26.9167C27.204 16.0833 27.4795 15.9692 27.6827 15.766C27.8859 15.5628 28 15.2873 28 15C28 14.7126 27.8859 14.4371 27.6827 14.2339C27.4795 14.0308 27.204 13.9166 26.9167 13.9166Z" fill="#333333"/>
<path d="M26.9167 21.5H9.58333C9.29602 21.5 9.02047 21.6141 8.8173 21.8173C8.61414 22.0205 8.5 22.296 8.5 22.5833C8.5 22.8707 8.61414 23.1462 8.8173 23.3494C9.02047 23.5525 9.29602 23.6667 9.58333 23.6667H26.9167C27.204 23.6667 27.4795 23.5525 27.6827 23.3494C27.8859 23.1462 28 22.8707 28 22.5833C28 22.296 27.8859 22.0205 27.6827 21.8173C27.4795 21.6141 27.204 21.5 26.9167 21.5Z" fill="#333333"/>
<path d="M4.16667 9.58333C5.36328 9.58333 6.33333 8.61328 6.33333 7.41667C6.33333 6.22005 5.36328 5.25 4.16667 5.25C2.97005 5.25 2 6.22005 2 7.41667C2 8.61328 2.97005 9.58333 4.16667 9.58333Z" fill="#333333"/>
<path d="M4.16667 17.1667C5.36328 17.1667 6.33333 16.1967 6.33333 15C6.33333 13.8034 5.36328 12.8334 4.16667 12.8334C2.97005 12.8334 2 13.8034 2 15C2 16.1967 2.97005 17.1667 4.16667 17.1667Z" fill="#333333"/>
<path d="M4.16667 24.75C5.36328 24.75 6.33333 23.7799 6.33333 22.5833C6.33333 21.3867 5.36328 20.4166 4.16667 20.4166C2.97005 20.4166 2 21.3867 2 22.5833C2 23.7799 2.97005 24.75 4.16667 24.75Z" fill="#333333"/>
</svg>
