<svg width="20" height="20" viewBox="0 0 20 20" fill="none" xmlns="http://www.w3.org/2000/svg">
<path d="M14.8602 7.51663V6.52773C14.8602 3.84303 12.6838 1.66663 9.99911 1.66663C7.31438 1.66663 5.13802 3.84303 5.13802 6.52773V7.51663C3.87415 8.06822 3.05651 9.31542 3.05469 10.6944V14.8611C3.05697 16.7778 4.61019 18.331 6.52688 18.3333H13.4713C15.388 18.331 16.9412 16.7778 16.9435 14.8611V10.6944C16.9418 9.31542 16.1241 8.06822 14.8602 7.51663ZM10.6935 13.4722C10.6935 13.8557 10.3826 14.1666 9.99911 14.1666C9.61559 14.1666 9.30468 13.8557 9.30468 13.4722V12.0833C9.30468 11.6998 9.61559 11.3889 9.99911 11.3889C10.3826 11.3889 10.6935 11.6998 10.6935 12.0833V13.4722ZM13.4713 7.22219H6.52688V6.52776C6.52688 4.61012 8.08144 3.05553 9.99911 3.05553C11.9168 3.05553 13.4713 4.61008 13.4713 6.52776V7.22219Z" fill="#BABABA"/>
</svg>
