<svg width="20" height="20" viewBox="0 0 20 20" fill="none" xmlns="http://www.w3.org/2000/svg">
<path d="M18.6321 5.33582L12.5525 11.4155C11.8746 12.0917 10.9562 12.4714 9.9987 12.4714C9.04122 12.4714 8.12282 12.0917 7.44492 11.4155L1.36525 5.33582C1.35514 5.44993 1.33203 5.5532 1.33203 5.66659V14.3333C1.33318 15.2906 1.714 16.2085 2.39097 16.8854C3.06793 17.5624 3.98577 17.9432 4.94314 17.9444H15.0543C16.0116 17.9432 16.9295 17.5624 17.6064 16.8854C18.2834 16.2085 18.6642 15.2906 18.6654 14.3333V5.66659C18.6654 5.5532 18.6423 5.44993 18.6321 5.33582Z" fill="#BABABA"/>
<path d="M11.533 10.3943L18.1298 3.79682C17.8102 3.26694 17.3595 2.82835 16.8211 2.52335C16.2827 2.21835 15.6748 2.05723 15.056 2.05554H4.94487C4.32609 2.05723 3.71818 2.21835 3.17978 2.52335C2.64138 2.82835 2.19066 3.26694 1.87109 3.79682L8.46787 10.3943C8.8749 10.7997 9.42596 11.0273 10.0004 11.0273C10.5749 11.0273 11.126 10.7997 11.533 10.3943Z" fill="#BABABA"/>
</svg>
