<svg width="30" height="30" viewBox="0 0 30 30" fill="none" xmlns="http://www.w3.org/2000/svg">
<path d="M27.9502 8.00391L18.8307 17.1234C17.8138 18.1377 16.4362 18.7073 15 18.7073C13.5638 18.7073 12.1862 18.1377 11.1693 17.1234L2.04983 8.00391C2.03467 8.17507 2 8.32999 2 8.50007V21.5001C2.00172 22.9361 2.57296 24.3129 3.5884 25.3283C4.60385 26.3438 5.98061 26.915 7.41667 26.9167H22.5833C24.0194 26.915 25.3961 26.3438 26.4116 25.3283C27.427 24.3129 27.9983 22.9361 28 21.5001V8.50007C28 8.32999 27.9653 8.17507 27.9502 8.00391Z" fill="#333333"/>
<path d="M17.2988 15.5915L27.194 5.69529C26.7146 4.90047 26.0385 4.24258 25.2309 3.78508C24.4233 3.32758 23.5115 3.08591 22.5833 3.08337H7.41664C6.48846 3.08591 5.5766 3.32758 4.769 3.78508C3.9614 4.24258 3.28532 4.90047 2.80597 5.69529L12.7011 15.5915C13.3117 16.1996 14.1383 16.5411 15 16.5411C15.8617 16.5411 16.6883 16.1996 17.2988 15.5915Z" fill="#333333"/>
</svg>
