<svg width="20" height="20" viewBox="0 0 20 20" fill="none" xmlns="http://www.w3.org/2000/svg">
<path d="M2.77986 14.7495C2.28013 15.2491 1.9993 15.9267 1.99915 16.6334L1.99915 18.0009H3.36673C4.07336 18.0008 4.75099 17.72 5.25058 17.2202L14.1389 8.33192L11.6682 5.86121L2.77986 14.7495Z" fill="#333333"/>
<path d="M17.417 2.58314C17.2548 2.42076 17.0621 2.29194 16.8501 2.20405C16.6381 2.11616 16.4108 2.07092 16.1813 2.07092C15.9518 2.07092 15.7245 2.11616 15.5125 2.20405C15.3004 2.29194 15.1078 2.42076 14.9456 2.58314L12.6101 4.91929L15.0808 7.39L17.417 5.05452C17.5794 4.89231 17.7082 4.69968 17.7961 4.48765C17.884 4.27562 17.9292 4.04835 17.9292 3.81883C17.9292 3.58931 17.884 3.36203 17.7961 3.15001C17.7082 2.93798 17.5794 2.74535 17.417 2.58314Z" fill="#333333"/>
</svg>
