<svg width="30" height="30" viewBox="0 0 30 30" fill="none" xmlns="http://www.w3.org/2000/svg">
<path d="M26.9369 13.9153C26.6491 13.9153 26.3732 13.801 26.1697 13.5975C25.9663 13.3941 25.852 13.1181 25.852 12.8304C25.8497 10.5292 24.9345 8.32293 23.3073 6.69574C21.6802 5.06856 19.4739 4.1534 17.1727 4.1511C16.885 4.1511 16.609 4.0368 16.4056 3.83334C16.2021 3.62988 16.0878 3.35393 16.0878 3.06619C16.0878 2.77845 16.2021 2.5025 16.4056 2.29904C16.609 2.09558 16.885 1.98128 17.1727 1.98128C20.0491 1.98444 22.8068 3.12848 24.8407 5.1624C26.8746 7.19632 28.0186 9.954 28.0218 12.8304C28.0218 13.1181 27.9075 13.3941 27.704 13.5975C27.5006 13.801 27.2246 13.9153 26.9369 13.9153ZM23.6822 12.8304C23.6822 11.104 22.9963 9.44827 21.7756 8.2275C20.5548 7.00674 18.8991 6.32092 17.1727 6.32092C16.885 6.32092 16.609 6.43523 16.4056 6.63869C16.2021 6.84215 16.0878 7.1181 16.0878 7.40584C16.0878 7.69357 16.2021 7.96952 16.4056 8.17298C16.609 8.37644 16.885 8.49075 17.1727 8.49075C18.3236 8.49075 19.4274 8.94796 20.2413 9.7618C21.0551 10.5756 21.5123 11.6794 21.5123 12.8304C21.5123 13.1181 21.6266 13.3941 21.8301 13.5975C22.0336 13.801 22.3095 13.9153 22.5972 13.9153C22.885 13.9153 23.1609 13.801 23.3644 13.5975C23.5679 13.3941 23.6822 13.1181 23.6822 12.8304ZM26.0505 26.0273L27.0378 24.8892C27.6662 24.2588 28.019 23.405 28.019 22.5149C28.019 21.6247 27.6662 20.7709 27.0378 20.1405C27.0041 20.1069 24.3939 18.0987 24.3939 18.0987C23.7674 17.5024 22.9352 17.1703 22.0703 17.1715C21.2054 17.1727 20.3742 17.5071 19.7494 18.1052L17.6815 19.8476C15.9936 19.149 14.4603 18.1239 13.1697 16.831C11.8791 15.5382 10.8566 14.0031 10.1609 12.314L11.8968 10.2526C12.4953 9.62792 12.8301 8.79656 12.8315 7.93137C12.833 7.06618 12.5009 6.23373 11.9044 5.60705C11.9044 5.60705 9.89404 3.00001 9.86041 2.96638C9.24142 2.34337 8.40216 1.9889 7.52398 1.97956C6.64579 1.97022 5.79919 2.30676 5.16709 2.91647L3.91945 4.00138C-3.45143 12.5527 12.4208 28.3023 21.2541 28.0191C22.1461 28.0243 23.0301 27.8507 23.8539 27.5086C24.6777 27.1665 25.4246 26.6628 26.0505 26.0273Z" fill="#333333"/>
</svg>
