<svg width="20" height="20" viewBox="0 0 20 20" fill="none" xmlns="http://www.w3.org/2000/svg">
<path d="M17.9577 9.27687C17.7659 9.27687 17.5819 9.20067 17.4463 9.06503C17.3106 8.92938 17.2344 8.74542 17.2344 8.55359C17.2329 7.01947 16.6228 5.54862 15.538 4.46383C14.4532 3.37904 12.9824 2.76893 11.4483 2.7674C11.2564 2.7674 11.0725 2.6912 10.9368 2.55556C10.8012 2.41992 10.725 2.23595 10.725 2.04413C10.725 1.8523 10.8012 1.66834 10.9368 1.53269C11.0725 1.39705 11.2564 1.32085 11.4483 1.32085C13.3659 1.32296 15.2043 2.08565 16.5602 3.4416C17.9162 4.79755 18.6789 6.636 18.681 8.55359C18.681 8.74542 18.6048 8.92938 18.4691 9.06503C18.3335 9.20067 18.1495 9.27687 17.9577 9.27687ZM15.7879 8.55359C15.7879 7.40265 15.3307 6.29884 14.5168 5.485C13.703 4.67116 12.5992 4.21395 11.4483 4.21395C11.2564 4.21395 11.0725 4.29015 10.9368 4.42579C10.8012 4.56143 10.725 4.7454 10.725 4.93722C10.725 5.12905 10.8012 5.31301 10.9368 5.44865C11.0725 5.5843 11.2564 5.6605 11.4483 5.6605C12.2156 5.6605 12.9514 5.9653 13.494 6.50787C14.0365 7.05043 14.3414 7.7863 14.3414 8.55359C14.3414 8.74542 14.4176 8.92938 14.5532 9.06503C14.6888 9.20067 14.8728 9.27687 15.0646 9.27687C15.2564 9.27687 15.4404 9.20067 15.5761 9.06503C15.7117 8.92938 15.7879 8.74542 15.7879 8.55359ZM17.3668 17.3515L18.025 16.5928C18.4439 16.1725 18.6791 15.6033 18.6791 15.0099C18.6791 14.4165 18.4439 13.8473 18.025 13.427C18.0026 13.4046 16.2624 12.0658 16.2624 12.0658C15.8447 11.6682 15.2899 11.4469 14.7133 11.4477C14.1367 11.4485 13.5826 11.6714 13.166 12.0702L11.7875 13.2317C10.6622 12.766 9.64 12.0826 8.77959 11.2207C7.91919 10.3588 7.23752 9.3354 6.77375 8.20931L7.93099 6.83509C8.33003 6.41861 8.55322 5.86437 8.55416 5.28758C8.5551 4.71079 8.33373 4.15582 7.93605 3.73803C7.93605 3.73803 6.59582 2.00001 6.5734 1.97759C6.16074 1.56224 5.60124 1.32593 5.01578 1.31971C4.43033 1.31348 3.86593 1.53784 3.44452 1.94432L2.61276 2.66759C-2.30115 8.36844 8.28033 18.8682 14.1692 18.6794C14.7639 18.6829 15.3532 18.5671 15.9024 18.3391C16.4516 18.111 16.9495 17.7752 17.3668 17.3515Z" fill="#BABABA"/>
</svg>
