<svg width="20" height="20" viewBox="0 0 20 20" fill="none" xmlns="http://www.w3.org/2000/svg">
<path d="M9.99999 1.53503C8.1257 1.5371 6.32875 2.28252 5.00336 3.60778C3.67797 4.93303 2.93236 6.7299 2.93011 8.60419C2.93011 10.4246 4.3397 13.2735 7.11991 17.0716C7.45088 17.525 7.88424 17.8939 8.38471 18.1482C8.88518 18.4025 9.43862 18.535 9.99999 18.535C10.5614 18.535 11.1148 18.4025 11.6153 18.1482C12.1157 17.8939 12.5491 17.525 12.8801 17.0716C15.6603 13.2735 17.0699 10.4246 17.0699 8.60419C17.0676 6.7299 16.322 4.93303 14.9966 3.60778C13.6712 2.28252 11.8743 1.5371 9.99999 1.53503ZM9.99999 11.4219C9.43961 11.4219 8.89182 11.2558 8.42588 10.9444C7.95994 10.6331 7.59678 10.1906 7.38233 9.67287C7.16788 9.15515 7.11177 8.58546 7.2211 8.03585C7.33042 7.48624 7.60027 6.98139 7.99652 6.58514C8.39277 6.18889 8.89762 5.91904 9.44724 5.80972C9.99685 5.70039 10.5665 5.7565 11.0843 5.97095C11.602 6.1854 12.0445 6.54855 12.3558 7.01449C12.6672 7.48043 12.8333 8.02823 12.8333 8.58861C12.8333 9.34005 12.5348 10.0607 12.0035 10.5921C11.4721 11.1234 10.7514 11.4219 9.99999 11.4219Z" fill="#B3B3B3"/>
</svg>
