<svg width="30" height="30" viewBox="0 0 30 30" fill="none" xmlns="http://www.w3.org/2000/svg">
<path d="M3 12.3333V21.7083C3.00165 23.0892 3.55092 24.413 4.52731 25.3894C5.50371 26.3658 6.82751 26.915 8.20833 26.9167H22.7917C24.1725 26.915 25.4963 26.3658 26.4727 25.3894C27.4491 24.413 27.9983 23.0892 28 21.7083V12.3333H3ZM17.5833 22.75H9.25C8.97373 22.75 8.70878 22.6403 8.51343 22.4449C8.31808 22.2496 8.20833 21.9846 8.20833 21.7083C8.20833 21.4321 8.31808 21.1671 8.51343 20.9718C8.70878 20.7764 8.97373 20.6667 9.25 20.6667H17.5833C17.8596 20.6667 18.1246 20.7764 18.3199 20.9718C18.5153 21.1671 18.625 21.4321 18.625 21.7083C18.625 21.9846 18.5153 22.2496 18.3199 22.4449C18.1246 22.6403 17.8596 22.75 17.5833 22.75ZM21.75 18.5833H9.25C8.97373 18.5833 8.70878 18.4736 8.51343 18.2782C8.31808 18.0829 8.20833 17.8179 8.20833 17.5417C8.20833 17.2654 8.31808 17.0004 8.51343 16.8051C8.70878 16.6097 8.97373 16.5 9.25 16.5H21.75C22.0263 16.5 22.2912 16.6097 22.4866 16.8051C22.6819 17.0004 22.7917 17.2654 22.7917 17.5417C22.7917 17.8179 22.6819 18.0829 22.4866 18.2782C22.2912 18.4736 22.0263 18.5833 21.75 18.5833ZM28 10.25V9.20833C27.9983 7.82751 27.4491 6.50371 26.4727 5.52731C25.4963 4.55092 24.1725 4.00165 22.7917 4H8.20833C6.82751 4.00165 5.50371 4.55092 4.52731 5.52731C3.55092 6.50371 3.00165 7.82751 3 9.20833L3 10.25H28ZM13.4167 6.08333C13.6227 6.08333 13.8241 6.14443 13.9954 6.25889C14.1667 6.37335 14.3002 6.53603 14.379 6.72637C14.4579 6.91671 14.4785 7.12616 14.4383 7.32822C14.3981 7.53028 14.2989 7.71589 14.1532 7.86157C14.0076 8.00725 13.8219 8.10646 13.6199 8.14665C13.4178 8.18684 13.2084 8.16622 13.018 8.08737C12.8277 8.00853 12.665 7.87502 12.5506 7.70372C12.4361 7.53242 12.375 7.33102 12.375 7.125C12.375 6.84873 12.4847 6.58378 12.6801 6.38843C12.8754 6.19308 13.1404 6.08333 13.4167 6.08333ZM10.2917 6.08333C10.4977 6.08333 10.6991 6.14443 10.8704 6.25889C11.0417 6.37335 11.1752 6.53603 11.254 6.72637C11.3329 6.91671 11.3535 7.12616 11.3133 7.32822C11.2731 7.53028 11.1739 7.71589 11.0282 7.86157C10.8826 8.00725 10.6969 8.10646 10.4949 8.14665C10.2928 8.18684 10.0834 8.16622 9.89304 8.08737C9.7027 8.00853 9.54001 7.87502 9.42555 7.70372C9.31109 7.53242 9.25 7.33102 9.25 7.125C9.25 6.84873 9.35975 6.58378 9.5551 6.38843C9.75045 6.19308 10.0154 6.08333 10.2917 6.08333ZM7.16667 6.08333C7.37269 6.08333 7.57408 6.14443 7.74539 6.25889C7.91669 6.37335 8.0502 6.53603 8.12904 6.72637C8.20788 6.91671 8.22851 7.12616 8.18832 7.32822C8.14813 7.53028 8.04892 7.71589 7.90324 7.86157C7.75756 8.00725 7.57195 8.10646 7.36989 8.14665C7.16782 8.18684 6.95838 8.16622 6.76804 8.08737C6.5777 8.00853 6.41501 7.87502 6.30055 7.70372C6.18609 7.53242 6.125 7.33102 6.125 7.125C6.125 6.84873 6.23475 6.58378 6.4301 6.38843C6.62545 6.19308 6.8904 6.08333 7.16667 6.08333Z" fill="#333333"/>
</svg>
