<svg width="17" height="17" viewBox="0 0 17 17" fill="none" xmlns="http://www.w3.org/2000/svg">
<g clip-path="url(#clip0_97_3503)">
<path d="M16.6892 15.1904L13.3989 11.8987C15.8608 8.60861 15.1895 3.94566 11.8995 1.48369C8.60944 -0.978282 3.94648 -0.306983 1.48451 2.98307C-0.977458 6.27311 -0.306159 10.9361 2.98389 13.398C5.62673 15.3757 9.25661 15.3757 11.8995 13.398L15.1912 16.6897C15.6048 17.1034 16.2755 17.1034 16.6891 16.6897C17.1028 16.2761 17.1028 15.6054 16.6891 15.1918L16.6892 15.1904ZM7.46912 12.7627C4.54508 12.7627 2.1747 10.3923 2.1747 7.46829C2.1747 4.54426 4.54508 2.17388 7.46912 2.17388C10.3932 2.17388 12.7635 4.54426 12.7635 7.46829C12.7604 10.391 10.3919 12.7596 7.46912 12.7627Z" fill="#F34646"/>
</g>
<defs>
<clipPath id="clip0_97_3503">
<rect width="17" height="17" fill="white"/>
</clipPath>
</defs>
</svg>
