<svg width="17" height="17" viewBox="0 0 17 17" fill="none" xmlns="http://www.w3.org/2000/svg">
<g clip-path="url(#clip0_397_3327)">
<path d="M16.6893 15.1904L13.399 11.8987C15.861 8.60861 15.1897 3.94566 11.8996 1.48369C8.60959 -0.978282 3.94663 -0.306983 1.48466 2.98307C-0.977305 6.27311 -0.306007 10.9361 2.98404 13.398C5.62688 15.3757 9.25677 15.3757 11.8996 13.398L15.1913 16.6897C15.605 17.1034 16.2757 17.1034 16.6893 16.6897C17.103 16.2761 17.103 15.6054 16.6893 15.1918L16.6893 15.1904ZM7.46927 12.7627C4.54523 12.7627 2.17486 10.3923 2.17486 7.46829C2.17486 4.54426 4.54523 2.17388 7.46927 2.17388C10.3933 2.17388 12.7637 4.54426 12.7637 7.46829C12.7606 10.391 10.392 12.7596 7.46927 12.7627Z" fill="#F34646"/>
</g>
<defs>
<clipPath id="clip0_397_3327">
<rect width="17" height="17" fill="white"/>
</clipPath>
</defs>
</svg>
