<svg width="30" height="30" viewBox="0 0 30 30" fill="none" xmlns="http://www.w3.org/2000/svg">
<path fill-rule="evenodd" clip-rule="evenodd" d="M11.875 2.5C11.5298 2.5 11.25 2.77983 11.25 3.125C11.25 3.47018 11.5298 3.75 11.875 3.75H12.5V7.5H8.75C8.05965 7.5 7.5 8.05965 7.5 8.75V25C7.5 25.6904 8.05964 26.25 8.75 26.25C8.75 26.9404 9.30965 27.5 10 27.5C10.6904 27.5 11.25 26.9404 11.25 26.25H18.75C18.75 26.9404 19.3096 27.5 20 27.5C20.6904 27.5 21.25 26.9404 21.25 26.25C21.9404 26.25 22.5 25.6904 22.5 25V8.75C22.5 8.05965 21.9404 7.5 21.25 7.5H17.5V3.75H18.125C18.4701 3.75 18.75 3.47018 18.75 3.125C18.75 2.77983 18.4701 2.5 18.125 2.5H11.875ZM16.25 7.5V3.75H13.75V7.5H16.25ZM11.25 11.875C11.25 11.5298 11.5298 11.25 11.875 11.25H18.125C18.4701 11.25 18.75 11.5298 18.75 11.875C18.75 12.2202 18.4701 12.5 18.125 12.5H11.875C11.5298 12.5 11.25 12.2202 11.25 11.875ZM11.875 16.25C11.5298 16.25 11.25 16.5299 11.25 16.875C11.25 17.2201 11.5298 17.5 11.875 17.5H18.125C18.4701 17.5 18.75 17.2201 18.75 16.875C18.75 16.5299 18.4701 16.25 18.125 16.25H11.875Z" fill="#F34646"/>
</svg>
