<svg width="25" height="25" viewBox="0 0 25 25" fill="none" xmlns="http://www.w3.org/2000/svg">
<path d="M13.3943 13.5387H11.6058C11.4858 13.5387 11.3882 13.6363 11.3882 13.7563V15.5528C11.3882 15.6728 11.4858 15.7704 11.6058 15.7704H13.3943C13.5143 15.7704 13.6119 15.6728 13.6119 15.5528V13.7563C13.6119 13.6363 13.5143 13.5387 13.3943 13.5387Z" fill="#333333"/>
<path d="M19.9908 6.19395H16.3022V4.65051C16.3022 3.84399 15.6397 3.18787 14.8255 3.18787H10.1746C9.3603 3.18787 8.69786 3.84399 8.69786 4.65051V6.19399H5.00924C3.16617 6.19395 1.66669 7.69341 1.66669 9.53649V11.5398C1.79076 12.144 2.22697 12.6413 2.83064 12.8344L10.1148 14.6146V13.7561C10.1148 12.934 10.7837 12.2651 11.6058 12.2651H13.3942C14.2164 12.2651 14.8853 12.934 14.8853 13.7561V14.6146L22.1694 12.8344C22.7731 12.6413 23.2093 12.144 23.3334 11.5398V9.53649C23.3334 7.69341 21.8339 6.19395 19.9908 6.19395ZM15.0288 6.19399H9.97128V4.65051C9.97128 4.54261 10.0587 4.46123 10.1746 4.46123H14.8255C14.9414 4.46123 15.0288 4.54261 15.0288 4.65051V6.19399Z" fill="#333333"/>
<path d="M22.5285 14.0565C22.5163 14.0603 22.5041 14.0636 22.4917 14.0666L14.8345 15.938C14.6642 16.5739 14.0832 17.0437 13.3942 17.0437H11.6058C10.9169 17.0437 10.3358 16.5739 10.1655 15.938L2.50834 14.0666C2.49599 14.0636 2.48371 14.0602 2.47153 14.0565C2.17915 13.9661 1.90934 13.8346 1.66669 13.6699V19.082C1.66669 20.5875 2.89149 21.8123 4.39703 21.8123H20.603C22.1085 21.8123 23.3334 20.5875 23.3334 19.082V13.6699C23.0907 13.8346 22.8209 13.9661 22.5285 14.0565Z" fill="#333333"/>
</svg>
