<svg width="20" height="20" viewBox="0 0 20 20" fill="none" xmlns="http://www.w3.org/2000/svg">
<path d="M7.27323 3.77728C7.51839 3.5343 7.52016 3.13857 7.27717 2.89341C7.03418 2.64824 6.63846 2.64648 6.39329 2.88947L5.19234 4.07975C4.74553 4.52257 4.37287 4.89189 4.10717 5.22274C3.82848 5.56977 3.6165 5.93447 3.55987 6.37879C3.49076 6.92097 3.94039 7.29171 4.37612 7.29171H15.8333C16.1785 7.29171 16.4583 7.01188 16.4583 6.66671C16.4583 6.32153 16.1785 6.04171 15.8333 6.04171H5.05308C5.06232 6.02986 5.07188 6.01777 5.08178 6.00545C5.2977 5.73659 5.61883 5.41698 6.09791 4.94216L7.27323 3.77728Z" fill="#333333"/>
<path d="M4.16669 12.7084C3.82151 12.7084 3.54169 12.9882 3.54169 13.3334C3.54169 13.6785 3.82151 13.9584 4.16669 13.9584H15.1139C15.1046 13.9702 15.095 13.9823 15.0851 13.9946C14.8692 14.2635 14.5481 14.5831 14.069 15.058L12.8937 16.2228C12.6485 16.4658 12.6468 16.8615 12.8898 17.1067C13.1327 17.3519 13.5284 17.3536 13.7736 17.1106L14.9745 15.9204C15.4214 15.4775 15.794 15.1082 16.0598 14.7774C16.3384 14.4303 16.5504 14.0656 16.607 13.6213C16.6095 13.6019 16.6117 13.5825 16.6137 13.5631C16.6646 13.0607 16.2517 12.7084 15.8334 12.7084H4.16669Z" fill="#333333"/>
</svg>
