<svg width="25" height="25" viewBox="0 0 25 25" fill="none" xmlns="http://www.w3.org/2000/svg">
<g clip-path="url(#clip0_116_9372)">
<path d="M5.22461 9.08203H0.732422C0.327873 9.08203 0 9.4099 0 9.81445V21.5332C0 21.9378 0.327873 22.2656 0.732422 22.2656H5.22461C5.62916 22.2656 5.95703 21.9378 5.95703 21.5332V9.81445C5.95703 9.4099 5.62916 9.08203 5.22461 9.08203Z" fill="#333333"/>
<path d="M25 14.209C25 13.3551 24.51 12.6137 23.7967 12.2503C23.9416 11.9574 24.0234 11.6278 24.0234 11.2793C24.0234 10.0677 23.0377 9.08203 21.8262 9.08203H14.7461V5.41992C14.7461 3.93906 13.5414 2.73438 12.0605 2.73438H10.5957C10.1912 2.73438 9.86328 3.06225 9.86328 3.4668V6.07052C9.86328 6.71482 9.61246 7.3206 9.1568 7.77607L7.63645 9.29661C7.49893 9.43394 7.42188 9.62029 7.42188 9.81445V18.1152C7.42188 20.4037 9.28383 22.2656 11.5723 22.2656H20.3613C21.5729 22.2656 22.5586 21.2799 22.5586 20.0684C22.5586 19.7199 22.4768 19.3903 22.3318 19.0973C23.0452 18.734 23.5352 17.9926 23.5352 17.1387C23.5352 16.8528 23.4797 16.5796 23.3799 16.3288C24.3122 16.0748 25 15.2208 25 14.209Z" fill="#333333"/>
</g>
<defs>
<clipPath id="clip0_116_9372">
<rect width="25" height="25" fill="white"/>
</clipPath>
</defs>
</svg>
