<svg width="30" height="30" viewBox="0 0 30 30" fill="none" xmlns="http://www.w3.org/2000/svg">
<path fill-rule="evenodd" clip-rule="evenodd" d="M12.831 5.17904C12.579 5.17904 12.3393 5.39238 12.27 5.63371L11.8136 6.93438C11.744 7.17571 11.9056 7.38904 12.1573 7.38904H17.8693C18.1206 7.38904 18.2823 7.17571 18.2126 6.93438L17.7563 5.63338C17.6866 5.39204 17.4469 5.17871 17.1953 5.17871L12.831 5.17904Z" fill="#F34646"/>
<path fill-rule="evenodd" clip-rule="evenodd" d="M18.9156 17.1874H11.11C10.7783 17.1874 10.7036 17.5708 10.8566 17.9408C11.1776 18.7241 12.0303 19.4634 12.8426 19.2501H17.1833C18.0236 19.2501 18.8483 18.7238 19.169 17.9408C19.322 17.5708 19.2436 17.2358 18.9156 17.1874ZM6.11897 17.1564C5.97864 17.5901 5.81497 18.4481 6.58597 18.7294C7.21797 18.9598 8.54964 19.1264 9.25797 19.2348C9.94031 19.3371 10.11 18.9344 9.87431 18.3334C9.43164 17.2204 8.43331 16.9844 7.49597 16.8231C6.55997 16.6614 6.22464 16.8314 6.11897 17.1564ZM22.5303 16.8231C21.5943 16.9844 20.5943 17.2201 20.1536 18.3334C19.9156 18.9344 20.086 19.3368 20.7683 19.2348C21.4786 19.1268 22.8083 18.9601 23.4403 18.7294C24.211 18.4481 24.0496 17.5901 23.907 17.1564C23.801 16.8314 23.4676 16.6614 22.5303 16.8231ZM15.0133 9.32109C13.5496 9.32309 11.968 9.37309 10.6293 9.46542C10.1226 9.50009 9.65731 9.77409 9.34464 10.2794C8.67464 11.3661 8.07697 12.3888 7.70064 13.5261C7.70064 13.5261 11.8983 13.9441 15.0133 13.9441C18.1293 13.9441 22.3273 13.5261 22.3273 13.5261C21.949 12.3888 21.3533 11.3661 20.6833 10.2794C20.3706 9.77409 19.904 9.50009 19.3966 9.46542C18.06 9.37309 16.4766 9.32309 15.0133 9.32109ZM15.0133 8.30009C16.7126 8.30009 18.449 8.29142 20.109 8.52242C20.8796 8.63009 21.3743 9.08176 21.7303 9.60576C22.541 10.7984 23.0636 12.0584 23.52 13.3331H25.5546C26.1226 13.3331 26.4613 13.7738 26.3136 14.3208C26.152 14.9268 25.968 15.2234 25.079 15.4301L24.7403 15.5084C25.0043 16.0134 25.199 16.5484 25.199 17.0258V20.9421C25.199 21.5968 24.7456 22.1508 24.2183 22.3574V24.1908C24.2183 24.5488 23.93 24.8368 23.5723 24.8368H21.7403C21.383 24.8368 21.0943 24.5488 21.0943 24.1908V22.4478H8.93297V24.1908C8.93297 24.5488 8.64497 24.8368 8.28697 24.8368H6.45531C6.09764 24.8368 5.80964 24.5488 5.80964 24.1908V22.3574C5.28164 22.1508 4.82697 21.5988 4.82697 20.9421V17.0261C4.82697 16.5488 5.02097 16.0134 5.28664 15.5088L4.94631 15.4304C4.05931 15.2238 3.87531 14.9271 3.71231 14.3211C3.56697 13.7741 3.90564 13.3334 4.47131 13.3334H6.50764C6.96397 12.0591 7.48497 10.7988 8.29564 9.60609C8.65164 9.08176 9.14831 8.63009 9.91731 8.52276C11.579 8.29142 13.3133 8.30009 15.0133 8.30009Z" fill="#F34646"/>
</svg>
