<svg width="30" height="30" viewBox="0 0 30 30" fill="none" xmlns="http://www.w3.org/2000/svg">
<path d="M25.3382 9.69589C25.3534 9.92448 25.3534 10.1541 25.3534 10.3849C25.3534 17.4342 19.9866 25.5624 10.1759 25.5624V25.5581C7.278 25.5624 4.43967 24.7326 2 23.1672C2.42142 23.2181 2.845 23.243 3.26967 23.2441C5.6725 23.2463 8.006 22.4403 9.89425 20.9561C7.61167 20.9128 5.60967 19.4243 4.91092 17.2511C5.71042 17.4049 6.53375 17.3735 7.31917 17.1601C4.82967 16.6574 3.04 14.4702 3.04 11.9308C3.04 11.9081 3.04 11.8853 3.04 11.8636C3.78208 12.2775 4.61192 12.5061 5.46125 12.531C3.11692 10.9656 2.39325 7.84772 3.80917 5.41022C6.5175 8.74256 10.5139 10.7684 14.8028 10.984C14.3728 9.13148 14.961 7.19014 16.3455 5.88688C18.4937 3.86646 21.8727 3.97046 23.8931 6.11872C25.088 5.88363 26.2331 5.44488 27.2807 4.82413C26.882 6.05914 26.0489 7.1078 24.9353 7.77514C25.9937 7.64839 27.0261 7.36564 28 6.93447C27.2839 8.00589 26.3826 8.94081 25.3382 9.69589Z" fill="#333333"/>
</svg>
