<svg width="50" height="50" viewBox="0 0 50 50" fill="none" xmlns="http://www.w3.org/2000/svg">
<rect width="50" height="50" rx="25" transform="matrix(-1 0 0 1 50 0)" fill="#F9F9F9"/>
<path d="M16.9492 29.5762L12.0625 25.5274C11.9043 25.3985 11.8164 25.2051 11.8164 25C11.8164 24.7949 11.9043 24.6016 12.0625 24.4727L16.9492 20.4238C17.2422 20.1836 17.6699 20.2246 17.9102 20.5117C18.1504 20.8047 18.1094 21.2324 17.8223 21.4727L14.3945 24.3145L37.498 24.3145C37.873 24.3145 38.1836 24.6192 38.1836 25C38.1836 25.375 37.8789 25.6856 37.498 25.6856L14.3945 25.6856L17.8223 28.5274C17.9863 28.6621 18.0684 28.8555 18.0684 29.0547C18.0684 29.207 18.0156 29.3652 17.9102 29.4883C17.6699 29.7754 17.2363 29.8164 16.9492 29.5762Z" fill="#F34646"/>
</svg>
