<svg width="50" height="50" viewBox="0 0 50 50" fill="none" xmlns="http://www.w3.org/2000/svg">
<rect width="50" height="50" rx="25" fill="#F34646"/>
<path d="M33.0508 29.5762L37.9375 25.5274C38.0957 25.3985 38.1836 25.2051 38.1836 25C38.1836 24.7949 38.0957 24.6016 37.9375 24.4727L33.0508 20.4238C32.7578 20.1836 32.3301 20.2246 32.0898 20.5117C31.8496 20.8047 31.8906 21.2324 32.1777 21.4727L35.6055 24.3145H12.502C12.127 24.3145 11.8164 24.6192 11.8164 25C11.8164 25.375 12.1211 25.6856 12.502 25.6856H35.6055L32.1777 28.5274C32.0137 28.6621 31.9316 28.8555 31.9316 29.0547C31.9316 29.207 31.9844 29.3652 32.0898 29.4883C32.3301 29.7754 32.7637 29.8164 33.0508 29.5762Z" fill="white"/>
</svg>
