<svg width="140" height="120" viewBox="0 0 140 120" fill="none" xmlns="http://www.w3.org/2000/svg">
<path d="M138.597 65.8114C136.387 65.4416 135.635 67.9756 134.5 69.3203C133.853 70.0851 133.109 70.5683 132.075 70.4633C131.075 70.3624 128.898 70.2616 128.953 68.8034C128.978 68.1479 129.659 68.3412 129.903 67.9377C130.18 67.4755 130.004 66.4333 129.861 65.9585C129.655 65.2819 128.76 63.891 128.848 63.206C128.949 62.437 129.562 62.4244 129.798 61.8319C130.314 60.5544 130.928 60.193 129.218 59.2055C128.453 58.7643 127.302 59.0921 126.6 58.6424C123.507 56.6674 125.558 51.8138 126.671 49.4059C127.726 47.1283 129.966 45.7794 130.63 43.6657C131.319 41.4721 131.512 36.7278 128.701 40.5014C126.999 42.7874 124.705 44.6154 122.772 46.851C119.431 50.7128 113.653 52.4861 110.131 47.9183C109.635 47.2754 108.702 44.3885 107.732 44.5145C106.879 44.6238 106.841 46.3509 105.752 46.3131C104.193 46.2626 105.08 44.6784 103.685 44.1531C101.55 43.3505 99.7181 46.3971 97.264 44.2036C96.2848 43.3295 96.1546 42.2705 96.9572 41.3755C94.0408 39.1315 90.5992 37.4464 87.6408 35.1982C85.2624 33.387 83.4933 30.9203 81.4468 28.7183C76.8621 23.7765 75.156 17.7379 71.2606 12.4977C68.5711 8.87961 65.4615 6.4087 63.478 2.19806C63.062 1.3198 63.2343 0.0297144 61.9988 0.000298749C60.7382 -0.0291169 60.2423 2.12242 59.0615 2.60148C57.8344 3.09734 56.1493 1.72321 55.2333 3.30745C54.708 4.21934 55.0652 5.89603 54.7668 6.92137C54.3592 8.30811 53.3969 9.34186 53.3128 10.8042C53.2288 12.3128 54.1491 14.166 54.6449 15.5528C57.1242 22.5243 58.2673 28.3443 54.6281 35.1015C52.4766 39.0978 54.3886 44.4851 51.7286 48.0486C50.6024 49.5572 48.766 50.0573 47.6398 51.381C46.1144 53.1669 46.1817 56.1463 46.6271 58.2978C47.2238 61.189 48.0937 64.5802 46.3624 67.2444C44.7613 69.7069 41.7441 70.9507 39.1849 69.2699C38.3277 68.7068 37.6343 67.4167 36.6594 67.0805C35.4449 66.6603 34.1675 67.694 32.89 66.9544C32.1168 66.5048 31.5663 65.3912 30.8687 64.8029C29.8182 63.912 25.1705 61.605 23.8342 62.8152C20.8716 65.5131 27.8473 71.2533 25.6243 74.4638C24.8595 75.569 23.3383 76.0985 22.6576 77.1869C22.1239 78.0399 22.5651 79.1535 21.2204 79.372C20.111 79.5527 19.9135 78.4475 19.0352 78.6072C18.0981 78.7795 17.4384 80.4058 16.5811 80.8806C15.518 81.4731 14.2405 81.7337 13.1227 82.1161C10.1559 83.133 11.5679 85.1921 11.6561 87.4109C11.736 89.6591 8.58009 90.8945 9.05074 93.5041C9.47936 95.8574 12.0974 97.1012 13.4127 98.8956C15.2196 101.354 16.7576 104.048 15.1692 107.086C13.9926 109.338 10.9922 112.658 11.7234 115.394C12.0385 116.579 13.627 119.465 14.9339 119.903C16.413 120.398 16.9594 118.894 17.8964 117.835C18.3251 117.352 18.2915 116.99 18.8882 116.671C19.4639 116.364 20.5355 116.751 20.9977 116.41C22.2962 115.452 21.2246 113.746 21.8171 112.561C22.439 111.322 24.4561 111.166 25.4731 110.334C26.5194 109.477 26.5488 108.128 28.2465 108.355C29.1164 108.472 31.2763 109.653 32.0579 110.111C34.2515 111.397 33.8481 111.906 36.2014 110.691C37.4494 110.048 39.248 109.88 38.5126 108.027C37.9285 106.548 35.8568 106.657 34.6465 106.073C32.8396 105.199 32.932 104.577 32.3521 102.883C31.9193 101.623 31.1293 100.165 29.8896 99.6226C28.2297 98.8998 27.6498 100.383 26.406 100.261C25.2041 100.144 20.5438 95.2943 20.2917 94.2479C19.9219 92.7141 21.1868 91.5879 21.7751 90.3861C22.3928 89.1254 22.5735 87.7302 23.5821 86.6083C26.4732 83.3893 30.0325 86.3981 31.8983 89.3439C32.7555 90.697 32.9782 93.1847 34.739 93.6344C36.4871 94.0798 40.0758 91.1971 41.7399 90.3735C44.0511 89.2304 45.6102 87.1377 48.3878 87.0663C49.6779 87.0327 52.2497 86.604 53.4011 86.9696C55.0231 87.4865 56.9015 89.9196 58.4228 90.8021C61.7677 92.7435 64.7765 95.3951 67.9534 97.5971C69.8066 98.8788 71.6892 100.219 73.7063 101.24C75.7107 102.249 77.9043 102.69 79.7407 104.056C80.9803 104.976 81.5392 106.594 82.8251 107.561C84.485 108.809 84.3337 107.804 84.8043 105.989C85.1321 104.72 85.96 103.552 86.1827 102.262C86.3928 101.039 85.8885 99.8033 86.1953 98.5636C86.5567 97.1264 87.9098 95.2943 88.7965 94.0966C90.8766 91.2937 92.7634 88.8354 95.4528 86.4654C97.6085 84.566 99.9408 82.9271 102.122 81.0613C103.277 80.0738 104.315 78.5694 105.832 78.1282C109.581 77.0398 113.27 80.9479 116.712 79.9015C118.321 79.4098 116.796 76.2708 119.179 76.9725C120.254 77.2877 120.284 78.6997 121.309 79.0022C122.246 79.2796 123.267 78.5904 123.906 78.0105C125.263 76.775 125.482 74.6193 127.217 73.7158C128.625 72.9846 130.474 74.0562 131.937 73.5645C133.475 73.0519 134.223 71.9341 134.891 70.7953C135.861 69.148 136.193 69.2362 137.963 68.3412C138.942 67.8495 140.791 66.177 138.589 65.8114H138.597ZM46.5388 11.9809C49.2115 12.3759 47.976 7.7198 46.148 7.39622C43.2275 6.88355 44.3831 11.6615 46.5388 11.9809ZM42.5887 4.37902C44.7613 3.88316 43.8704 0.185197 41.5634 1.27778C41.2861 2.29472 41.1011 4.7194 42.5887 4.37902ZM1.86914 94.7354C0.780761 95.3153 -0.727839 97.5971 0.398358 98.7191C1.20939 99.5301 2.32717 99.1771 2.83144 98.1812C3.49119 96.8785 4.4283 93.3738 1.87335 94.7312L1.86914 94.7354Z" fill="#DBDBDB"/>
</svg>
