<svg width="30" height="30" viewBox="0 0 30 30" fill="none" xmlns="http://www.w3.org/2000/svg">
<g clip-path="url(#clip0_35_283)">
<path d="M5.50222 5.13989C4.92173 5.13989 4.44946 5.61216 4.44946 6.19271C4.44946 6.7732 4.92173 7.24547 5.50222 7.24547C6.08277 7.24547 6.55505 6.7732 6.55505 6.19271C6.55505 5.61216 6.08277 5.13989 5.50222 5.13989Z" fill="#F34646"/>
<path d="M21.6071 28.058C22.0916 26.8892 21.5368 25.5491 20.3681 25.0646C19.1994 24.5802 17.8592 25.1349 17.3747 26.3037C16.8903 27.4724 17.445 28.8126 18.6137 29.2971C19.7825 29.7815 21.1227 29.2268 21.6071 28.058Z" fill="#F34646"/>
<path d="M15.3826 27.1747C15.3826 26.9385 15.4038 26.7074 15.4423 26.482H3.57106C2.60679 26.482 1.82227 25.6975 1.82227 24.7332C1.82227 23.7689 2.60679 22.9843 3.57106 22.9843H11.7547C13.6154 22.9843 15.1293 21.4705 15.1293 19.6098C15.1293 17.7491 13.6155 16.2354 11.7547 16.2354H8.15096L7.06905 18.0441H11.7547C12.6181 18.0441 13.3204 18.7465 13.3204 19.6098C13.3204 20.4732 12.618 21.1756 11.7547 21.1756H3.57106C1.6094 21.1756 0.0134277 22.7715 0.0134277 24.7332C0.0134277 26.6948 1.6094 28.2908 3.57106 28.2908H15.5383C15.4376 27.9357 15.3826 27.5616 15.3826 27.1747Z" fill="#F34646"/>
<path d="M29.9992 14.6556C29.9849 14.2993 29.7625 13.9847 29.4314 13.8522L19.818 10.0068C19.5393 9.89541 19.2236 9.92936 18.975 10.0976C18.7265 10.2659 18.5776 10.5464 18.5776 10.8465V23.1772C18.8686 23.1114 19.1709 23.0755 19.4815 23.0755C19.7925 23.0755 20.0951 23.1115 20.3864 23.1774V20.0244L29.4976 15.502C29.817 15.3435 30.0135 15.012 29.9992 14.6556Z" fill="#F34646"/>
<path d="M11.0917 6.08102C11.0917 3.01813 8.60875 0.535156 5.54586 0.535156C2.48298 0.535156 0 3.01813 0 6.08102V6.10402C0 7.2111 0.296216 8.29798 0.857919 9.252L5.07821 16.4196C5.26925 16.7441 5.73795 16.7457 5.93122 16.4226L10.2119 9.26576C10.7877 8.30325 11.0917 7.20261 11.0917 6.08102ZM5.50226 9.05423C3.92437 9.05423 2.64066 7.77052 2.64066 6.19263C2.64066 4.61475 3.92437 3.33103 5.50226 3.33103C7.08014 3.33103 8.36386 4.61475 8.36386 6.19263C8.36386 7.77058 7.08014 9.05423 5.50226 9.05423Z" fill="#F34646"/>
</g>
<defs>
<clipPath id="clip0_35_283">
<rect width="30" height="30" fill="white"/>
</clipPath>
</defs>
</svg>
