<svg width="30" height="30" viewBox="0 0 30 30" fill="none" xmlns="http://www.w3.org/2000/svg">
<path fill-rule="evenodd" clip-rule="evenodd" d="M12.831 5.17904C12.579 5.17904 12.3393 5.39238 12.27 5.63371L11.8136 6.93438C11.744 7.17571 11.9056 7.38904 12.1573 7.38904H17.8693C18.1206 7.38904 18.2823 7.17571 18.2126 6.93438L17.7563 5.63338C17.6866 5.39204 17.4469 5.17871 17.1953 5.17871L12.831 5.17904Z" fill="#F34646"/>
<path fill-rule="evenodd" clip-rule="evenodd" d="M18.9157 17.1874H11.11C10.7784 17.1874 10.7037 17.5708 10.8567 17.9408C11.1777 18.7241 12.0304 19.4634 12.8427 19.2501H17.1834C18.0237 19.2501 18.8484 18.7238 19.169 17.9408C19.322 17.5708 19.2437 17.2358 18.9157 17.1874ZM6.11903 17.1564C5.9787 17.5901 5.81503 18.4481 6.58603 18.7294C7.21803 18.9598 8.5497 19.1264 9.25803 19.2348C9.94037 19.3371 10.11 18.9344 9.87437 18.3334C9.4317 17.2204 8.43337 16.9844 7.49603 16.8231C6.56003 16.6614 6.2247 16.8314 6.11903 17.1564ZM22.5304 16.8231C21.5944 16.9844 20.5944 17.2201 20.1537 18.3334C19.9157 18.9344 20.086 19.3368 20.7684 19.2348C21.4787 19.1268 22.8084 18.9601 23.4404 18.7294C24.211 18.4481 24.0497 17.5901 23.907 17.1564C23.801 16.8314 23.4677 16.6614 22.5304 16.8231ZM15.0134 9.32109C13.5497 9.32309 11.968 9.37309 10.6294 9.46542C10.1227 9.50009 9.65737 9.77409 9.3447 10.2794C8.6747 11.3661 8.07703 12.3888 7.7007 13.5261C7.7007 13.5261 11.8984 13.9441 15.0134 13.9441C18.1294 13.9441 22.3274 13.5261 22.3274 13.5261C21.949 12.3888 21.3534 11.3661 20.6834 10.2794C20.3707 9.77409 19.904 9.50009 19.3967 9.46542C18.06 9.37309 16.4767 9.32309 15.0134 9.32109ZM15.0134 8.30009C16.7127 8.30009 18.449 8.29142 20.109 8.52242C20.8797 8.63009 21.3744 9.08176 21.7304 9.60576C22.541 10.7984 23.0637 12.0584 23.52 13.3331H25.5547C26.1227 13.3331 26.4614 13.7738 26.3137 14.3208C26.152 14.9268 25.968 15.2234 25.079 15.4301L24.7404 15.5084C25.0044 16.0134 25.199 16.5484 25.199 17.0258V20.9421C25.199 21.5968 24.7457 22.1508 24.2184 22.3574V24.1908C24.2184 24.5488 23.93 24.8368 23.5724 24.8368H21.7404C21.383 24.8368 21.0944 24.5488 21.0944 24.1908V22.4478H8.93303V24.1908C8.93303 24.5488 8.64503 24.8368 8.28703 24.8368H6.45537C6.0977 24.8368 5.8097 24.5488 5.8097 24.1908V22.3574C5.2817 22.1508 4.82703 21.5988 4.82703 20.9421V17.0261C4.82703 16.5488 5.02103 16.0134 5.2867 15.5088L4.94637 15.4304C4.05937 15.2238 3.87537 14.9271 3.71237 14.3211C3.56703 13.7741 3.9057 13.3334 4.47137 13.3334H6.5077C6.96403 12.0591 7.48503 10.7988 8.2957 9.60609C8.6517 9.08176 9.14837 8.63009 9.91737 8.52276C11.579 8.29142 13.3134 8.30009 15.0134 8.30009Z" fill="#F34646"/>
</svg>
