<svg width="30" height="30" viewBox="0 0 30 30" fill="none" xmlns="http://www.w3.org/2000/svg">
<path d="M19.2188 8.4375H17.6813L17.5313 7.99219C17.4393 7.71192 17.261 7.46797 17.0218 7.29533C16.7827 7.12269 16.495 7.03025 16.2 7.03125H13.8C13.505 7.03024 13.2173 7.12269 12.9782 7.29532C12.739 7.46796 12.5607 7.71191 12.4688 7.99219L12.3188 8.4375H10.7812C10.4086 8.43859 10.0516 8.5871 9.78809 8.85059C9.5246 9.11407 9.37609 9.47113 9.375 9.84375V15C9.3761 15.3726 9.52461 15.7297 9.78809 15.9932C10.0516 16.2566 10.4086 16.4052 10.7812 16.4062H19.2188C19.5914 16.4052 19.9484 16.2566 20.2119 15.9932C20.4754 15.7297 20.6239 15.3726 20.625 15V9.84375C20.6239 9.47112 20.4754 9.11407 20.2119 8.85058C19.9484 8.58709 19.5914 8.43859 19.2188 8.4375ZM15 14.5312C14.5365 14.5312 14.0833 14.3938 13.6979 14.1363C13.3125 13.8787 13.012 13.5127 12.8347 13.0844C12.6573 12.6561 12.6109 12.1849 12.7013 11.7303C12.7917 11.2756 13.0149 10.858 13.3427 10.5302C13.6705 10.2024 14.0881 9.97922 14.5428 9.88878C14.9974 9.79835 15.4686 9.84476 15.8969 10.0222C16.3252 10.1995 16.6912 10.5 16.9488 10.8854C17.2063 11.2708 17.3438 11.724 17.3438 12.1875C17.3435 12.809 17.0965 13.405 16.657 13.8445C16.2175 14.284 15.6215 14.531 15 14.5312ZM15 0.9375C12.0175 0.94145 9.15834 2.12798 7.04941 4.23691C4.94048 6.34584 3.75395 9.20503 3.75 12.1875C3.75 20.7609 14.2734 28.6406 14.7234 28.9688C14.8028 29.0296 14.9 29.0625 15 29.0625C15.1 29.0625 15.1972 29.0296 15.2766 28.9688C15.7266 28.6406 26.25 20.7609 26.25 12.1875C26.2461 9.20503 25.0595 6.34584 22.9506 4.23691C20.8417 2.12798 17.9825 0.941446 15 0.9375ZM15 20.625C13.3312 20.625 11.6999 20.1301 10.3124 19.203C8.92484 18.2759 7.84338 16.9581 7.20477 15.4164C6.56615 13.8746 6.39906 12.1781 6.72462 10.5414C7.05019 8.90471 7.85378 7.40129 9.03379 6.22129C10.2138 5.04128 11.7172 4.23769 13.3539 3.91212C14.9906 3.58656 16.6871 3.75365 18.2289 4.39227C19.7706 5.03088 21.0884 6.11234 22.0155 7.49988C22.9426 8.88742 23.4375 10.5187 23.4375 12.1875C23.4357 14.4247 22.5462 16.5698 20.9643 18.1518C19.3823 19.7337 17.2372 20.6232 15 20.625ZM19.2188 8.4375H17.6813L17.5313 7.99219C17.4393 7.71192 17.261 7.46797 17.0218 7.29533C16.7827 7.12269 16.495 7.03025 16.2 7.03125H13.8C13.505 7.03024 13.2173 7.12269 12.9782 7.29532C12.739 7.46796 12.5607 7.71191 12.4688 7.99219L12.3188 8.4375H10.7812C10.4086 8.43859 10.0516 8.5871 9.78809 8.85059C9.5246 9.11407 9.37609 9.47113 9.375 9.84375V15C9.3761 15.3726 9.52461 15.7297 9.78809 15.9932C10.0516 16.2566 10.4086 16.4052 10.7812 16.4062H19.2188C19.5914 16.4052 19.9484 16.2566 20.2119 15.9932C20.4754 15.7297 20.6239 15.3726 20.625 15V9.84375C20.6239 9.47112 20.4754 9.11407 20.2119 8.85058C19.9484 8.58709 19.5914 8.43859 19.2188 8.4375ZM15 14.5312C14.5365 14.5312 14.0833 14.3938 13.6979 14.1363C13.3125 13.8787 13.012 13.5127 12.8347 13.0844C12.6573 12.6561 12.6109 12.1849 12.7013 11.7303C12.7917 11.2756 13.0149 10.858 13.3427 10.5302C13.6705 10.2024 14.0881 9.97922 14.5428 9.88878C14.9974 9.79835 15.4686 9.84476 15.8969 10.0222C16.3252 10.1995 16.6912 10.5 16.9488 10.8854C17.2063 11.2708 17.3438 11.724 17.3438 12.1875C17.3435 12.809 17.0965 13.405 16.657 13.8445C16.2175 14.284 15.6215 14.531 15 14.5312ZM19.2188 8.4375H17.6813L17.5313 7.99219C17.4393 7.71192 17.261 7.46797 17.0218 7.29533C16.7827 7.12269 16.495 7.03025 16.2 7.03125H13.8C13.505 7.03024 13.2173 7.12269 12.9782 7.29532C12.739 7.46796 12.5607 7.71191 12.4688 7.99219L12.3188 8.4375H10.7812C10.4086 8.43859 10.0516 8.5871 9.78809 8.85059C9.5246 9.11407 9.37609 9.47113 9.375 9.84375V15C9.3761 15.3726 9.52461 15.7297 9.78809 15.9932C10.0516 16.2566 10.4086 16.4052 10.7812 16.4062H19.2188C19.5914 16.4052 19.9484 16.2566 20.2119 15.9932C20.4754 15.7297 20.6239 15.3726 20.625 15V9.84375C20.6239 9.47112 20.4754 9.11407 20.2119 8.85058C19.9484 8.58709 19.5914 8.43859 19.2188 8.4375ZM15 14.5312C14.5365 14.5312 14.0833 14.3938 13.6979 14.1363C13.3125 13.8787 13.012 13.5127 12.8347 13.0844C12.6573 12.6561 12.6109 12.1849 12.7013 11.7303C12.7917 11.2756 13.0149 10.858 13.3427 10.5302C13.6705 10.2024 14.0881 9.97922 14.5428 9.88878C14.9974 9.79835 15.4686 9.84476 15.8969 10.0222C16.3252 10.1995 16.6912 10.5 16.9488 10.8854C17.2063 11.2708 17.3438 11.724 17.3438 12.1875C17.3435 12.809 17.0965 13.405 16.657 13.8445C16.2175 14.284 15.6215 14.531 15 14.5312Z" fill="#F34646"/>
</svg>
