<svg width="115" height="134" viewBox="0 0 115 134" fill="none" xmlns="http://www.w3.org/2000/svg">
<path d="M24.7173 58.3675C24.054 58.5226 23.4079 58.5657 22.779 58.6174C22.4085 58.6432 22.0295 58.6691 21.6677 58.7208C19.9877 58.962 18.3853 59.7976 16.8346 60.6074C15.6888 61.2019 14.5086 61.8221 13.5954 62.675C12.2601 63.9242 11.5106 65.7505 11.5451 67.5683C11.8638 67.7061 12.174 67.8784 12.4669 68.111C12.8632 68.4298 13.1905 68.7744 13.5093 69.1104C13.7074 69.3172 13.8969 69.5239 14.1037 69.7135C14.7326 70.2821 15.5079 70.6783 16.3522 70.842C16.5073 70.8765 16.6624 70.8937 16.8174 70.9195C17.2137 70.9798 17.6531 71.0488 18.1011 71.2125C18.437 71.3331 18.7299 71.4968 18.9884 71.6432C19.109 71.7035 19.221 71.7724 19.3416 71.8327C20.1773 72.2462 21.1766 72.3582 22.1845 72.4272C22.3568 72.2032 22.555 71.9964 22.7962 71.8241C23.83 71.066 25.0792 71.066 26.1733 71.1263C27.1554 71.178 28.2064 71.2728 29.1799 71.738C29.8088 72.0395 30.3171 72.453 30.7995 72.8493C30.9976 73.013 31.2044 73.1766 31.4112 73.3317C32.4364 74.0726 33.6769 74.512 34.9864 74.9772C35.6669 75.2184 36.3648 75.4682 37.054 75.7611C37.4503 75.9334 37.8465 76.123 38.2342 76.3125C38.7856 76.5796 39.3111 76.838 39.8452 77.0362C40.7929 77.3894 41.6113 77.5014 42.2919 77.3549C44.0493 76.9759 45.5397 77.355 46.987 77.7426C47.7279 77.9322 48.4947 78.1389 49.2872 78.2251C51.2256 78.4318 53.2157 78.6472 55.1626 78.5696C55.7915 78.5438 56.4204 78.4921 57.0579 78.4318C57.4973 78.3887 57.9367 78.3543 58.3846 78.3284C60.6245 78.182 62.8816 78.2853 65.0957 78.6127C65.2938 75.9851 65.716 73.3748 66.1467 70.8162C65.9227 70.6439 65.716 70.4371 65.5609 70.1442C65.3025 69.6359 65.3024 69.1362 65.311 68.7658C65.311 68.6538 65.311 68.5504 65.311 68.447C65.268 68.0421 64.8458 67.6114 64.4409 67.2324L64.3117 67.1117C63.7173 66.569 63.0453 65.9487 62.7179 65.0269C62.649 64.8288 62.5974 64.6134 62.5457 64.398C62.5026 64.2257 62.4509 63.9759 62.3992 63.9069C62.3992 63.9242 62.2699 63.907 62.1752 63.8897C61.8823 63.8381 61.4774 63.7605 61.0811 63.5021C60.5642 63.1489 60.4005 62.6319 60.3144 62.3563L60.2971 62.2959C60.1162 62.1926 59.7458 62.072 59.5132 61.9858C59.2375 61.8911 58.9704 61.7963 58.7551 61.7015C58.4708 61.5723 57.8936 61.3053 57.6179 60.6591C57.3594 60.0561 57.5318 59.5047 57.6351 59.1687C57.6437 59.1256 57.661 59.0912 57.6696 59.0568C57.6523 59.0395 57.6437 59.0223 57.6351 59.0051C57.5748 58.9189 57.5059 58.8242 57.4542 58.7294C56.9201 57.8421 57.0407 56.8427 57.1699 56.1707L57.2388 55.8347C57.2733 55.6538 57.3164 55.4815 57.3422 55.3179C56.7736 55.1369 56.2826 55.068 55.9121 55.1197C55.7915 55.137 55.6881 55.1369 55.5848 55.1369C55.2402 55.4557 54.8094 55.6883 54.3011 55.7745C53.7326 55.8778 53.207 55.8003 52.7763 55.74L46.5907 54.8957C46.0135 54.8182 45.2985 54.7234 44.6265 54.353C44.2044 54.1204 43.8684 53.8102 43.5755 53.5432C43.3343 53.3192 43.1103 53.1124 42.9035 53.0177C42.6709 52.9057 42.3349 52.8626 41.9817 52.8195C41.4562 52.7506 40.8532 52.6817 40.2673 52.3715C39.7418 52.0873 39.3714 51.691 39.044 51.3464C38.8373 51.131 38.6478 50.9242 38.4668 50.795C38.105 50.5538 37.5364 50.4849 37.0281 50.4159C35.5549 50.2178 34.0301 50.0196 32.6001 50.235C32.2985 50.2781 32.0056 50.3987 31.6782 50.5452C31.1269 50.7778 30.4463 51.062 29.5762 50.9931C29.4642 50.9845 29.1713 51.3033 29.0851 51.7426C29.0248 52.0614 29.0248 52.4318 29.0248 52.8195C29.0248 53.2675 29.0248 53.7671 28.9301 54.284C28.5682 56.2396 26.8711 57.8851 24.7173 58.3934V58.3675Z" fill="#DBDBDB"/>
<path d="M87.8646 12.7771C87.5976 12.0535 87.6234 11.3384 87.6493 10.7095C87.6579 10.4252 87.6751 10.1323 87.6493 9.84804C87.5459 8.85732 86.8826 7.96141 86.0125 6.88454C84.8753 5.47169 83.695 3.99852 82.2908 2.88719C80.2835 1.30203 78.4313 0.492218 76.3981 0.345763L71.8495 0.0183904C71.6341 0.00116047 71.2206 -0.0247034 71.1 0.0528313C71.0224 0.0959061 70.8846 0.294069 70.7726 0.449139C70.5917 0.716202 70.3591 1.04358 70.0145 1.31926C69.2047 1.95677 68.257 1.93093 67.4903 1.92232C67.0165 1.9137 66.5685 1.90505 66.3445 2.05151C66.267 2.1032 66.1722 2.20658 66.0602 2.31857C65.9051 2.48226 65.7415 2.64597 65.5605 2.78381C64.8455 3.33517 63.9926 3.45574 63.312 3.5505L63.0277 3.59362C61.7613 3.79177 60.4949 4.27417 59.263 4.748C59.1165 4.8083 58.9787 4.83413 58.8495 4.84275C58.479 5.07535 58.1689 5.38553 57.9277 5.74736C57.7123 6.07473 57.5055 6.41071 57.1178 6.66055C56.6268 6.97068 56.1099 6.98788 55.7653 7.00511C55.0072 7.03957 54.318 7.20325 53.6977 7.47893C53.4651 7.58231 53.2325 7.70294 53.0085 7.82355C52.5433 8.07338 52.0609 8.32324 51.4923 8.49554C50.5877 8.7626 50.0708 8.76257 49.2266 8.72811C49.2266 8.72811 49.1663 8.75395 49.0629 8.8401C48.9681 8.91764 48.882 9.00382 48.7872 9.08997C48.6321 9.23643 48.4857 9.37425 48.3134 9.50347C47.6328 10.029 46.7368 10.3305 45.7203 10.3563C45.0655 10.3822 44.428 10.296 43.8422 10.1927C43.8164 10.2702 43.7819 10.3477 43.7646 10.4253L44.8674 10.8991C45.2723 11.0714 45.5308 11.4677 45.5308 11.907V17.1622C45.5135 18.6095 45.2637 19.8328 45.0052 21.1337L44.9018 21.6678C44.9707 21.7281 45.0311 21.7798 45.0914 21.8487C45.6341 22.4604 45.5738 23.2271 45.548 23.5975C45.5049 24.2092 45.436 25.1396 44.8501 25.8977C44.7468 26.0356 44.6176 26.1648 44.497 26.2854L45.4618 26.8195C45.772 26.9918 46.1338 27.1814 46.3836 27.1986C46.5042 27.1986 46.6248 27.1728 46.7541 27.1555C47.1504 27.0952 47.6931 27.0004 48.2789 27.2417C49.0801 27.569 49.6056 28.4047 49.6142 29.3782C49.6142 29.9726 49.4506 30.4895 49.2955 30.9461L49.2524 31.0839C49.1921 31.2649 49.1404 31.463 49.0887 31.6698C48.9767 32.1177 48.8561 32.6174 48.6235 33.0654C48.434 33.4358 48.1841 33.7029 47.9774 33.9269C47.8395 34.0733 47.7103 34.2112 47.6673 34.3146C47.6069 34.4524 47.5639 34.6592 47.5122 34.8832C47.4777 35.0555 47.4433 35.2278 47.3916 35.4001C47.2623 35.8825 47.047 36.3219 46.8661 36.7095C46.7799 36.8905 46.6852 37.08 46.6076 37.2695C46.263 38.0965 46.1252 39.0614 45.9873 40.0004C45.8581 40.8533 45.7203 41.8268 46.0046 42.5677C46.0993 42.8003 46.2458 43.0501 46.4094 43.3172C46.6334 43.679 46.8833 44.1011 47.0469 44.5836C47.1331 44.8506 47.1934 45.1263 47.2451 45.402C47.2968 45.6518 47.3398 45.8844 47.4174 46.0481C47.6586 46.5823 48.4598 46.858 49.1232 46.9355C49.4936 46.9786 49.8813 46.9872 50.269 47.0044C50.941 47.0216 51.6388 47.0388 52.3624 47.2198C53.491 47.4954 54.4644 48.0985 55.1709 48.8997C57.0317 48.7705 58.9011 48.9083 60.7189 49.3391C61.1066 48.8997 61.7182 48.7619 62.5108 48.9083C63.5618 49.1151 64.6646 48.848 65.5002 48.2105C65.9568 47.8659 66.267 47.8056 66.6202 47.7625L67.0767 47.7022C67.3266 47.6677 67.5678 47.6419 67.7229 47.573C67.8004 47.5385 67.8693 47.5041 67.9382 47.4696C68.2398 47.3146 68.6878 47.0733 69.2563 47.1078C69.3597 47.1078 69.4458 47.125 69.5492 47.1423C69.5837 47.1078 69.6268 47.0733 69.6527 47.0475C70.4366 46.3238 71.1861 45.8845 71.9615 45.6863C72.5645 45.5312 73.1589 45.5485 73.6845 45.5571C73.874 45.5571 74.0549 45.5571 74.2444 45.5571C74.7785 45.5398 75.1576 45.4279 75.3299 45.2383C76.7083 43.6532 78.7156 43.4034 80.1801 43.2225L80.4299 43.1966C80.8434 43.1449 81.2311 43.1018 81.5585 42.9985C81.8686 42.8951 82.1099 42.74 82.2132 42.5677C82.2822 42.4557 82.3339 42.2575 82.3855 42.0594C82.42 41.9302 82.4545 41.8009 82.4975 41.6717C82.7646 40.8533 83.247 40.0952 84.0052 39.2854C84.2808 38.9925 84.5651 38.7168 84.8667 38.4497C84.8667 38.4153 84.8753 38.3722 84.8839 38.3292L84.9097 38.1655C85.2199 36.3391 85.4611 34.4782 85.6506 32.626C85.7195 31.9196 85.7798 31.2132 85.8315 30.5154C85.8401 30.3431 85.866 30.1018 85.8315 29.9898C85.8057 29.9209 85.7368 29.7917 85.6765 29.6797C85.4783 29.3093 85.1682 28.7579 85.2888 28.0601C85.418 27.302 85.9608 26.8712 86.3226 26.5955C86.426 26.518 86.581 26.3974 86.6155 26.3371C86.6155 26.3371 86.6414 26.1562 86.3915 25.6565C86.2451 25.4239 86.1072 25.1913 86.0383 24.8898C85.9349 24.459 86.0038 24.0541 86.0555 23.7526L86.0813 23.5631L86.581 19.2039C86.6499 18.5664 86.7447 17.7652 87.1668 17.0416C87.4425 16.5677 87.8044 16.2145 88.1059 15.9216L89.3034 14.75C89.3034 14.75 89.2344 14.681 89.2086 14.6552C88.7434 14.19 88.1662 13.6214 87.8733 12.8202L87.8646 12.7771Z" fill="#DBDBDB"/>
<path d="M41.3097 8.04759C41.146 8.03036 41.0513 8.04759 40.9479 8.04759C40.8445 8.04759 40.7411 8.05622 40.6377 8.06483C40.1553 8.06483 39.5953 8.07345 39.0267 8.01315C37.6311 7.86669 36.5801 7.32392 35.9167 6.41935C35.3826 5.69569 34.323 5.2391 33.0307 5.13572C32.4277 5.09265 32.1003 5.19604 32.0056 5.30803C31.8936 5.44587 31.8419 5.79905 31.7902 6.13504C31.7213 6.60886 31.6437 7.2033 31.3249 7.75465C30.989 8.34047 30.4721 8.71093 30.0672 9.00383L29.9638 9.08139C28.8956 9.85674 27.9565 10.8044 27.1812 11.8813C27.0605 12.0449 26.9486 12.2086 26.828 12.3809C26.4489 12.9322 26.0526 13.5095 25.5185 14.0177C24.7431 14.7586 24.0453 14.9051 23.2958 15.0602L23.0977 15.1032C22.7617 15.1722 22.4516 15.1722 22.2017 15.1636C22.107 15.1636 22.0122 15.1636 21.9174 15.1636C21.883 15.1636 21.8485 15.1636 21.8227 15.1722C21.7538 15.31 21.6935 15.4134 21.6245 15.5167C21.0818 16.2662 20.1686 16.3093 19.7723 16.3266C19.6862 16.3266 19.5914 16.3266 19.5052 16.3266C19.152 19.4624 16.4642 22.1847 13.2594 22.4087C12.3721 22.469 11.5364 22.357 10.7266 22.245C10.0288 22.1503 9.36543 22.0555 8.73654 22.09C6.6948 22.1847 4.73918 23.5803 3.17126 24.7089C2.43898 25.2258 1.6895 25.7685 1.19845 26.4319C0.388643 27.5346 0.207714 29.0078 0.0526443 30.8255C-0.0335054 31.8852 -0.0765697 32.962 0.440328 33.5565C0.793542 33.9528 1.41379 34.1595 2.18914 34.3835L7.31505 35.8912C8.02148 36.0979 9.66697 36.5803 10.0977 38.0966C10.382 39.1131 9.94265 40.0436 9.61528 40.7241C7.62523 44.8852 7.63381 49.7785 7.64242 54.0946C7.64242 56.0329 7.64243 58.0316 8.23686 59.8321C8.70207 61.2536 9.5291 62.3994 10.5457 63.0627C10.9678 62.3305 11.4761 61.6499 12.0963 61.064C13.2249 60.0044 14.6033 59.2894 15.818 58.6519C17.4462 57.799 19.2985 56.8341 21.3489 56.5412C21.771 56.4809 22.1931 56.4465 22.6239 56.4206C23.1924 56.3775 23.7266 56.3431 24.2176 56.2224C25.5271 55.9123 26.5781 54.9389 26.7849 53.8361C26.8452 53.5174 26.8452 53.1555 26.8452 52.7678C26.8452 52.3199 26.8452 51.8116 26.9486 51.2947C27.1898 49.9852 28.258 48.6585 29.757 48.7705C30.0844 48.7964 30.3687 48.6844 30.8339 48.4862C31.2474 48.3139 31.7126 48.1158 32.2898 48.0296C34.0214 47.7712 35.7789 48.0038 37.321 48.2105C38.0274 48.3053 38.9061 48.4173 39.6815 48.9342C40.0864 49.2013 40.3879 49.5286 40.655 49.8215C40.879 50.0628 41.0943 50.304 41.3011 50.4073C41.5251 50.528 41.8783 50.571 42.2487 50.6141C42.7398 50.6744 43.2998 50.7433 43.8511 51.0104C44.3594 51.2516 44.7298 51.5962 45.0658 51.9063C45.2898 52.1131 45.4966 52.3027 45.6947 52.4146C46.0048 52.5869 46.4528 52.6472 46.8922 52.7075L53.0777 53.5518C53.3706 53.5949 53.6722 53.6294 53.8962 53.5949C53.8875 53.2244 53.9737 52.9057 54.0168 52.7506C54.1546 52.2768 54.2494 51.958 54.2063 51.7082C54.034 50.5193 53.1208 49.5975 51.8372 49.2788C51.3375 49.1582 50.7776 49.141 50.1917 49.1237C49.7438 49.1065 49.313 49.0892 48.8564 49.0462C47.211 48.848 45.9532 48.0641 45.4191 46.8924C45.2382 46.4961 45.1606 46.0999 45.0917 45.7467C45.0572 45.5658 45.0228 45.3848 44.9624 45.2125C44.8763 44.9541 44.7126 44.6784 44.5317 44.3855C44.3422 44.0667 44.1268 43.7135 43.9631 43.3086C43.4635 42.0336 43.653 40.6983 43.8166 39.63C43.9631 38.6135 44.1354 37.4591 44.5834 36.3822C44.6782 36.1582 44.7816 35.9342 44.8849 35.7188C45.0486 35.3829 45.195 35.0727 45.2812 34.7798C45.3157 34.6592 45.3415 34.53 45.3674 34.4007C45.4277 34.082 45.5052 33.7288 45.6775 33.3584C45.8756 32.9362 46.1599 32.6347 46.3839 32.3935C46.5132 32.2556 46.6337 32.1264 46.6768 32.0402C46.7888 31.8162 46.8836 31.4545 46.9697 31.1099C47.0387 30.8514 47.099 30.6015 47.1765 30.3689L47.2282 30.2225C47.3316 29.9037 47.4349 29.6022 47.4349 29.3696C47.4349 29.2835 47.4091 29.2059 47.3919 29.1887C47.4263 29.2318 47.2368 29.2663 47.1076 29.2835C46.8663 29.3266 46.6165 29.361 46.3753 29.3524C45.5655 29.3438 44.8935 28.9733 44.4025 28.6976L43.2222 28.0429C42.9724 27.9051 42.4382 27.6122 42.197 27.0005C41.9644 26.4061 42.1023 25.6997 42.5589 25.1311C42.6709 24.9846 42.8001 24.864 42.9293 24.7348C42.9982 24.6658 43.0672 24.6055 43.1275 24.528C43.3084 24.2954 43.3429 23.8044 43.3687 23.4081C43.3687 23.3219 43.3773 23.2616 43.3773 23.2099C43.1964 23.0807 42.981 22.8912 42.8346 22.5896C42.5847 22.09 42.6795 21.5903 42.7312 21.3577L42.869 20.6685C43.1189 19.428 43.3342 18.3511 43.3428 17.1277V12.5963L42.1885 12.0966C41.7922 11.9243 41.5337 11.5453 41.5251 11.1145C41.5079 10.3822 41.6629 9.64137 41.9731 8.97802C41.8783 8.67649 41.8955 8.3922 41.9128 8.2199C41.8352 8.15098 41.6974 8.06483 41.594 8.06483C41.482 8.06483 41.3873 8.03895 41.327 8.03034L41.3097 8.04759Z" fill="#DBDBDB"/>
<g style="mix-blend-mode:multiply">
<path d="M65.328 86.168L65.2246 85.4271C65.0178 83.8764 64.9661 82.3257 65.0006 80.7837C62.8641 80.4563 60.6931 80.3443 58.5394 80.4907C58.1173 80.5166 57.6865 80.5597 57.2644 80.5941C56.601 80.6545 55.9377 80.7147 55.2657 80.7406C53.1637 80.8267 51.0788 80.5941 49.0715 80.3788C48.1153 80.2754 47.271 80.0514 46.4526 79.836C45.1517 79.5 44.0318 79.2071 42.774 79.4742C41.6799 79.7154 40.4393 79.5776 39.0954 79.0693C38.4665 78.8281 37.8721 78.5438 37.2949 78.2595C36.933 78.0786 36.5712 77.9063 36.2008 77.7426C35.5891 77.4755 34.9516 77.2515 34.2796 77.0103C32.884 76.5106 31.4281 76.0023 30.1531 75.0719C29.9119 74.8996 29.6792 74.7101 29.4466 74.5206C29.0417 74.1932 28.6627 73.8831 28.2664 73.6849C27.6461 73.392 26.8794 73.3231 26.0782 73.28C25.3632 73.2369 24.5706 73.2283 24.114 73.5557C23.5971 73.9347 23.5109 74.7962 23.6919 75.4424C23.9417 76.3383 24.6309 77.174 25.2339 77.9149C26.4228 79.3708 27.4221 80.5683 28.611 81.6107L29.0331 81.9725C29.6103 82.4636 30.2134 82.9632 30.7044 83.6438C31.1955 84.3158 31.4626 85.0567 31.5143 85.7803C32.6859 85.8148 33.8489 86.1422 34.3572 86.3576C34.5726 86.4437 34.7879 86.5557 34.9947 86.6591C35.2445 86.7883 35.4771 86.9089 35.6839 86.9606C35.9337 87.0209 36.2611 87.0123 36.6143 87.0037C36.8297 87.0037 37.0451 86.9951 37.269 87.0037C38.5441 87.0468 39.6899 87.5033 40.784 87.9341L41.1802 88.0891C42.1882 88.4854 43.2564 88.8214 44.1955 88.6577C45.5997 88.3993 46.8403 88.6405 48.0291 88.8817C48.658 89.0024 49.2525 89.1315 49.8814 89.1746C51.2253 89.278 52.5865 89.1316 54.0338 88.9765C55.7309 88.7956 57.5056 88.6146 59.2716 88.8472C60.8396 89.0626 62.4419 89.6399 64.1219 90.5444C64.5526 90.3635 64.9575 90.217 65.3624 90.1051C65.7501 88.9679 65.552 87.5895 65.3452 86.1508L65.328 86.168Z" fill="#DBDBDB"/>
</g>
<path d="M113.21 20.0483L112.917 19.7382C112.607 19.4022 112.305 19.092 112.004 18.937C111.711 18.7905 111.323 18.7302 110.875 18.6699C110.479 18.6096 110.031 18.5493 109.574 18.4029C108.437 18.0324 107.464 17.1537 106.904 16.0079C106.516 15.8442 106.137 15.7063 105.749 15.6632C105.388 15.6288 105.043 15.7236 104.897 15.9045C104.819 15.9993 104.767 16.1026 104.707 16.206C104.595 16.3955 104.466 16.6368 104.259 16.8694C103.889 17.2915 103.415 17.5414 103.105 17.705C102.726 17.9032 102.415 17.9979 102.174 18.0755C101.907 18.1616 101.761 18.2047 101.545 18.3597C101.27 18.5579 101.028 18.9025 100.779 19.2729C100.46 19.7295 100.072 20.3067 99.4691 20.7288C98.9005 21.1251 98.2372 21.3061 97.6169 21.2372C97.3584 21.2113 97.1 21.1424 96.8674 21.0218C95.9111 20.5566 95.5665 19.5831 95.3598 18.9973C95.153 18.4201 95.0324 18.265 94.9635 18.2305C94.9204 18.2133 94.7653 18.1875 94.6447 18.1702C94.4035 18.1358 94.1623 18.1013 93.9297 18.0152C92.7839 17.6275 92.3876 16.7832 92.1292 15.9906C92.0947 15.9734 92.0344 15.9476 91.9482 15.9217C91.8276 15.8959 91.707 15.8787 91.5864 15.8614C91.483 15.8442 91.3797 15.827 91.2677 15.8097L89.6222 17.4207C89.3982 17.6361 89.1656 17.8601 89.045 18.0755C88.8555 18.4115 88.7952 18.9111 88.7435 19.3935L88.2524 23.7269C88.2352 23.8561 88.218 23.9509 88.2007 24.0543C88.1835 24.1576 88.1577 24.3127 88.1577 24.373C88.2352 24.4505 88.2869 24.5281 88.33 24.6142C88.8641 25.6738 88.9244 26.5871 88.5195 27.3366C88.2783 27.7673 87.9337 28.043 87.658 28.2584C87.6063 28.3014 87.5374 28.3531 87.4771 28.4048C87.5115 28.4479 87.546 28.5168 87.5805 28.5685C87.6925 28.7666 87.8217 29.0078 87.9078 29.2921C88.0629 29.7918 88.0285 30.2656 88.0026 30.6102C87.9509 31.3339 87.8906 32.0576 87.8131 32.7812C87.6235 34.6765 87.3737 36.589 87.0549 38.4671L87.0377 38.5963C86.9861 38.9582 86.8999 39.5095 86.3485 39.9919C86.0814 40.2246 85.8317 40.4657 85.5818 40.7242C85.0477 41.2928 84.7203 41.7925 84.5566 42.2921C84.5222 42.3869 84.4963 42.4817 84.4705 42.5764C84.3843 42.878 84.2896 43.2484 84.0742 43.6102C83.6951 44.2563 83.0318 44.756 82.1961 45.0231C81.662 45.1954 81.1279 45.2557 80.654 45.3074L80.4215 45.3332C78.9311 45.5141 77.725 45.7209 76.9582 46.6082C76.3724 47.2888 75.4678 47.642 74.2876 47.6765C74.0722 47.6765 73.8569 47.6765 73.6329 47.6765C73.2021 47.6765 72.8058 47.6593 72.4698 47.7454C72.0649 47.8488 71.6256 48.1158 71.1259 48.5724C70.8416 48.8395 70.3764 49.2702 69.6872 49.2875C69.4632 49.2875 69.2823 49.253 69.1617 49.2358C69.1617 49.2358 69.0152 49.2961 68.9377 49.3392C68.8085 49.4081 68.6792 49.477 68.55 49.5287C68.1193 49.7096 67.6972 49.7699 67.3353 49.813L66.8443 49.8733H66.827C65.4745 50.8812 63.7859 51.2948 62.1922 51.0105C62.1836 51.0191 62.175 51.0363 62.1664 51.0449C61.8993 51.3637 61.3824 51.6997 60.4778 51.4671C59.0908 51.1139 57.6865 50.9502 56.2651 50.9588C56.2995 51.0966 56.3426 51.2344 56.3598 51.3723C56.446 51.9323 56.3513 52.4405 56.2393 52.8799C57.0404 52.8885 57.9192 53.1125 58.8754 53.5174C59.22 53.6639 59.4699 53.9826 59.5216 54.3531C59.6336 55.0509 59.4957 55.6884 59.3751 56.2484L59.3148 56.5413C59.22 57.0323 59.22 57.3769 59.3234 57.5492C59.3492 57.5923 59.3837 57.6354 59.4096 57.6784C59.5474 57.868 59.7628 58.1609 59.8403 58.5744C59.9351 59.0224 59.8317 59.4187 59.7456 59.703C59.8834 59.7633 60.0471 59.8149 60.2194 59.8752C60.7535 60.0562 61.3565 60.2629 61.8045 60.6506C62.1922 60.9866 62.33 61.4087 62.4075 61.6672C62.4592 61.6758 62.5109 61.6844 62.5626 61.693C62.8727 61.7447 63.2949 61.8223 63.7084 62.1238C64.389 62.6148 64.5527 63.3385 64.6733 63.864C64.7077 64.0018 64.7336 64.1397 64.7767 64.2603C64.9231 64.6652 65.3366 65.0529 65.7846 65.4578L65.9225 65.587C66.6203 66.2331 67.3525 67.0429 67.4818 68.1628C67.499 68.361 67.5076 68.5591 67.499 68.7573C67.499 68.8779 67.499 69.0588 67.5162 69.1191C67.5679 69.1364 67.8867 69.2311 68.0848 69.2914C68.2313 69.3345 68.3691 69.3776 68.507 69.4206C69.3685 69.7135 70.1352 70.2821 70.6607 71.0403C70.8847 71.359 70.9795 71.6778 71.0484 71.9104C71.0656 71.9621 71.0742 72.0051 71.0914 72.0568C71.2551 72.1085 71.4963 72.1258 71.7376 72.1344C73.2193 72.2205 74.6752 72.3928 76.1226 72.6426C76.5447 72.7202 76.9927 72.815 77.4234 73.1079C77.7163 73.3146 77.9059 73.5472 78.0609 73.7454C78.1212 73.8229 78.1816 73.9004 78.2505 73.9607C78.3625 74.0555 78.6382 74.133 78.9138 74.2106L79.2498 74.3053C80.2405 74.6068 80.8953 75.2013 81.102 75.968C81.1968 76.3212 81.1796 76.64 81.1623 76.8812C81.1623 76.9243 81.1623 76.9673 81.1537 77.019C81.2743 77.0535 81.3777 77.0449 81.4725 77.0363C81.7481 77.0104 82.0238 77.019 82.3081 77.0449C82.6182 77.0793 82.9284 77.1138 83.2385 77.1483L86.7018 77.5445C86.9516 77.5704 87.2617 77.6049 87.4168 77.5532C87.5116 77.5187 87.658 77.4326 87.8044 77.3378C88.0198 77.1999 88.2869 77.0277 88.6142 76.907C89.045 76.752 89.4758 76.7261 89.8204 76.7089C90.0357 76.7003 90.3287 76.683 90.4148 76.6227C90.5009 76.571 90.6302 76.3126 90.7249 76.1317C90.9231 75.744 91.1815 75.2616 91.664 74.8911C92.4996 74.2622 93.5162 74.3656 94.1278 74.4259L97.1172 74.7275C97.8323 74.805 98.935 74.9084 99.7448 75.6837C99.8224 75.7613 99.9085 75.8474 99.986 75.9422C100.029 75.9852 100.064 76.0369 100.115 76.08C100.141 76.08 100.305 76.1059 100.417 76.1231C100.546 76.1403 100.675 76.1575 100.804 76.1834C102.226 76.4763 103.182 77.6221 103.802 78.3802C103.897 78.4922 103.932 78.518 104.113 78.6214C104.242 78.6989 104.388 78.7851 104.561 78.9143C104.664 78.9919 104.965 79.2159 105.086 79.2245C105.301 79.1814 105.629 79.1297 105.991 79.2417C106.663 79.4485 107.102 80.1204 107.068 80.8785C107.05 81.1628 106.981 81.4041 106.895 81.6022C106.895 81.6022 106.904 81.6108 106.912 81.6195C107.085 81.7745 107.248 81.9554 107.412 82.1708C107.55 82.3603 107.679 82.5584 107.8 82.7566C107.886 82.8944 107.972 83.0237 108.058 83.1529C108.661 83.9885 109.721 84.5227 110.867 84.5485C111.134 84.5485 111.401 84.5226 111.668 84.4796C111.263 83.7215 110.798 82.9892 110.298 82.2914C109.592 81.3093 109.342 80.3961 108.911 79.2848C108.455 78.1218 108.015 76.8812 107.403 75.8044C107.076 75.2272 106.645 74.7361 106.335 74.1502C105.775 73.1164 105.56 71.9965 105.112 70.911C104.397 69.1794 103.191 67.7063 102.45 65.9919C101.761 64.3809 102.45 62.7527 101.899 61.3484C101.606 60.6162 100.822 60.754 100.58 60.2974C99.7706 58.7726 101.037 57.6268 101.244 56.1967C101.459 54.7494 100.908 53.2676 101.812 51.9237C102.553 50.8382 103.975 50.1662 104.802 49.098C105.861 47.7368 105.853 47.3233 105.034 45.8846C104.388 44.7388 103.932 43.5585 104.457 42.2921C104.81 41.422 105.775 41.0257 106.154 40.259C106.43 39.699 106.292 38.8548 106.456 38.2C106.844 36.6235 107.817 35.2537 108.506 33.8064C109.006 32.764 109.462 31.6612 109.755 30.6964C110.203 29.2232 111.349 28.8872 112.245 27.6381C113.227 26.2769 112.9 25.3034 112.917 23.8733C112.926 22.9601 113.417 21.9091 114.123 20.8581C113.796 20.5996 113.477 20.324 113.184 20.0225L113.21 20.0483Z" fill="#DBDBDB"/>
<path d="M58.9613 91.0269C57.4536 90.8115 55.8944 90.9837 54.2489 91.156C52.7757 91.3111 51.2509 91.4748 49.7002 91.3542C48.9507 91.2939 48.2615 91.1647 47.5895 91.0269C46.504 90.8115 45.5736 90.6306 44.5743 90.8115C43.1011 91.0872 41.6796 90.6478 40.3702 90.1309L39.9653 89.9672C39.0004 89.5795 38.0958 89.2177 37.1827 89.1832C37.0104 89.1832 36.838 89.1832 36.6657 89.1832C36.2091 89.1919 35.6836 89.2091 35.1409 89.0712C34.7015 88.9592 34.3225 88.7697 33.9951 88.5974C33.84 88.5199 33.685 88.4337 33.5213 88.3734C32.4961 87.9513 30.8593 87.8048 30.4974 88.0977C30.4716 88.1494 30.4457 88.4337 30.4285 88.5888C30.3424 89.4934 30.0925 90.1653 29.7221 90.9493C29.2052 92.0434 28.5246 93.06 27.7062 93.9818C26.078 95.8081 23.9242 97.1521 21.6499 97.7551L21.1502 97.8758C20.5902 98.0136 20.0561 98.1428 19.6684 98.3926C19.5564 98.4616 19.4703 98.5477 19.4014 98.6424C20.5472 99.1421 21.3225 100.09 21.4259 101.167C21.4431 101.296 21.4345 101.416 21.4259 101.52C21.5723 101.692 21.7102 101.864 21.8222 102.054C22.3563 102.95 22.2529 103.958 22.1926 104.63C22.0892 105.689 21.9858 106.784 21.6929 107.878C21.5809 108.308 21.4345 108.731 21.2967 109.153C21.0124 109.997 20.7453 110.79 20.7539 111.556C20.7539 111.841 20.8056 111.918 20.8056 111.927C20.8401 111.961 21.0209 112.039 21.1416 112.09C21.2449 112.134 21.3483 112.177 21.4431 112.228C21.8911 112.452 22.4166 112.719 22.9249 113.081C23.6485 113.589 24.2774 114.184 24.8805 114.752L25.4318 115.269C26.0004 115.786 26.681 116.346 27.4219 116.717C27.4908 116.648 27.5511 116.579 27.62 116.501C28.3695 115.743 29.2224 115.063 30.0322 114.373C31.066 113.486 30.8248 113.09 31.0229 111.832C31.2555 110.376 32.7546 109.601 33.9348 108.972C35.296 108.248 36.3728 107.326 37.6479 106.473C39.1641 105.466 41.9295 104.862 43.618 105.836C44.1608 106.146 44.2986 106.809 44.8327 107.068C45.608 107.447 46.7108 106.861 47.5034 107.249C48.2098 107.593 48.2787 108.231 48.7353 108.851C49.3125 109.627 50.1826 110.204 50.665 111.022C51.2767 112.065 51.3543 113.305 51.3457 114.485C51.3457 115.476 50.9063 116.966 52.1813 117.406C53.5683 117.88 54.7313 115.847 55.455 114.985C56.4285 113.831 56.8506 113.159 56.17 111.789C55.3171 110.049 53.1893 108.705 52.8447 106.792C52.457 104.656 53.6458 102.468 54.8002 100.762C55.8685 99.1852 58.1773 98.4788 58.9096 96.7644C59.4868 95.4032 58.453 94.5935 59.5384 93.4046C60.1157 92.7757 60.8824 92.276 61.675 91.8194C60.7273 91.4231 59.8142 91.1561 58.9354 91.0355L58.9613 91.0269Z" fill="#DBDBDB"/>
<path d="M110.85 86.7625C110.686 86.7625 110.514 86.7453 110.35 86.728C108.739 86.5557 107.223 85.7201 106.319 84.4623C106.198 84.29 106.086 84.1177 105.974 83.9367C105.879 83.7903 105.793 83.6438 105.69 83.506C105.629 83.4285 105.569 83.351 105.491 83.282C105.379 83.2304 105.311 83.1873 105.25 83.1442C104.966 82.9633 104.372 82.4378 104.673 81.3867C104.07 81.2661 103.588 80.9129 103.295 80.6976C103.191 80.62 103.097 80.5683 103.01 80.5166C102.769 80.3702 102.476 80.1978 102.14 79.7929C101.572 79.1037 101.003 78.4662 100.391 78.3456C100.314 78.3284 100.236 78.3198 100.15 78.3112C99.8142 78.2681 99.3663 78.2078 98.9269 77.9235C98.6771 77.7598 98.5047 77.5617 98.3755 77.4153C98.3411 77.3722 98.298 77.3291 98.2549 77.286C98.0051 77.0534 97.4796 76.9845 96.9196 76.9242L93.9302 76.6226C93.6976 76.5968 93.1549 76.5451 92.9998 76.6571C92.9136 76.7261 92.793 76.95 92.6897 77.1568C92.4743 77.5703 92.2072 78.0872 91.6559 78.4576C91.0787 78.8453 90.467 78.8798 89.9759 78.9056C89.7433 78.9142 89.5193 78.9314 89.3901 78.9831C89.2954 79.0176 89.1575 79.1037 89.0111 79.1985C88.7698 79.3536 88.4769 79.5431 88.1065 79.6638C87.5035 79.8533 86.9435 79.7929 86.4783 79.7413L83.0065 79.345C82.6532 79.3019 82.3 79.2675 81.9382 79.2244C81.852 79.2158 81.7659 79.2244 81.6797 79.233C81.4385 79.2502 81.1112 79.2847 80.7321 79.1899C79.9395 79.009 79.3106 78.4576 79.0866 77.7512C78.966 77.3721 78.9919 77.0276 79.0005 76.7691C79.0005 76.6916 79.0177 76.6141 79.0005 76.5365C79.0005 76.571 78.8885 76.4848 78.6214 76.3986L78.3457 76.3211C77.8891 76.2005 77.3292 76.0455 76.8467 75.6233C76.6744 75.4769 76.528 75.3046 76.3815 75.1236C76.3126 75.0375 76.2264 74.9341 76.1834 74.8997C76.1231 74.8566 75.8646 74.8135 75.7612 74.7963C74.4001 74.5637 73.0217 74.4 71.6519 74.3225C71.1608 74.288 70.5923 74.2535 70.0409 73.9778C69.2828 73.5902 69.076 72.9096 68.964 72.5392C68.9382 72.453 68.9037 72.3324 68.8779 72.298C68.7056 72.0568 68.4644 71.8672 68.2059 71.7122C67.4564 76.1402 66.7845 80.6803 67.3789 85.1256L67.4823 85.8407C67.6287 86.8658 67.7838 87.9686 67.7235 89.0627C68.6539 88.5285 69.6791 88.0117 70.7473 88.3907C71.5399 88.675 73.2715 89.4934 73.9435 90.019C75.0462 90.8805 76.1489 93.0859 75.7957 94.4126C75.3822 95.946 73.3232 97.0401 72.1516 97.9792C70.5836 99.237 68.9554 100.4 67.3875 101.632C66.1125 102.64 65.6559 103.975 64.7427 105.285C63.6055 106.904 61.2106 108.265 61.3054 110.367C61.3312 110.867 61.2192 111.332 61.3915 111.798C61.6672 112.556 62.3047 112.728 62.2961 113.581C62.2874 114.623 61.357 115.786 61.3398 116.915C61.3226 118.181 61.4087 119.086 61.0814 120.395C60.5817 122.394 61.2106 123.324 61.581 125.177C61.9687 127.132 60.1251 128.235 59.6943 129.984C59.5651 130.501 59.6427 131.948 59.9614 132.448C60.4439 133.197 62.4425 133.645 63.3385 133.335C64.1827 133.042 64.7599 131.371 65.475 130.664C66.5949 129.553 67.801 128.424 69.076 127.477C71.5399 125.65 74.3312 123.402 77.4756 123.083C78.5525 122.971 79.6552 123.143 80.7148 122.937C82.0157 122.678 83.3683 122.049 84.6433 121.636C86.4266 121.05 87.133 119.844 88.3132 118.405C89.1058 117.423 90.2344 116.424 90.6479 115.226C92.1383 110.91 90.7685 106.62 92.7327 102.278C93.8527 99.8055 95.2741 97.445 97.0316 95.3688C97.8672 94.3867 98.8235 93.5338 99.7281 92.6206C100.564 91.7764 101.365 90.7167 102.493 90.2429C105.112 89.1316 108.059 89.459 110.807 89.0282C113.03 88.6836 113.417 88.8731 112.607 86.5471C112.039 86.7022 111.444 86.7797 110.859 86.7711L110.85 86.7625Z" fill="#DBDBDB"/>
</svg>
