<svg width="25" height="25" viewBox="0 0 25 25" fill="none" xmlns="http://www.w3.org/2000/svg">
<path d="M12.5001 2.5437C10.2951 2.54613 8.18102 3.4231 6.62173 4.98222C5.06245 6.54135 4.18526 8.65531 4.18262 10.8604C4.18262 13.002 5.84095 16.3537 9.11179 20.822C9.50117 21.3554 10.011 21.7894 10.5998 22.0886C11.1886 22.3878 11.8397 22.5437 12.5001 22.5437C13.1606 22.5437 13.8117 22.3878 14.4005 22.0886C14.9892 21.7894 15.4991 21.3554 15.8885 20.822C19.1593 16.3537 20.8176 13.002 20.8176 10.8604C20.815 8.65531 19.9378 6.54135 18.3785 4.98222C16.8192 3.4231 14.7052 2.54613 12.5001 2.5437ZM12.5001 14.1753C11.8408 14.1753 11.1964 13.9799 10.6482 13.6136C10.1001 13.2473 9.67281 12.7267 9.42052 12.1176C9.16823 11.5085 9.10222 10.8383 9.23083 10.1917C9.35945 9.54512 9.67692 8.95118 10.1431 8.485C10.6093 8.01883 11.2032 7.70136 11.8498 7.57274C12.4964 7.44413 13.1666 7.51014 13.7757 7.76243C14.3848 8.01472 14.9054 8.44196 15.2717 8.99012C15.638 9.53829 15.8335 10.1828 15.8335 10.842C15.8335 11.7261 15.4823 12.5739 14.8571 13.199C14.232 13.8242 13.3842 14.1753 12.5001 14.1753Z" fill="#333333" fill-opacity="0.6"/>
</svg>
