<svg width="50" height="50" viewBox="0 0 50 50" fill="none" xmlns="http://www.w3.org/2000/svg">
<g clip-path="url(#clip0_116_12631)">
<path d="M12.2419 19.5834C12.1627 19.5834 12.0939 19.6375 12.0773 19.7146L10.3877 26.875H14.0481L12.4085 19.7146C12.3898 19.6375 12.321 19.5834 12.2419 19.5834Z" fill="#F34646"/>
<path d="M39.583 8.33337H27.083V41.6667H39.583C45.3268 41.6667 49.9997 36.9938 49.9997 31.25V18.75C49.9997 13.0063 45.3268 8.33337 39.583 8.33337ZM45.833 20.0771C45.833 20.7855 45.258 21.3605 44.5497 21.3605H43.8913C43.6393 24.0167 42.6059 27.05 40.5434 29.4146C41.6726 30.1 43.0268 30.5896 44.6768 30.7459C45.333 30.8084 45.833 31.3625 45.833 32.023V32.0667C45.833 32.8292 45.1747 33.4167 44.4163 33.3438C42.0476 33.1167 40.1268 32.325 38.5663 31.2146C36.9976 32.3355 35.0538 33.1209 32.6663 33.3438C31.908 33.4146 31.2518 32.8271 31.2518 32.0667V32.023C31.2518 31.3542 31.7684 30.8063 32.4351 30.7438C34.0768 30.5875 35.4309 30.1042 36.5538 29.4209C35.8643 28.6313 35.2893 27.7667 34.8184 26.8646C34.3747 26.0146 35.0038 24.998 35.9643 24.998H35.9851C36.4559 24.998 36.8955 25.2521 37.1122 25.6709C37.4976 26.4042 37.9788 27.1105 38.5559 27.7584C40.2601 25.8417 41.0393 23.3667 41.2705 21.3605H32.5393C31.8309 21.3605 31.2559 20.7855 31.2559 20.0771V20.0334C31.2559 19.325 31.8309 18.75 32.5393 18.75H37.2413V17.95C37.2413 17.2417 37.8163 16.6667 38.5247 16.6667H38.5684C39.2768 16.6667 39.8518 17.2417 39.8518 17.95V18.75H44.5538C45.2622 18.75 45.8372 19.325 45.8372 20.0334V20.0771H45.833Z" fill="#F34646"/>
<path d="M22.9167 8.33337H10.4167C4.6625 8.33337 0 12.998 0 18.75V31.25C0 37.0042 4.6625 41.6667 10.4167 41.6667H22.9167V8.33337ZM16.6875 33.3334C16.0083 33.3334 15.4188 32.8646 15.2667 32.2021L14.7146 29.7917H9.69583L9.125 32.2105C8.96875 32.8688 8.38333 33.3334 7.70625 33.3334C6.76667 33.3334 6.07292 32.4563 6.2875 31.5417L9.23125 19.0563C9.65 17.2521 11.6 16.1271 13.5146 16.9292C14.4292 17.3125 15.0438 18.1917 15.2688 19.1584L18.1083 31.55C18.3167 32.4625 17.625 33.3334 16.6875 33.3334Z" fill="#F34646"/>
</g>
<defs>
<clipPath id="clip0_116_12631">
<rect width="50" height="50" fill="white"/>
</clipPath>
</defs>
</svg>
