<svg width="25" height="25" viewBox="0 0 25 25" fill="none" xmlns="http://www.w3.org/2000/svg">
<path d="M5.6875 3.71407C5.95547 3.83125 6.16953 4.04532 6.28672 4.31328L6.45625 4.70078C6.48438 4.76485 6.57578 4.76485 6.60391 4.70078L6.77344 4.31328C6.89062 4.04532 7.10469 3.83125 7.37266 3.71407L7.76016 3.54453C7.82422 3.51641 7.82422 3.425 7.76016 3.39688L7.37344 3.22735C7.10547 3.11016 6.89141 2.8961 6.77422 2.62813L6.60391 2.24063C6.57578 2.17657 6.48438 2.17657 6.45625 2.24063L6.28672 2.62813C6.16953 2.8961 5.95547 3.11016 5.6875 3.22735L5.3 3.39688C5.23594 3.425 5.23594 3.51641 5.3 3.54453L5.6875 3.71407Z" fill="#F34646"/>
<path d="M3.6832 14.582C3.41523 14.4649 3.20117 14.2508 3.08398 13.9828L2.91445 13.5953C2.88633 13.5313 2.79492 13.5313 2.7668 13.5953L2.59727 13.9828C2.48008 14.2508 2.26602 14.4649 1.99805 14.582L1.61055 14.7516C1.54648 14.7797 1.54648 14.8711 1.61055 14.8992L1.99805 15.0688C2.26602 15.1859 2.48008 15.4 2.59727 15.668L2.7668 16.0555C2.79492 16.1195 2.88633 16.1195 2.91445 16.0555L3.08398 15.668C3.20117 15.4 3.41523 15.1859 3.6832 15.0688L4.0707 14.8992C4.13477 14.8711 4.13477 14.7797 4.0707 14.7516L3.6832 14.582Z" fill="#F34646"/>
<path d="M17.6262 3.71407C17.8941 3.83125 18.1082 4.04532 18.2254 4.31328L18.3949 4.70078C18.423 4.76485 18.5145 4.76485 18.5426 4.70078L18.7121 4.31328C18.8293 4.04532 19.0434 3.83125 19.3113 3.71407L19.6988 3.54453C19.7629 3.51641 19.7629 3.425 19.6988 3.39688L19.3121 3.22735C19.0441 3.11016 18.8301 2.8961 18.7129 2.62813L18.5434 2.24063C18.5152 2.17657 18.4238 2.17657 18.3957 2.24063L18.2262 2.62813C18.109 2.8961 17.8949 3.11016 17.627 3.22735L17.2395 3.39688C17.1754 3.425 17.1754 3.51641 17.2395 3.54453L17.6262 3.71407Z" fill="#F34646"/>
<path d="M23.3891 14.7516L23.0016 14.582C22.7336 14.4649 22.5195 14.2508 22.4023 13.9828L22.2328 13.5953C22.2047 13.5313 22.1133 13.5313 22.0852 13.5953L21.9156 13.9828C21.7984 14.2508 21.5844 14.4649 21.3164 14.582L20.9289 14.7516C20.8648 14.7797 20.8648 14.8711 20.9289 14.8992L21.3164 15.0688C21.5844 15.1859 21.7984 15.4 21.9156 15.668L22.0852 16.0555C22.1133 16.1195 22.2047 16.1195 22.2328 16.0555L22.4023 15.668C22.5195 15.4 22.7336 15.1859 23.0016 15.0688L23.3891 14.8992C23.4539 14.8711 23.4539 14.7797 23.3891 14.7516Z" fill="#F34646"/>
<path d="M13.3424 21.6C13.0744 21.4828 12.8604 21.2687 12.7432 21.0008L12.5736 20.6133C12.5455 20.5492 12.4541 20.5492 12.426 20.6133L12.2564 21.0008C12.1393 21.2687 11.9252 21.4828 11.6572 21.6L11.2697 21.7695C11.2057 21.7977 11.2057 21.8891 11.2697 21.9172L11.6572 22.0867C11.9252 22.2039 12.1393 22.418 12.2564 22.6859L12.426 23.0734C12.4541 23.1375 12.5455 23.1375 12.5736 23.0734L12.7432 22.6859C12.8604 22.418 13.0744 22.2039 13.3424 22.0867L13.7299 21.9172C13.7939 21.8891 13.7939 21.7977 13.7299 21.7695L13.3424 21.6Z" fill="#F34646"/>
<path d="M13.621 2.575L15.5546 6.49297C15.7367 6.86172 16.089 7.11797 16.496 7.17735L20.8195 7.80469C21.8453 7.95391 22.2546 9.21407 21.5124 9.9375L18.3843 12.9867C18.0898 13.2742 17.9554 13.6883 18.0249 14.0938L18.7632 18.4C18.9382 19.4219 17.8664 20.2008 16.9492 19.718L13.082 17.6852C12.7179 17.4938 12.2828 17.4938 11.9179 17.6852L8.05072 19.718C7.13354 20.2 6.06088 19.4211 6.23666 18.4L6.97494 14.0938C7.04447 13.6883 6.9101 13.2742 6.61557 12.9867L3.48744 9.9375C2.74526 9.21407 3.15463 7.95391 4.18041 7.80469L8.50385 7.17657C8.91088 7.11719 9.26322 6.86172 9.44526 6.49219L11.3788 2.57422C11.8367 1.64532 13.1624 1.64532 13.621 2.575Z" fill="#F34646"/>
</svg>
