<svg width="25" height="25" viewBox="0 0 25 25" fill="none" xmlns="http://www.w3.org/2000/svg">
<path d="M13.3947 13.5387H11.6063C11.4863 13.5387 11.3887 13.6363 11.3887 13.7563V15.5528C11.3887 15.6728 11.4863 15.7704 11.6063 15.7704H13.3947C13.5148 15.7704 13.6124 15.6728 13.6124 15.5528V13.7563C13.6124 13.6363 13.5148 13.5387 13.3947 13.5387Z" fill="#333333"/>
<path d="M19.9911 6.19395H16.3025V4.65051C16.3025 3.84399 15.64 3.18787 14.8258 3.18787H10.1749C9.36061 3.18787 8.69816 3.84399 8.69816 4.65051V6.19399H5.00954C3.16648 6.19395 1.66699 7.69341 1.66699 9.53649V11.5398C1.79107 12.144 2.22728 12.6413 2.83094 12.8344L10.1151 14.6146V13.7561C10.1151 12.934 10.784 12.2651 11.6061 12.2651H13.3945C14.2167 12.2651 14.8856 12.934 14.8856 13.7561V14.6146L22.1697 12.8344C22.7734 12.6413 23.2096 12.144 23.3337 11.5398V9.53649C23.3337 7.69341 21.8342 6.19395 19.9911 6.19395ZM15.0291 6.19399H9.97159V4.65051C9.97159 4.54261 10.059 4.46123 10.1749 4.46123H14.8258C14.9417 4.46123 15.0291 4.54261 15.0291 4.65051V6.19399Z" fill="#333333"/>
<path d="M22.5288 14.0565C22.5166 14.0603 22.5044 14.0636 22.492 14.0666L14.8348 15.938C14.6645 16.5739 14.0835 17.0437 13.3945 17.0437H11.6061C10.9172 17.0437 10.3361 16.5739 10.1658 15.938L2.50865 14.0666C2.49629 14.0636 2.48402 14.0602 2.47183 14.0565C2.17946 13.9661 1.90964 13.8346 1.66699 13.6699V19.082C1.66699 20.5875 2.89179 21.8123 4.39733 21.8123H20.6033C22.1088 21.8123 23.3337 20.5875 23.3337 19.082V13.6699C23.091 13.8346 22.8212 13.9661 22.5288 14.0565Z" fill="#333333"/>
</svg>
