<svg width="20" height="21" viewBox="0 0 20 21" fill="none" xmlns="http://www.w3.org/2000/svg">
<path d="M7.27316 4.27728C7.51833 4.0343 7.5201 3.63857 7.27711 3.39341C7.03412 3.14824 6.6384 3.14648 6.39323 3.38947L5.19228 4.57975C4.74546 5.02257 4.37281 5.39189 4.10711 5.72274C3.82842 6.06977 3.61644 6.43447 3.55981 6.87879C3.4907 7.42097 3.94033 7.79171 4.37606 7.79171H15.8333C16.1784 7.79171 16.4583 7.51188 16.4583 7.16671C16.4583 6.82153 16.1784 6.54171 15.8333 6.54171H5.05302C5.06226 6.52986 5.07182 6.51777 5.08172 6.50545C5.29764 6.23659 5.61876 5.91698 6.09785 5.44216L7.27316 4.27728Z" fill="#A7A7A7"/>
<path d="M4.16699 13.2084C3.82182 13.2084 3.54199 13.4882 3.54199 13.8334C3.54199 14.1785 3.82182 14.4584 4.16699 14.4584H15.1142C15.1049 14.4702 15.0953 14.4823 15.0854 14.4946C14.8695 14.7635 14.5484 15.0831 14.0693 15.558L12.894 16.7228C12.6488 16.9658 12.6471 17.3615 12.8901 17.6067C13.133 17.8519 13.5287 17.8536 13.7739 17.6106L14.9748 16.4204C15.4217 15.9775 15.7943 15.6082 16.0601 15.2774C16.3387 14.9303 16.5507 14.5656 16.6073 14.1213C16.6098 14.1019 16.612 14.0825 16.614 14.0631C16.6649 13.5607 16.252 13.2084 15.8337 13.2084H4.16699Z" fill="#A7A7A7"/>
</svg>
