<svg width="143" height="279" viewBox="0 0 143 279" fill="none" xmlns="http://www.w3.org/2000/svg">
<path d="M37.8251 94.5834C40.9437 96.7629 46.2678 94.3335 49.9636 96.2633C49.016 101.708 52.0743 103.879 52.1087 109.1C52.1432 113.76 50.5235 118.791 48.6196 122.996C46.664 127.303 42.6754 130.775 42.2015 135.754C42.1498 136.323 42.0723 136.909 41.9948 137.486L44.2088 137.744C44.674 137.796 45.3718 137.882 45.949 138.373C46.3281 138.701 46.5262 139.097 46.6813 139.407L46.7588 139.562C46.8794 139.795 47.3532 139.967 47.8184 140.131C48.275 140.294 48.8006 140.475 49.2572 140.803C49.6621 141.096 49.9808 141.44 50.2651 141.742C50.4288 141.923 50.5925 142.104 50.7734 142.259C51.1955 142.62 51.7469 142.887 52.3241 143.172C52.6342 143.318 52.9444 143.473 53.2459 143.637C53.5819 143.826 53.9006 144.025 54.2194 144.231C54.5553 144.447 54.9 144.671 55.2532 144.852C56.1664 145.325 57.0106 145.489 58.0703 145.687L58.458 145.765C59.285 145.834 59.9311 146.351 60.4652 146.764C60.672 146.919 60.8701 147.074 61.0855 147.204C61.4818 147.436 61.9901 147.557 62.5242 147.686C62.8602 147.772 63.1962 147.858 63.5322 147.962C64.6435 148.324 65.6601 148.961 66.4785 149.788C67.1849 150.503 67.7018 151.322 68.2015 152.105C68.3307 152.312 68.4685 152.528 68.6064 152.734C69.1146 153.501 69.7436 154.345 70.5792 154.785L70.7084 154.854C70.7859 154.888 70.8721 154.931 70.9497 154.983C71.3201 154.776 71.7509 154.63 72.2505 154.569C72.4745 154.544 72.6985 154.535 72.9225 154.526C73.224 154.518 73.5083 154.5 73.7236 154.44C74.051 154.345 74.387 154.096 74.6799 153.863C75.3346 153.329 75.7223 152.889 75.9377 152.433L76.0325 152.217C76.1789 151.864 76.3857 151.382 76.8336 151.02C77.5056 150.469 78.3585 150.477 78.7634 150.477C79.0908 150.477 79.4526 150.494 79.8231 150.529C80.0901 149.349 80.2452 148.134 80.2624 146.919C80.2624 146.652 80.2624 146.351 80.1849 146.161C80.0987 145.954 79.8661 145.713 79.6163 145.463C79.1769 145.015 78.6342 144.464 78.4619 143.637C78.3671 143.155 78.4274 142.715 78.4705 142.362C78.4877 142.216 78.5136 142.06 78.5136 141.914C78.5136 141.854 78.5136 141.785 78.5049 141.724C78.4877 141.449 78.4619 141.078 78.5911 140.673C78.8065 140.027 79.2803 139.665 79.6335 139.398C79.7455 139.321 79.9092 139.192 79.9437 139.14C80.0815 138.864 80.3313 138.666 80.6242 138.589C80.7018 138.322 80.6673 137.951 80.6242 137.65C80.5726 137.271 80.495 136.9 80.4002 136.547C80.3486 136.349 80.2796 136.142 80.1935 135.995C80.0643 135.78 79.8058 135.565 79.5216 135.341L79.3664 135.212C78.3068 134.333 77.3936 133.308 76.6355 132.153C76.3081 131.654 75.9808 131.051 75.9808 130.318C75.9808 130.215 75.9808 130.111 75.998 129.999V129.965C75.8774 129.844 75.731 129.655 75.6362 129.396C75.4725 128.983 75.5156 128.612 75.55 128.363C75.55 128.32 75.5673 128.276 75.5673 128.233C75.5673 128.121 75.4553 127.889 75.3605 127.691C75.1538 127.269 74.8695 126.691 74.9384 125.976C74.9987 125.278 75.1107 124.572 75.2141 123.874C75.2658 123.538 75.3174 123.211 75.3605 122.875C75.4208 122.444 75.4897 121.91 75.7137 121.393C76.1272 120.445 76.9284 119.817 77.5229 119.351L79.2717 117.982C79.2717 117.982 79.2889 117.964 79.3062 117.956C79.2976 117.887 79.2803 117.801 79.2717 117.732C79.2458 117.585 79.22 117.43 79.2028 117.284C79.1166 116.353 79.4785 115.363 80.2021 114.561C80.7707 113.933 81.4685 113.493 82.0888 113.114L82.2869 112.994C82.396 112.93 82.4707 112.87 82.5109 112.813C82.6574 112.614 82.7521 112.322 82.8297 112.054C83.2604 110.555 83.3466 108.97 83.3638 107.756C83.3638 107.601 83.3638 107.368 83.338 107.273C83.3121 107.213 83.2432 107.11 83.1743 106.998C83.0364 106.791 82.9072 106.575 82.8124 106.351C82.3817 105.292 82.778 104.025 83.7256 103.405C83.9238 103.276 84.1477 103.172 84.3717 103.086C84.4665 103.043 84.613 102.983 84.6474 102.957C84.6646 102.94 84.7077 102.836 84.7767 102.483C84.8628 101.984 84.9059 101.475 84.949 100.967L85.0093 100.338C85.0437 100.011 85.104 99.5714 85.328 99.1751C85.5089 98.8392 85.7587 98.6065 85.9397 98.4342C86 98.3739 86.0689 98.3223 86.1206 98.2533C86.2584 98.0724 86.2757 97.5986 86.2843 97.2885C86.336 95.5741 86.3876 93.6357 86.9045 91.7749C86.9648 91.5423 87.0424 91.2666 87.0338 91.1805C87.0079 91.1288 86.9562 91.0685 86.9132 91.0081L86.8098 90.8617C86.2843 90.0864 85.9742 89.0956 85.9311 88.0791C85.8794 87.0022 86.0603 86.1235 86.5513 85.0638C86.8184 84.4866 87.1544 83.763 87.0338 83.2633L86.9821 83.091C86.8959 82.8239 86.7753 82.419 86.8615 81.9452C86.9821 81.2646 87.4387 80.8597 87.7402 80.584C87.8177 80.5151 87.8953 80.4548 87.9556 80.3773C88.0934 80.2136 88.1537 79.8518 88.1365 79.3176L88.1193 79.042C88.0848 78.4217 88.0503 77.7153 88.3174 77.0002C88.7395 75.8544 89.7733 75.1652 90.4625 74.7173L92.2544 73.5284C92.5473 73.3303 92.8575 73.1321 93.0126 72.9167C93.2969 72.5204 93.2796 71.814 93.2279 71.0645C93.1504 69.9963 93.3916 69.152 93.6242 68.3336C93.719 67.9976 93.8224 67.6444 93.8999 67.2653C93.9516 67.0327 94.0894 66.3091 93.9344 66.1109C93.831 65.9817 93.4519 65.8869 93.1246 65.8008C92.9695 65.7577 92.8144 65.7232 92.6679 65.6802C91.8495 65.4303 91.0828 64.9824 90.4711 64.3879C90.2902 64.2156 90.1266 64.0347 89.9629 63.8452C89.6958 63.5436 89.4632 63.2852 89.222 63.1474C88.9204 62.9837 88.4552 62.9406 88.0073 62.9061C87.4387 62.8631 86.8528 62.8114 86.4221 62.9837C85.931 63.1732 85.5176 63.6987 85.0696 64.2587C84.5527 64.9048 84.0099 65.5337 83.2432 65.9386C82.0629 66.5589 80.719 66.4469 79.6766 66.266C79.5043 66.2401 79.3234 66.2057 79.1425 66.1626C78.7031 66.0765 78.2465 65.9817 77.9019 66.0248C77.006 66.1281 76.1531 65.9472 75.3088 65.4734C75.0159 65.3097 74.7402 65.1202 74.4731 64.9393C74.1544 64.7239 73.8443 64.5172 73.5428 64.3707C73.1551 64.1898 72.6985 64.0692 72.216 63.9313C71.2856 63.6815 70.226 63.3972 69.399 62.5788C69.2611 62.4409 69.1319 62.2859 69.0027 62.1308C68.8648 61.9671 68.7356 61.812 68.6409 61.7431C68.5805 61.7 68.3651 61.6139 67.8569 61.7001C67.4864 61.7604 67.116 61.8637 66.7542 61.9671C66.5302 62.0274 66.2975 62.0963 66.0736 62.148C63.3254 62.82 60.3274 62.4237 57.8463 61.0626C57.3294 60.7783 56.6747 60.7955 55.9165 60.8213C55.4599 60.8386 54.9947 60.8472 54.495 60.8041C53.9609 60.7524 53.4527 60.7093 53.0047 60.7696C52.7376 60.8041 52.4878 60.8816 52.2293 60.9506C51.9881 61.0195 51.7469 61.0798 51.4971 61.1315C50.6269 61.3038 49.7827 61.2865 48.9643 61.2693C48.9126 61.2693 48.8609 61.2693 48.8178 61.2693C49.0073 61.9843 49.2141 62.6822 49.4553 63.3369C50.3254 65.6629 52.9874 67.2998 52.8841 69.9963C52.8324 71.4091 52.1518 72.7617 51.9967 74.2348C51.6521 77.4654 50.3685 80.4204 47.8616 82.5655C47.2671 83.0738 46.4918 83.3667 46.2161 84.1765C45.8542 85.2275 46.8364 86.2182 46.5607 87.2089C46.0783 88.9319 43.8297 89.0612 42.3393 89.199C39.8324 89.4316 40.401 87.097 39.1001 86.8902C34.5859 86.1838 33.9226 91.8438 37.8424 94.592L37.8251 94.5834Z" fill="#DBDBDB"/>
<path d="M49.0079 59.0724C49.7316 59.0897 50.4208 59.1069 51.0497 58.9777C51.2478 58.9346 51.446 58.8829 51.6355 58.8312C51.9801 58.7365 52.3247 58.6503 52.6779 58.5986C53.3844 58.4953 54.0736 58.5642 54.6766 58.6159C55.047 58.6503 55.4261 58.6417 55.831 58.6245C56.7701 58.5986 57.8383 58.5642 58.8721 59.1328C60.8794 60.2355 63.3002 60.5629 65.5314 60.0115C65.7382 59.9598 65.945 59.8995 66.1517 59.8478C66.5825 59.7272 67.0218 59.6066 67.4957 59.5291C68.4175 59.3826 69.1928 59.5032 69.7959 59.8823C70.1921 60.1321 70.4678 60.4681 70.6832 60.7265C70.7608 60.8299 70.8469 60.9247 70.933 61.0194C71.3379 61.4243 72.0013 61.6053 72.768 61.8034C73.328 61.9499 73.9052 62.1049 74.4738 62.3806C74.9304 62.596 75.3181 62.863 75.6885 63.1129C75.9125 63.2679 76.1451 63.423 76.3777 63.5609C76.8171 63.8107 77.1875 63.8968 77.6269 63.8451C78.3075 63.7676 78.9708 63.8968 79.548 64.0088C79.7031 64.0433 79.8667 64.0691 80.0132 64.095C80.7627 64.2156 81.5984 64.3017 82.2014 63.983C82.5977 63.7762 82.9337 63.3713 83.3127 62.8975C83.9072 62.148 84.5619 61.3382 85.5871 60.9333C86.4917 60.5715 87.4135 60.649 88.1543 60.7093C88.766 60.761 89.5328 60.8213 90.2392 61.209C90.8164 61.5277 91.2127 61.9671 91.5659 62.3634C91.6951 62.5098 91.8244 62.6563 91.9622 62.7855C92.3326 63.1387 92.7892 63.4058 93.2803 63.5522C93.4009 63.5867 93.5215 63.6212 93.6507 63.6556C94.2796 63.8107 95.055 64.0174 95.6149 64.7066C96.4247 65.706 96.1577 67.0327 96.0284 67.6702C95.9423 68.1096 95.8303 68.5145 95.7183 68.9021C95.5115 69.6258 95.3565 70.1944 95.3996 70.8836C95.4512 71.6245 95.5202 72.6755 95.0808 73.6318L96.2094 75.2341C96.2524 75.2944 96.33 75.4064 96.3644 75.4323C96.3644 75.4151 96.4247 75.4151 96.4936 75.4323C96.8296 75.4754 97.2087 75.5012 97.4068 75.4064C97.5533 75.3375 97.7342 75.148 97.9237 74.9412C98.0185 74.8378 98.1218 74.7345 98.2166 74.6311C98.9747 73.8816 99.8879 73.4164 100.706 72.9942L103.248 71.6934C103.851 71.3919 104.195 71.3316 104.79 71.3057C105.048 71.2971 105.436 71.2799 105.522 71.2196C105.582 71.1679 105.626 71.1076 105.677 71.0473C105.901 70.7802 106.289 70.3322 106.944 70.2202C107.409 70.1427 107.779 70.2805 108.02 70.3667C108.02 70.3667 108.038 70.3667 108.046 70.3667C108.072 70.3408 108.107 70.3064 108.141 70.2633C108.468 69.8929 108.813 69.4966 109.382 69.307C109.838 69.152 110.278 69.195 110.57 69.2295L113.069 69.488L113.31 69.5138C113.767 69.5655 113.887 69.5741 114.154 69.4793C114.344 69.4104 114.533 69.3329 114.714 69.2467C115.111 69.0744 115.567 68.8849 116.067 68.7729C116.48 68.6868 116.877 68.6609 117.23 68.6437C117.574 68.6265 117.902 68.6092 118.16 68.5317C118.453 68.4455 118.781 68.2646 119.117 68.0665C119.668 67.7477 120.297 67.3859 121.081 67.2911C121.546 67.2308 121.977 67.2911 122.356 67.3342L122.683 67.3687C123.114 67.4117 123.26 67.3428 123.303 67.317C123.424 67.2308 123.553 66.9121 123.674 66.6364C123.82 66.266 123.993 65.8524 124.294 65.4648C124.82 64.7928 125.569 64.4568 126.155 64.2328L126.508 64.1036C126.87 63.9744 127.206 63.8624 127.464 63.6901C127.516 63.6556 127.542 63.6212 127.585 63.5867C124.751 61.1659 121.296 59.865 119.358 55.7901C117.816 52.5423 116.773 48.3296 117.428 44.7372C118.091 41.0413 119.969 36.2428 120.004 32.5987C120.047 28.9029 118.798 26.0341 119.59 22.3899C120.529 18.0652 122.675 13.8094 122.209 9.2435C118.815 8.27863 117.101 11.6471 113.767 10.0878C109.115 7.91681 106.358 -1.22366 99.9568 0.137508C96.7693 0.81809 96.709 4.01423 95.322 6.34027C94.3916 7.89957 93.4095 7.77896 92.9356 9.7001C92.6513 10.8545 93.5129 12.4224 93.1855 13.8094C92.5825 16.3422 89.7998 18.3064 90.9973 21.4423C92.0655 24.2249 94.5897 23.708 97.5447 22.9241C99.8621 22.3124 103.394 21.9334 105.462 21.0288C108.615 19.6504 109.27 15.0069 111.957 19.4092C112.853 20.8737 113.896 25.8962 113.543 27.6795C113.009 30.376 110.691 31.8061 110.209 34.5629C109.64 37.8193 111.466 38.9737 107.4 39.103C102.154 39.2667 101.034 32.5039 95.5374 31.987C95.0894 34.4595 96.1577 37.3714 94.5811 39.215C93.0821 40.981 88.7746 41.5238 86.9224 40.1195C84.2173 38.0692 85.9059 35.7345 85.544 32.7968C85.2511 30.4708 84.3121 28.5238 84.157 26.2064C84.0278 24.1905 84.8979 22.1487 83.6315 20.2534C81.7707 17.4622 81.4691 19.2627 79.0225 18.7544C77.7475 18.4874 77.1013 17.6689 75.8263 17.1693C73.7329 16.3509 72.277 15.2223 70.5712 17.1951C69.615 18.2978 68.986 23.3634 69.2014 24.8797C69.6925 28.3429 71.2604 28.162 69.7614 31.5563C67.9609 35.6484 67.2717 43.6172 61.5341 44.1083C59.8198 44.2547 59.3459 43.2295 57.2955 43.755C55.7276 44.1599 53.8237 45.6073 52.5056 46.4085C49.8091 48.0625 48.2326 49.0877 48.0086 52.5854C47.8794 54.6099 47.9914 56.8412 48.3618 58.9863C48.5858 58.9863 48.8098 58.9863 49.0338 58.9863L49.0079 59.0724Z" fill="#DBDBDB"/>
<path d="M71.458 162.487C71.4321 162.409 71.1996 162.176 71.0617 162.039C70.9153 161.901 70.7774 161.754 70.6482 161.608C69.9762 160.832 69.6058 159.747 69.6058 158.541C69.6058 157.981 69.6661 157.404 69.7953 156.844C69.7953 156.844 69.7695 156.827 69.7522 156.818L69.5799 156.732C68.2877 156.06 67.409 154.888 66.7887 153.949C66.6422 153.734 66.5044 153.51 66.3666 153.286C65.91 152.562 65.4706 151.882 64.9279 151.33C64.3507 150.744 63.6356 150.296 62.8516 150.047C62.576 149.952 62.2917 149.883 62.0074 149.814C61.3785 149.659 60.6634 149.487 60.0001 149.099C59.7072 148.927 59.4229 148.72 59.1472 148.504C58.7768 148.22 58.4322 147.962 58.1479 147.927L57.6654 147.841C56.5282 147.626 55.4514 147.419 54.2626 146.799C53.8404 146.583 53.4441 146.325 53.0478 146.075C52.7635 145.894 52.4792 145.713 52.1949 145.55C51.9279 145.403 51.6522 145.274 51.3851 145.136C50.6959 144.8 49.9895 144.464 49.352 143.904C49.1108 143.697 48.8868 143.456 48.6715 143.223C48.4388 142.974 48.2148 142.732 47.9908 142.577C47.7841 142.431 47.4481 142.31 47.0949 142.181C46.3196 141.905 45.3461 141.561 44.8292 140.561L44.7344 140.372C44.6741 140.251 44.5793 140.07 44.5362 140.027C44.4587 139.967 44.1055 139.924 43.9677 139.915L41.6072 139.64C40.9007 142.991 39.7032 146.333 37.9716 149.09C35.9385 152.347 35.1115 154.854 34.1811 158.472C33.2593 162.056 30.3991 164.451 28.03 167.078C27.0996 168.112 26.1864 169.154 25.2732 170.206C25.6609 170.628 26.0658 171.041 26.5051 171.455C26.8239 171.756 27.134 172.058 27.4442 172.368C28.3057 173.247 29.4945 174.616 29.8477 176.391C30.0803 177.537 29.9339 178.614 29.796 179.656C29.7443 180.044 29.6926 180.423 29.6668 180.811C29.6668 180.931 29.641 181.069 29.6237 181.215C29.6065 181.353 29.5807 181.577 29.5807 181.732H29.7271C29.9942 181.732 30.2698 181.758 30.5283 181.801C30.9849 181.879 31.4587 182.008 31.9153 182.198C32.751 182.534 33.5349 183.033 34.25 183.679C35.7317 185.032 36.6277 186.755 36.7828 188.53C36.9551 190.52 36.3089 192.07 34.7927 193.285C33.9054 194 32.7941 194.887 31.4157 195.206C30.9849 195.31 30.5714 195.335 30.1751 195.37C29.9683 195.387 29.7616 195.404 29.5462 195.43C28.9949 195.508 28.4607 195.68 27.961 195.93C27.5389 196.145 27.246 196.378 27.0909 196.628C26.8842 196.955 26.8239 197.463 26.755 197.954C26.7033 198.385 26.6344 198.885 26.755 199.195C26.8153 199.35 26.91 199.488 27.0048 199.626C27.134 199.824 27.2546 200.022 27.358 200.229C27.7284 200.995 27.7974 201.9 27.5562 202.71L27.5045 202.899C27.358 203.416 27.1512 204.131 26.3501 204.614C26.3501 204.614 26.2811 204.743 26.2381 205.165C26.1691 205.854 26.1002 206.647 25.523 207.276C25.3765 207.439 25.2043 207.577 25.0234 207.706C24.9631 207.75 24.9027 207.793 24.8511 207.844C24.8511 207.827 24.8511 207.974 24.8511 208.051L24.5496 211.084C24.5151 211.394 24.4806 211.738 24.5496 211.936C24.6185 212.117 24.8252 212.35 25.0147 212.548C25.1526 212.703 25.2818 212.824 25.4024 212.944C25.6867 213.22 25.971 213.513 26.2811 213.961C26.419 214.159 26.7636 214.34 27.0996 214.504C27.6423 214.771 28.2798 215.081 28.745 215.667C28.7967 215.727 28.8398 215.796 28.8829 215.865C29.7788 215.848 30.7696 215.908 31.7086 216.33C32.0618 216.485 32.3719 216.683 32.6476 216.856C32.7768 216.942 32.9061 217.019 33.0439 217.097C33.6297 217.433 34.293 217.648 34.9564 217.717L35.4302 217.76C36.2745 217.838 37.1446 217.915 38.0664 218.527C38.3765 218.734 38.6264 218.975 38.8504 219.182C39.0399 219.354 39.2122 219.526 39.3845 219.63C39.6257 219.785 39.9617 219.888 40.3149 220C40.5906 220.086 40.8749 220.181 41.1419 220.293C41.5813 220.482 41.969 220.706 42.3394 220.939C42.5462 221.06 42.7444 221.189 42.9597 221.301C43.7781 221.732 44.6913 221.93 45.6045 221.878C45.9749 221.861 46.242 221.801 46.4229 221.697C46.5866 221.602 46.7675 221.439 46.9657 221.258C47.1293 221.111 47.293 220.965 47.4653 220.827C47.7152 220.629 48.0167 220.379 48.5595 220.336C48.9988 220.302 49.3692 220.405 49.6708 220.482C49.7655 220.508 49.8344 220.526 49.8861 220.534C49.8861 220.517 49.8948 220.5 49.9034 220.482C49.9723 220.267 50.0584 220 50.2393 219.724C50.4719 219.363 50.7821 219.139 51.0061 218.966L51.075 218.915C51.0147 218.82 50.9544 218.725 50.9027 218.63C50.5064 217.846 50.6615 217.054 50.7735 216.468C50.8251 216.209 50.8682 215.968 50.8596 215.787C50.851 215.555 50.739 215.262 50.6184 214.943C50.4202 214.418 50.1704 213.763 50.2566 213.005C50.3772 211.988 51.0405 211.109 52.2553 210.386C52.4103 210.291 52.5567 210.205 52.7118 210.119C52.798 210.067 52.8928 210.015 52.9789 209.964C53.0651 209.722 53.0995 209.576 53.0995 209.516C52.953 209.378 52.8583 209.274 52.7808 209.162C52.1949 208.37 52.4276 207.422 52.5396 206.974C52.7291 206.216 52.9875 205.165 53.8059 204.424C54.3573 203.916 55.0207 203.692 55.5548 203.511L57.2347 202.925C57.3811 202.873 57.5707 202.83 57.7602 202.779C57.855 202.753 57.9928 202.727 58.0962 202.693C58.1392 202.52 58.1565 202.21 58.1737 202.003C58.2082 201.555 58.2427 201.09 58.415 200.677C58.9233 199.479 59.9398 198.669 61.0683 198.566C61.2751 198.549 61.4819 198.549 61.6886 198.566C61.7662 198.566 61.8696 198.566 61.9471 198.566C61.9471 198.48 61.9471 198.437 61.9471 198.394C61.9299 198.273 61.9213 198.144 61.9126 198.023C61.9126 197.765 61.9299 197.489 61.9471 197.222L61.9643 197.033C62.016 196.283 62.1022 195.671 62.2314 195.12C62.5157 193.871 63.0412 192.846 63.7735 192.07C63.8596 191.976 63.9544 191.889 64.0491 191.795C64.2301 191.622 64.4282 191.424 64.4713 191.312C64.4971 191.226 64.4799 191.011 64.4713 190.813C64.454 190.606 64.4368 190.399 64.4454 190.192C64.4713 189.236 64.8934 188.297 65.7291 187.341C65.9272 187.108 66.1426 186.884 66.3579 186.66C66.7025 186.307 67.0213 185.971 67.2711 185.609C67.9948 184.549 68.1671 183.094 68.2877 181.767C67.9603 181.448 67.857 180.948 68.0551 180.518C68.5203 179.527 68.2704 178.226 67.4693 177.485C67.1763 177.227 66.8576 176.934 66.6853 176.477C66.4958 175.978 66.5733 175.504 66.625 175.219L67.0041 172.876C67.1074 172.23 67.2367 171.429 67.6933 170.705C68.2963 169.74 69.3646 169.215 70.3639 169.396C70.5535 169.43 70.7171 169.482 70.8636 169.542C70.8291 169.241 70.8032 168.939 70.8032 168.638C70.8032 168.009 71.0359 167.656 71.2082 167.397L71.2771 167.294C71.5269 166.897 71.6217 166.251 71.5097 165.683C71.4838 165.536 71.4408 165.381 71.3977 165.235C71.2771 164.795 71.1306 164.253 71.1995 163.658C71.2254 163.4 71.2943 163.141 71.3719 162.883C71.4149 162.745 71.4752 162.538 71.4666 162.469L71.458 162.487Z" fill="#DBDBDB"/>
<path d="M142.152 120.704C143.221 119.3 142.626 118.447 141.61 117.344C140.335 115.957 140.042 114.191 140.214 112.261C140.326 111.021 141.007 109.961 141.127 108.832C141.205 108.109 140.817 107.575 140.765 106.903C140.697 106.058 141.007 105.275 141.041 104.439C141.084 103.534 140.912 102.75 140.679 101.906C140.386 100.829 139.887 99.7695 139.654 98.6754C139.439 97.702 139.542 96.6079 139.31 95.6171C138.836 93.5409 136.665 92.3004 136.165 90.2586C135.674 88.2686 136.277 86.0631 135.338 84.0903C134.201 81.7126 135.941 79.4727 135.338 77.1036C135.329 77.0691 135.321 77.0261 135.312 76.9916C134.683 74.7345 132.366 72.598 131.263 70.5476C130.591 69.2984 130.505 67.0758 129.764 66.0075C129.566 65.7146 129.351 65.4475 129.135 65.1891C128.989 65.3269 128.834 65.4648 128.653 65.5854C128.179 65.8955 127.671 66.0678 127.231 66.2229L126.913 66.3349C126.594 66.4555 126.198 66.6192 126.017 66.8604C125.905 67.0068 125.801 67.2481 125.698 67.5065C125.474 68.0493 125.198 68.7298 124.526 69.1778C123.992 69.531 123.329 69.6689 122.485 69.5913C122.355 69.5827 122.217 69.5655 122.088 69.5483C121.804 69.5138 121.546 69.4793 121.347 69.5052C121.011 69.5483 120.641 69.755 120.219 70.0048C119.797 70.2461 119.323 70.5218 118.763 70.6854C118.263 70.8233 117.781 70.8491 117.359 70.875C117.057 70.8922 116.781 70.9094 116.54 70.9611C116.247 71.0214 115.929 71.1593 115.593 71.3057C115.369 71.4005 115.145 71.4953 114.912 71.5814C114.154 71.8571 113.637 71.7968 113.077 71.7365L112.853 71.7106L110.355 71.4522C110.269 71.4436 110.122 71.4263 110.07 71.4349C110.07 71.4522 109.95 71.59 109.864 71.6762L109.786 71.7623C109.597 71.9777 109.011 72.6324 108.115 72.6324C107.805 72.6324 107.555 72.5549 107.365 72.486C107.365 72.486 107.365 72.486 107.365 72.4946C107.227 72.6583 107.081 72.822 106.917 72.9512C106.28 73.4681 105.513 73.5025 104.953 73.5198C104.54 73.537 104.522 73.537 104.264 73.6748L101.722 74.9757C101.016 75.3375 100.292 75.708 99.7755 76.2163C99.6979 76.2938 99.6204 76.3799 99.5429 76.4575C99.2586 76.7676 98.8967 77.1553 98.3798 77.4051C97.7251 77.7239 97.0618 77.7239 96.4243 77.6549C96.364 77.6549 96.3037 77.6377 96.2434 77.6377C95.9591 77.6033 95.6231 77.5429 95.2871 77.3534C94.865 77.1122 94.6151 76.7676 94.46 76.535L93.5813 75.2944C93.5813 75.2944 93.521 75.3375 93.4866 75.3548L91.6946 76.5436C91.083 76.9485 90.5575 77.319 90.3938 77.7669C90.2818 78.0685 90.3076 78.4906 90.3249 78.9386L90.3421 79.2315C90.368 79.9465 90.3335 80.9803 89.6529 81.7901C89.5237 81.9452 89.3686 82.083 89.2221 82.2209C89.1791 82.264 89.1101 82.3156 89.0671 82.3673C89.0757 82.3932 89.093 82.4276 89.1016 82.4621C89.1274 82.5569 89.1618 82.6602 89.1791 82.755C89.4806 84.0042 88.9465 85.15 88.5502 85.9942C88.2056 86.7265 88.0936 87.2693 88.1281 87.9843C88.1539 88.6046 88.3434 89.2076 88.6449 89.6556L88.7225 89.759C88.8431 89.9313 89.0068 90.1639 89.1188 90.4654C89.3686 91.1632 89.1877 91.8266 89.0499 92.309C88.5933 93.9717 88.5416 95.6947 88.4899 97.366C88.4727 97.9604 88.4468 98.8564 87.8782 99.5973C87.749 99.7609 87.6025 99.9074 87.4475 100.054C87.3785 100.114 87.2924 100.2 87.2666 100.235C87.2666 100.243 87.2321 100.321 87.2063 100.571L87.1546 101.174C87.1029 101.725 87.0598 102.294 86.9564 102.88C86.8875 103.259 86.7496 104.043 86.1552 104.594C85.8451 104.878 85.4919 105.025 85.2334 105.128C85.1386 105.171 85.0439 105.197 84.9578 105.257C84.8802 105.309 84.8285 105.464 84.863 105.55C84.8974 105.645 84.9663 105.731 85.0267 105.817C85.1473 106.007 85.311 106.239 85.4143 106.541C85.5952 107.023 85.5866 107.506 85.578 107.816C85.5522 109.168 85.4661 110.935 84.9578 112.683C84.8285 113.131 84.6476 113.648 84.303 114.113C83.9843 114.553 83.6913 114.734 83.4243 114.88L83.2692 114.975C82.7265 115.311 82.2096 115.638 81.8477 116.043C81.5376 116.388 81.3739 116.784 81.3998 117.094C81.4084 117.18 81.4256 117.275 81.4428 117.361C81.5204 117.792 81.6324 118.438 81.2533 119.076C81.0638 119.386 80.814 119.584 80.6503 119.713L78.91 121.083C78.4621 121.436 77.9538 121.841 77.7556 122.28C77.6522 122.522 77.6006 122.858 77.5575 123.185C77.5144 123.53 77.4541 123.874 77.4024 124.219C77.2991 124.874 77.2043 125.537 77.144 126.192C77.1354 126.295 77.256 126.545 77.3507 126.743C77.5403 127.139 77.7815 127.63 77.7815 128.251C77.7815 128.38 77.7642 128.509 77.7556 128.63V128.656C77.8676 128.759 78.0055 128.94 78.1002 129.172C78.2725 129.577 78.2381 129.948 78.2122 130.198C78.2122 130.241 78.2036 130.284 78.2036 130.327C78.2036 130.508 78.419 130.835 78.5051 130.964C79.1426 131.938 79.918 132.799 80.8054 133.54L80.9518 133.661C81.3395 133.98 81.7875 134.341 82.1062 134.884C82.3302 135.255 82.4594 135.651 82.5455 135.995C82.6661 136.435 82.7609 136.891 82.8212 137.357C82.8988 137.908 82.9591 138.632 82.7092 139.347C82.5283 139.872 82.2871 140.389 81.5893 140.622C81.3825 140.846 81.1586 141.018 80.9777 141.156C80.8743 141.233 80.7192 141.345 80.6847 141.397C80.7106 141.363 80.7106 141.483 80.7192 141.569C80.7192 141.673 80.7364 141.785 80.7364 141.888C80.7364 142.147 80.7106 142.405 80.6761 142.663C80.6416 142.887 80.6158 143.094 80.6417 143.206C80.6847 143.404 80.9345 143.663 81.2102 143.938C81.5807 144.318 82.0028 144.748 82.2527 145.36C82.4853 145.929 82.4939 146.489 82.4853 146.962C82.468 148.349 82.2871 149.728 81.977 151.072C82.3474 151.227 82.7006 151.399 83.0452 151.571L83.5363 151.821C84.6304 152.373 85.7589 152.941 86.7669 153.803C87.1804 154.147 87.6715 154.44 88.1884 154.742C88.7742 155.078 89.3169 155.405 89.8855 155.569C90.1009 155.629 90.3249 155.672 90.5489 155.715C91.0313 155.81 91.574 155.913 92.0996 156.18C92.4786 156.361 92.7887 156.602 93.0644 156.809C93.254 156.947 93.4349 157.094 93.6416 157.206C93.8742 157.326 94.1757 157.412 94.5031 157.507C94.8305 157.602 95.2009 157.705 95.5714 157.869C96.6913 158.377 97.4409 159.273 98.0956 160.066L98.2334 160.238C98.4488 160.496 98.6986 160.738 98.9485 160.979C99.4481 161.461 100.008 162.013 100.396 162.702L100.456 162.814C100.534 162.952 100.637 163.15 100.697 163.202C100.792 163.245 101.154 163.202 101.292 163.202C101.636 163.167 101.99 163.141 102.205 163.021C102.265 162.986 102.317 162.952 102.377 162.909C102.627 162.745 102.972 162.512 103.445 162.452C103.756 162.418 104.014 162.452 104.212 162.495C104.212 162.495 104.212 162.495 104.221 162.486C104.341 162.34 104.496 162.133 104.729 161.952C105.341 161.479 106.082 161.479 106.581 161.513C107.331 161.573 108.063 161.728 108.778 161.97C108.881 162.004 108.994 162.039 109.08 162.064C109.097 161.927 109.08 161.771 109.062 161.634C108.916 160.41 109.743 159.661 110.294 159.17C110.579 158.92 110.872 158.653 110.915 158.455C110.932 158.377 110.94 158.3 110.949 158.231C110.984 157.946 111.027 157.567 111.242 157.18C111.466 156.783 111.785 156.542 112.009 156.361L112.112 156.284C112.862 155.689 113.379 154.681 113.732 153.122C113.835 152.665 113.964 152.071 114.43 151.589C114.981 151.011 115.73 150.882 116.256 150.83C117.531 150.71 118.642 150.83 119.564 151.158C120.684 151.571 121.468 152.157 122.149 152.726C123.182 153.596 124.285 154.397 125.405 155.164C125.784 155.207 126.12 155.138 126.396 154.845C127.395 153.777 126.051 152.622 127.343 151.597C128.549 150.65 129.997 150.477 131.056 149.219C131.823 148.306 132.495 147.376 133.279 146.48C134.192 145.429 133.736 146.101 133.641 144.895C133.589 144.223 133.417 143.034 133.744 142.439C134.08 141.819 135.114 141.733 135.441 141.182C136.036 140.165 134.899 139.958 134.657 138.985C134.244 137.339 136.234 137.408 136.975 136.891C138.017 136.168 137.311 135.272 136.725 134.29C136.243 133.48 135.769 132.351 136.26 131.361C136.897 130.077 139.766 129.724 140.24 128.294C140.533 127.406 139.723 127.088 139.49 126.398C139.258 125.726 139.327 124.882 139.508 124.167C139.938 122.47 141.257 121.962 142.196 120.721L142.152 120.704Z" fill="#DBDBDB"/>
<path d="M121.632 155.103C121.331 154.862 121.012 154.638 120.719 154.397C120.107 153.889 119.547 153.484 118.781 153.208C118.178 152.984 117.368 152.915 116.437 153.001C116.084 153.036 115.998 153.088 115.981 153.096C115.946 153.148 115.886 153.406 115.852 153.561C115.55 154.897 114.982 156.766 113.457 157.981L113.327 158.084C113.259 158.136 113.147 158.222 113.121 158.257C113.121 158.257 113.121 158.369 113.112 158.463C113.095 158.601 113.078 158.739 113.052 158.877C112.871 159.79 112.225 160.367 111.751 160.789C111.579 160.944 111.251 161.237 111.225 161.341C111.277 161.754 111.303 162.228 111.174 162.719C110.993 163.4 110.519 163.934 109.916 164.158C109.209 164.416 108.563 164.192 108.133 164.046C107.53 163.839 106.97 163.727 106.41 163.675C106.134 163.649 106.048 163.675 106.031 163.675C106.031 163.693 105.996 163.744 105.953 163.796C105.755 164.046 105.462 164.425 104.936 164.597C104.497 164.744 104.101 164.666 103.842 164.623C103.791 164.614 103.73 164.597 103.687 164.597C103.722 164.606 103.661 164.657 103.601 164.701C103.498 164.769 103.386 164.838 103.274 164.899C102.662 165.235 102.016 165.295 101.499 165.347C101.249 165.372 100.922 165.398 100.56 165.364C100.215 165.329 99.8451 165.226 99.5005 165.002C99.0008 164.666 98.7337 164.192 98.5442 163.839L98.4925 163.744C98.2685 163.331 97.8636 162.943 97.4415 162.53C97.1313 162.228 96.8298 161.935 96.5714 161.616L96.4249 161.444C95.8649 160.772 95.3394 160.135 94.676 159.842C94.4348 159.73 94.1764 159.661 93.9179 159.592C93.5216 159.48 93.0737 159.351 92.6257 159.127C92.2897 158.946 92.0054 158.73 91.7556 158.541C91.5402 158.377 91.3335 158.222 91.1439 158.127C90.8769 157.998 90.515 157.929 90.1359 157.852C89.8517 157.8 89.5674 157.74 89.2831 157.662C88.456 157.421 87.7324 156.999 87.0863 156.628C86.5091 156.292 85.9146 155.939 85.3547 155.474C84.5448 154.785 83.5714 154.294 82.5548 153.777L82.0552 153.518C81.5469 153.26 81.0731 153.019 80.5992 152.872C80.0048 152.7 79.35 152.665 78.7901 152.665C78.411 152.665 78.2904 152.691 78.2559 152.717C78.2215 152.752 78.1353 152.95 78.0836 153.088C78.0405 153.182 77.9975 153.277 77.9544 153.372C77.4892 154.363 76.7139 155.06 76.1022 155.569C75.637 155.939 75.077 156.353 74.3706 156.551C73.9054 156.68 73.4574 156.706 73.0611 156.723C72.8888 156.723 72.7165 156.74 72.5442 156.758C72.2944 156.783 72.1307 156.852 72.0531 156.904C72.0359 157.016 72.0101 157.111 71.9843 157.188L71.9411 157.335C71.855 157.731 71.8033 158.153 71.8033 158.558C71.8033 159.239 71.9842 159.816 72.3116 160.195C72.3977 160.298 72.5011 160.393 72.5959 160.488C72.975 160.858 73.4919 161.358 73.6211 162.133C73.7158 162.685 73.5694 163.176 73.466 163.529C73.4316 163.658 73.3885 163.787 73.3713 163.917C73.354 164.106 73.4229 164.39 73.5091 164.692C73.5608 164.89 73.6211 165.097 73.6556 165.295C73.8709 166.424 73.6728 167.621 73.1214 168.491L72.9577 168.741C72.9922 168.948 73.0267 169.241 73.0525 169.525L73.087 169.869C73.1128 170.137 73.1731 170.757 72.7682 171.3C72.3288 171.894 71.5276 172.118 70.7092 171.86C70.5455 171.808 70.3905 171.739 70.2354 171.67C70.1406 171.627 70.02 171.575 69.9683 171.567C69.908 171.558 69.684 171.653 69.5376 171.885C69.3222 172.239 69.2361 172.747 69.1499 173.247L68.7708 175.59C68.7708 175.59 68.7537 175.676 68.7537 175.728C68.7881 175.753 68.8139 175.779 68.8484 175.805L68.9518 175.9C70.2354 177.08 70.7523 178.967 70.3302 180.638C70.4335 180.785 70.5197 180.957 70.5628 181.172C70.5972 181.345 70.6145 181.646 70.4594 181.991C70.3129 183.516 70.1062 185.351 69.0638 186.867C68.7192 187.375 68.3143 187.789 67.9266 188.194C67.7371 188.392 67.5475 188.59 67.3666 188.797C66.8756 189.357 66.6257 189.856 66.6171 190.278C66.6171 190.408 66.6257 190.537 66.6344 190.657C66.6688 191.028 66.7033 191.493 66.5396 192.001C66.3328 192.639 65.9021 193.052 65.5575 193.388C65.4886 193.457 65.411 193.526 65.3421 193.604C64.8769 194.086 64.5409 194.767 64.3514 195.628C64.248 196.076 64.1791 196.567 64.136 197.213L64.1188 197.437C64.1016 197.618 64.0843 197.808 64.0843 197.997C64.0843 198.058 64.0929 198.101 64.1016 198.152C64.1274 198.342 64.1446 198.523 64.1274 198.721C64.0843 199.462 63.7139 200.108 63.1453 200.461C62.5939 200.797 62.0253 200.78 61.6118 200.763C61.4998 200.763 61.3878 200.754 61.2758 200.763C60.9571 200.797 60.6039 201.125 60.4143 201.564C60.3799 201.659 60.3627 201.977 60.3454 202.184C60.2938 202.925 60.2162 203.933 59.4236 204.484C59.0618 204.734 58.631 204.838 58.2606 204.924C58.1486 204.95 58.0366 204.975 57.9505 205.001L56.2705 205.587C55.8915 205.716 55.5038 205.854 55.2798 206.052C54.9525 206.354 54.7888 206.991 54.6595 207.508C54.6078 207.724 54.5906 207.853 54.582 207.913C54.7199 208.042 54.806 208.137 54.8749 208.232C55.0817 208.508 55.1851 208.792 55.2368 209.085C55.6245 209.042 56.0207 209.007 56.4084 208.999C57.6662 208.964 58.6569 209.378 59.6131 209.774C60.0956 209.972 60.5522 210.162 61.0433 210.291C61.3275 210.368 61.6549 210.455 61.9823 210.601C62.5164 210.834 62.9558 211.178 63.3434 211.471L63.5071 211.592C64.4548 212.315 65.4799 212.936 66.5568 213.453C67.0909 213.711 67.6509 213.935 68.2281 214.142C68.3832 214.193 68.5296 214.271 68.6761 214.34C68.7364 214.366 68.7881 214.4 68.8484 214.426C68.9259 214.452 69.081 214.478 69.2275 214.504C69.3739 214.529 69.5204 214.547 69.6668 214.581C70.2957 214.719 70.916 214.909 71.5104 215.141C72.0704 215.357 72.7165 215.649 73.2593 216.175C73.9226 216.821 74.2414 217.648 74.4998 218.32C74.7583 218.992 75.0512 219.75 75.0856 220.603C75.6456 220.698 76.1798 220.784 76.6708 220.749C77.1188 220.724 77.4978 220.594 77.7391 220.388C77.9286 220.224 78.0923 219.957 78.2818 219.673C78.4799 219.362 78.7125 219.001 79.0227 218.682C79.7119 217.967 80.737 217.527 81.9 217.433C82.5117 217.381 83.0975 217.433 83.6747 217.502C83.5713 214.779 84.6051 212.358 85.234 209.714C85.3977 209.007 85.1996 208.585 85.191 207.982C85.1651 206.345 85.9319 205.837 87.1035 204.751C88.6801 203.287 90.2738 202.443 90.5926 200.323C90.8424 198.635 91.5574 196.929 91.7211 195.249C91.8417 193.966 90.9113 192.346 92.2208 191.416C94.5124 189.787 97.8722 191.795 100.112 189.641C101.154 188.633 101.826 187.522 103.291 187.065C106.461 186.074 107.392 188.262 108.848 190.459C109.52 191.476 111.432 195.189 113.069 194.689C114.163 194.353 115.137 191.795 114.852 190.709C114.534 189.537 113.181 188.943 113.086 187.685C112.957 186.031 114.904 185.497 114.706 183.593C114.559 182.249 112.957 181.026 113.353 179.622C113.801 178.036 115.748 177.675 114.671 175.659C113.887 174.203 112.871 173.832 113.715 172.204C114.378 170.921 115.541 170.352 116.481 169.284C118.1 167.431 118.281 165.803 118.264 163.563C118.264 162.047 118.763 161.125 120.073 160.384C121.83 159.385 122.614 159.247 121.641 157.266C121.322 156.62 121.227 155.706 121.658 155.078L121.632 155.103Z" fill="#DBDBDB"/>
<path d="M86.6034 249.429C87.6803 246.844 88.0162 244.311 87.3356 241.537C87.2237 241.081 86.9135 240.598 86.8274 240.168C86.4483 238.134 87.0341 234.895 87.6027 232.94C88.0248 231.492 88.2144 230.321 87.6889 229.037C87.1289 227.667 86.7671 226.315 86.2933 224.928C85.8022 223.48 84.5703 222.49 84.0878 221.068C83.9586 220.681 83.9241 220.215 83.8897 219.759C83.2522 219.655 82.6319 219.578 82.0547 219.621C81.4172 219.673 80.8917 219.879 80.5729 220.215C80.4092 220.379 80.2628 220.612 80.0991 220.861C79.8579 221.24 79.5736 221.671 79.1601 222.042C78.5484 222.576 77.73 222.886 76.7909 222.938C76.0501 222.981 75.335 222.869 74.6975 222.765C74.3615 222.705 73.6637 222.593 73.233 221.973C72.9314 221.533 72.9142 221.068 72.9056 220.793C72.8797 220.207 72.6644 219.647 72.4576 219.104C72.2595 218.587 72.0527 218.053 71.734 217.743C71.4841 217.493 71.0879 217.321 70.7347 217.191C70.235 217.002 69.7181 216.847 69.1925 216.726C69.1064 216.709 69.0117 216.692 68.9169 216.675C68.6843 216.64 68.4 216.597 68.1071 216.494C67.9606 216.442 67.8228 216.373 67.6849 216.304C67.6246 216.27 67.5643 216.244 67.504 216.218C66.8579 215.994 66.229 215.727 65.626 215.443C64.4113 214.865 63.2482 214.159 62.1886 213.349L62.0163 213.22C61.6976 212.979 61.4046 212.746 61.1117 212.617C60.9136 212.531 60.6982 212.47 60.4828 212.419C59.8625 212.255 59.3198 212.022 58.7943 211.807C57.9759 211.471 57.2695 211.178 56.4769 211.195C56.1495 211.204 55.8221 211.23 55.4948 211.264L55.2277 211.29C55.0985 211.299 54.8831 211.316 54.8056 211.342C54.7798 211.359 54.728 211.411 54.6764 211.454C54.5385 211.566 54.4007 211.669 54.2628 211.755C54.1078 211.85 53.9527 211.936 53.789 212.022C53.6511 212.1 53.5133 212.178 53.3841 212.255C52.8155 212.591 52.4709 212.953 52.4365 213.246C52.4106 213.47 52.5398 213.806 52.669 214.159C52.8327 214.598 53.0223 215.098 53.0481 215.675C53.0653 216.115 52.9878 216.511 52.9189 216.873C52.8672 217.157 52.7983 217.519 52.8586 217.631C52.8845 217.682 52.9189 217.726 52.9447 217.769C53.0998 217.993 53.3324 218.337 53.3755 218.828C53.4272 219.457 53.1257 220.069 52.5312 220.551C52.4537 220.612 52.3848 220.663 52.3072 220.724C52.2211 220.784 52.1005 220.879 52.066 220.922C52.0488 220.956 52.0057 221.068 51.9799 221.154C51.8765 221.473 51.7214 221.947 51.2821 222.309C50.5067 222.946 49.516 222.688 49.1886 222.61C49.0594 222.576 48.9302 222.541 48.844 222.524C48.8268 222.541 48.8182 222.55 48.8182 222.55C48.6976 222.645 48.577 222.757 48.4564 222.86C48.1979 223.093 47.905 223.36 47.5346 223.584C47.0435 223.868 46.4749 224.023 45.734 224.058C45.3463 224.075 44.9587 224.066 44.5796 224.032C43.6665 223.937 42.7791 223.67 41.9607 223.239C41.7108 223.11 41.4696 222.963 41.2198 222.817C40.901 222.627 40.6081 222.447 40.3066 222.317C40.0998 222.231 39.8845 222.162 39.6691 222.093C39.2211 221.947 38.7042 221.792 38.2218 221.482C37.8858 221.266 37.6101 221.016 37.3775 220.784C37.2138 220.629 37.0588 220.474 36.8692 220.353C36.4299 220.06 36.0077 220.009 35.2496 219.94L34.7327 219.888C33.7764 219.785 32.8288 219.474 31.9845 218.992C31.8208 218.897 31.6658 218.802 31.5107 218.699C31.2953 218.561 31.0714 218.423 30.8388 218.311C30.3391 218.087 29.7274 218.036 29.1158 218.036C29.0468 218.191 28.9607 218.346 28.8487 218.475C28.2887 219.13 27.4962 219.216 26.962 219.276L26.7294 219.302C25.8765 219.423 25.0495 219.983 24.2483 220.525C23.9985 220.689 23.6539 220.922 23.5764 221.111C23.5419 221.197 23.516 221.37 23.4902 221.533C23.4385 221.887 23.3782 222.317 23.1284 222.748C22.9474 223.067 22.7148 223.282 22.5253 223.463C22.4478 223.532 22.3702 223.601 22.3099 223.687C22.1979 223.842 22.1635 224.195 22.129 224.54C22.0601 225.178 21.9739 226.056 21.2934 226.711C20.6042 227.374 19.691 227.443 19.0621 227.435H18.8123C18.347 227.426 17.6406 227.409 17.4597 227.633C17.3305 227.788 17.2702 228.046 17.3046 228.305C17.3046 228.348 17.3219 228.374 17.3219 228.399C17.3563 228.399 17.3908 228.417 17.4166 228.425C17.6665 228.486 18.0542 228.572 18.3988 228.865C19.0535 229.407 19.2344 230.346 18.8639 231.32C18.416 232.5 17.4511 233.525 16.0641 234.284C15.3146 234.697 14.5306 234.99 13.7811 235.266C13.4624 235.386 13.1436 235.507 12.8248 235.636C12.5492 235.748 12.2821 235.869 12.0064 235.981C10.9037 236.463 9.75791 236.954 8.45705 237.058C8.18137 237.075 7.91435 237.083 7.63867 237.083C7.25961 237.083 6.89776 237.083 6.59624 237.161C6.12242 237.273 5.73476 237.419 5.32124 237.566C4.94219 237.704 4.54589 237.85 4.08069 237.979C3.48625 238.143 2.92624 238.117 2.42658 238.091C2.29735 238.091 2.17674 238.083 2.04752 238.074C1.58231 238.066 1.33249 238.152 1.25495 238.229C1.1688 238.315 1.07402 238.574 1.02233 238.729C0.755269 239.478 0.505483 240.245 0.264264 241.003C0.109195 241.477 -0.0631296 242.02 0.02302 242.407C0.0660949 242.597 0.186727 242.83 0.315952 243.071C0.445176 243.312 0.565763 243.553 0.669142 243.812C0.987896 244.639 1.00514 245.561 0.738077 246.405C0.643312 246.706 0.531322 246.999 0.419327 247.292C0.307333 247.576 0.195298 247.861 0.109149 248.162C0.00576909 248.498 0.0230369 248.869 0.0402668 249.334V249.446C0.0747266 250.264 0.100567 251.1 0.359016 251.798C0.57439 252.375 0.962066 252.918 1.3842 253.503C1.75464 254.02 2.13368 254.546 2.44382 255.158C3.44316 257.165 3.32256 259.396 3.04688 261.515C2.85735 262.954 2.60752 264.401 2.29738 265.814C2.75398 266.185 3.0727 266.702 3.12439 267.305C3.69297 267.408 4.20125 267.477 4.68369 267.46C5.07137 267.451 5.61414 267.365 6.01043 267.055C6.11381 266.969 6.20855 266.874 6.31193 266.788C6.44977 266.659 6.57903 266.538 6.72549 266.417C7.251 265.995 7.7937 265.797 8.35367 265.823C9.06872 265.857 9.3272 265.857 9.89579 265.685C10.2576 265.573 10.628 265.384 11.0157 265.177C11.2828 265.03 11.5585 264.892 11.8342 264.772C12.7043 264.384 13.6691 264.152 14.6254 264.109C14.8149 264.109 14.97 264.1 15.0216 264.083C15.0216 264.083 15.0217 264.005 15.0734 263.945L15.1423 263.833C15.6247 263.101 16.2967 262.489 17.072 262.084C17.3132 261.955 17.5372 261.912 17.7268 261.92C18.9932 261.429 20.3113 260.947 21.7327 260.723L22.0515 260.68C22.5425 260.611 23.0077 260.542 23.2662 260.344C23.3609 260.266 23.4385 260.18 23.5247 260.094C23.6883 259.922 23.8951 259.706 24.1622 259.525C24.9547 259 25.8507 259.008 26.5657 259.026C27.0482 259.034 27.5048 259.043 27.7029 258.888C27.7891 258.819 27.9097 258.655 28.0217 258.492C28.2456 258.164 28.5299 257.759 29.0038 257.475C29.7188 257.044 30.52 257.096 31.0455 257.13L35.6028 257.458C38.0581 257.63 40.3325 258.595 42.693 260.473C44.2867 261.739 45.5445 263.299 46.7592 264.806C47.5776 265.823 48.689 267.21 48.8612 268.916C48.9043 269.329 48.8871 269.708 48.8699 270.079C48.8526 270.561 48.8354 270.983 48.9474 271.293C49.0766 271.647 49.4385 272 49.7744 272.344C50.007 272.577 50.2396 272.81 50.455 272.896C50.5756 272.939 50.7652 272.973 50.9633 272.999C51.1442 273.025 51.3251 273.059 51.4974 273.094C52.3762 273.301 53.0051 273.826 53.229 274.533C53.4272 275.153 53.5134 275.179 53.677 275.239C53.7804 275.274 53.8838 275.282 53.9872 275.299C54.2456 275.334 54.573 275.377 54.9176 275.532C55.8997 275.989 56.2615 277.005 56.4597 277.548C56.52 277.729 56.7095 278.263 56.8645 278.332C56.899 278.349 57.0713 278.332 57.2522 278.211C57.5365 278.013 57.7777 277.66 58.019 277.307C58.3377 276.841 58.734 276.273 59.3284 275.851C59.8281 275.497 60.233 275.368 60.5604 275.265C60.7327 275.213 60.9136 275.153 61.1376 275.041C61.3185 274.946 61.5597 274.817 61.6631 274.705C61.7148 274.645 61.7837 274.533 61.8526 274.403C61.9732 274.188 62.1024 273.973 62.2575 273.783C62.8692 273.042 63.8943 272.663 64.9971 272.767C65.8499 272.835 66.5736 273.171 67.2197 273.456C67.4868 273.576 67.6935 273.792 67.7969 274.067C68.0726 274.8 68.6498 275.386 69.3045 275.601C69.5716 275.687 69.8904 275.73 70.2263 275.782C70.7863 275.859 71.4238 275.954 72.0441 276.264C72.6902 276.592 73.1468 277.083 73.5603 277.522L73.8188 277.798C74.0428 278.03 74.284 278.237 74.5425 278.435C75.7485 277.057 77.127 275.825 78.0574 275.084C79.3668 274.033 80.84 272.93 81.9944 271.698C83.3383 270.26 82.8817 268.881 82.563 267.193C82.3993 266.331 82.563 265.943 82.8387 265.125C83.4848 263.264 83.4503 261.791 84.9838 260.318C85.4921 259.836 86.0348 259.499 86.2846 258.879C86.7671 257.682 87.3271 255.709 87.5769 254.382C87.7147 253.676 87.7751 253.495 87.4821 252.832C86.8016 251.281 85.9142 251.195 86.6723 249.377L86.6034 249.429Z" fill="#DBDBDB"/>
</svg>
