<svg width="20" height="20" viewBox="0 0 20 20" fill="none" xmlns="http://www.w3.org/2000/svg">
<g clip-path="url(#clip0_210_8752)">
<path d="M2.91732 1.08333C2.91732 -0.0666667 3.85065 -1 5.00065 -1C6.15065 -1 7.08398 -0.0666667 7.08398 1.08333C7.08398 2.23333 6.15065 3.16667 5.00065 3.16667C3.85065 3.16667 2.91732 2.23333 2.91732 1.08333ZM5.83398 4H4.16732C2.32565 4 0.833984 5.49167 0.833984 7.33333V9.83333C0.833984 11.0667 1.50898 12.1417 2.50065 12.7167V18.1667C2.50065 18.625 2.87565 19 3.33398 19C3.79232 19 4.16732 18.625 4.16732 18.1667V13.1667H5.83398V18.1667C5.83398 18.625 6.20898 19 6.66732 19C7.12565 19 7.50065 18.625 7.50065 18.1667V12.7167C8.49232 12.1417 9.16732 11.0583 9.16732 9.83333V7.33333C9.16732 5.49167 7.67565 4 5.83398 4ZM15.0007 3.16667C16.1507 3.16667 17.084 2.23333 17.084 1.08333C17.084 -0.0666667 16.1507 -1 15.0007 -1C13.8507 -1 12.9173 -0.0666667 12.9173 1.08333C12.9173 2.23333 13.8507 3.16667 15.0007 3.16667ZM19.1507 12.8583L18.4173 7.01667C18.2007 5.3 16.734 4 15.0007 4C13.2673 4 11.8007 5.3 11.584 7.01667L10.8507 12.8583C10.759 13.5667 10.984 14.2833 11.459 14.825C11.7423 15.15 12.1007 15.3833 12.5007 15.525V18.1667C12.5007 18.625 12.8757 19 13.334 19C13.7923 19 14.1673 18.625 14.1673 18.1667V15.6667H15.834V18.1667C15.834 18.625 16.209 19 16.6673 19C17.1257 19 17.5007 18.625 17.5007 18.1667V15.525C17.9007 15.3833 18.259 15.1417 18.5423 14.825C19.0173 14.2833 19.234 13.575 19.1507 12.8583Z" fill="#B3B3B3"/>
</g>
<defs>
<clipPath id="clip0_210_8752">
<rect width="20" height="20" fill="white"/>
</clipPath>
</defs>
</svg>
