<svg width="25" height="25" viewBox="0 0 25 25" fill="none" xmlns="http://www.w3.org/2000/svg">
<path d="M19.209 16.3135L23.2812 12.9395C23.4131 12.832 23.4863 12.6709 23.4863 12.5C23.4863 12.3291 23.4131 12.168 23.2812 12.0606L19.209 8.68654C18.9648 8.48634 18.6084 8.52052 18.4082 8.75978C18.208 9.00392 18.2422 9.36037 18.4814 9.56056L21.3379 11.9287L2.08496 11.9287C1.77246 11.9287 1.51367 12.1826 1.51367 12.5C1.51367 12.8125 1.76758 13.0713 2.08496 13.0713H21.3379L18.4814 15.4395C18.3447 15.5518 18.2764 15.7129 18.2764 15.8789C18.2764 16.0059 18.3203 16.1377 18.4082 16.2402C18.6084 16.4795 18.9697 16.5137 19.209 16.3135Z" fill="white"/>
</svg>
