<svg width="20" height="20" viewBox="0 0 20 20" fill="none" xmlns="http://www.w3.org/2000/svg">
    <path d="M3.02801 6.07275C3.29231 6.07299 3.5457 6.17817 3.73248 6.36517L8.83122 11.4639C8.98551 11.6183 9.16869 11.7407 9.37029 11.8242C9.5719 11.9077 9.78799 11.9507 10.0062 11.9507C10.2244 11.9507 10.4405 11.9077 10.6421 11.8242C10.8437 11.7407 11.0269 11.6183 11.1812 11.4639L16.2766 6.37182C16.4646 6.19023 16.7165 6.08975 16.9778 6.09202C17.2392 6.09429 17.4893 6.19913 17.6741 6.38396C17.8589 6.5688 17.9638 6.81883 17.966 7.08021C17.9683 7.34159 17.8678 7.59341 17.6862 7.78142L12.5948 12.8735C11.9088 13.5582 10.9791 13.9428 10.0099 13.9428C9.04063 13.9428 8.11098 13.5582 7.42494 12.8735L2.3262 7.77478C2.18689 7.63556 2.09194 7.45819 2.05333 7.26506C2.01472 7.07194 2.03419 6.8717 2.10926 6.68962C2.18434 6.50754 2.31167 6.35178 2.47518 6.242C2.63869 6.13221 2.83106 6.07332 3.02801 6.07275Z" fill="#333333"/>
</svg>
