<svg width="30" height="30" viewBox="0 0 30 30" fill="none" xmlns="http://www.w3.org/2000/svg">
<path d="M6.94381 19.5762L2.06224 15.5274C1.9042 15.3985 1.81641 15.2051 1.81641 15C1.81641 14.7949 1.9042 14.6016 2.06224 14.4727L6.94381 10.4238C7.23647 10.1836 7.66375 10.2246 7.90374 10.5117C8.14372 10.8047 8.10274 11.2324 7.81594 11.4727L4.39181 14.3145L27.471 14.3145C27.8456 14.3145 28.1558 14.6192 28.1558 15C28.1558 15.375 27.8514 15.6856 27.471 15.6856L4.39181 15.6856L7.81594 18.5274C7.97983 18.6621 8.06177 18.8555 8.06177 19.0547C8.06177 19.207 8.00909 19.3653 7.90374 19.4883C7.66375 19.7754 7.23062 19.8164 6.94381 19.5762Z" fill="#333333" fill-opacity="0.6"/>
</svg>
