<svg width="20" height="20" viewBox="0 0 20 20" fill="none" xmlns="http://www.w3.org/2000/svg">
<path d="M14.9341 18.75C14.9338 18.4186 14.8019 18.1009 14.5674 17.8667L8.17408 11.4733C7.98057 11.2799 7.82706 11.0502 7.72233 10.7974C7.6176 10.5446 7.56369 10.2736 7.56369 9.99999C7.56369 9.72636 7.6176 9.45541 7.72233 9.20261C7.82706 8.94981 7.98057 8.72012 8.17408 8.52666L14.5591 2.13749C14.7868 1.90174 14.9128 1.58599 14.9099 1.25824C14.9071 0.930496 14.7756 0.616981 14.5439 0.385221C14.3121 0.15346 13.9986 0.0219993 13.6708 0.0191513C13.3431 0.0163032 13.0273 0.142296 12.7916 0.369994L6.40658 6.75416C5.54805 7.61438 5.06588 8.78007 5.06588 9.99541C5.06588 11.2107 5.54805 12.3764 6.40658 13.2367L12.7999 19.63C12.9745 19.8047 13.1969 19.9237 13.439 19.9721C13.6812 20.0206 13.9323 19.9962 14.1606 19.902C14.3889 19.8079 14.5842 19.6482 14.7219 19.4432C14.8595 19.2382 14.9334 18.9969 14.9341 18.75Z" fill="#555555"/>
</svg>
