<svg width="20" height="20" viewBox="0 0 20 20" fill="none" xmlns="http://www.w3.org/2000/svg">
<path d="M5.06592 18.75C5.06621 18.4186 5.1981 18.1009 5.43258 17.8667L11.8259 11.4733C12.0194 11.2799 12.1729 11.0502 12.2777 10.7974C12.3824 10.5446 12.4363 10.2736 12.4363 9.99999C12.4363 9.72636 12.3824 9.45541 12.2777 9.20261C12.1729 8.94981 12.0194 8.72012 11.8259 8.52666L5.44092 2.13749C5.21322 1.90174 5.08723 1.58599 5.09008 1.25824C5.09292 0.930496 5.22438 0.616981 5.45614 0.385221C5.6879 0.15346 6.00142 0.0219993 6.32917 0.0191513C6.65691 0.0163032 6.97267 0.142296 7.20842 0.369994L13.5934 6.75416C14.4519 7.61438 14.9341 8.78007 14.9341 9.99541C14.9341 11.2107 14.4519 12.3764 13.5934 13.2367L7.20009 19.63C7.02552 19.8047 6.80312 19.9237 6.56096 19.9721C6.31879 20.0206 6.06772 19.9962 5.83941 19.902C5.6111 19.8079 5.41579 19.6482 5.27813 19.4432C5.14047 19.2382 5.06663 18.9969 5.06592 18.75Z" fill="#555555"/>
</svg>
