<svg width="35" height="35" viewBox="0 0 35 35" fill="none" xmlns="http://www.w3.org/2000/svg">
<path d="M12.1611 26.8926L16.8847 32.5937C17.0351 32.7783 17.2607 32.8809 17.5 32.8809C17.7392 32.8809 17.9648 32.7783 18.1152 32.5937L22.8388 26.8926C23.1191 26.5508 23.0713 26.0518 22.7363 25.7715C22.3945 25.4912 21.8955 25.5391 21.6152 25.874L18.2998 29.873L18.2998 2.91895C18.2998 2.48145 17.9443 2.11914 17.5 2.11914C17.0625 2.11914 16.7002 2.47461 16.7002 2.91895L16.7002 29.873L13.3847 25.874C13.2275 25.6826 13.0019 25.5869 12.7695 25.5869C12.5918 25.5869 12.4072 25.6484 12.2637 25.7715C11.9287 26.0518 11.8808 26.5576 12.1611 26.8926Z" fill="white"/>
</svg>
