<svg width="75" height="75" viewBox="0 0 75 75" fill="none" xmlns="http://www.w3.org/2000/svg">
<path d="M17.373 48.9405L5.15625 38.8184C4.76074 38.4961 4.54102 38.0127 4.54102 37.5C4.54102 36.9873 4.76074 36.5039 5.15625 36.1817L17.373 26.0596C18.1055 25.459 19.1748 25.5616 19.7754 26.2793C20.376 27.0118 20.2734 28.0811 19.5557 28.6817L10.9863 35.7862H68.7451C69.6826 35.7862 70.459 36.5479 70.459 37.5C70.459 38.4375 69.6973 39.2139 68.7451 39.2139H10.9863L19.5557 46.3184C19.9658 46.6553 20.1709 47.1387 20.1709 47.6368C20.1709 48.0176 20.0391 48.4131 19.7754 48.7207C19.1748 49.4385 18.0908 49.5411 17.373 48.9405Z" fill="#F34646"/>
</svg>
