<svg width="75" height="75" viewBox="0 0 75 75" fill="none" xmlns="http://www.w3.org/2000/svg">
<path d="M57.627 48.9405L69.8437 38.8184C70.2393 38.4961 70.459 38.0127 70.459 37.5C70.459 36.9873 70.2393 36.5039 69.8437 36.1817L57.627 26.0596C56.8945 25.459 55.8252 25.5616 55.2246 26.2793C54.624 27.0118 54.7266 28.0811 55.4443 28.6817L64.0137 35.7862H6.25488C5.31738 35.7862 4.54102 36.5479 4.54102 37.5C4.54102 38.4375 5.30273 39.2139 6.25488 39.2139H64.0137L55.4443 46.3184C55.0342 46.6553 54.8291 47.1387 54.8291 47.6368C54.8291 48.0176 54.9609 48.4131 55.2246 48.7207C55.8252 49.4385 56.9092 49.5411 57.627 48.9405Z" fill="#F34646"/>
</svg>
