<svg width="20" height="20" viewBox="0 0 20 20" fill="none" xmlns="http://www.w3.org/2000/svg">
<path d="M1.5 14.9584C1.50112 15.8973 1.87462 16.7975 2.53857 17.4615C3.20252 18.1254 4.1027 18.4989 5.04167 18.5H14.9583C15.8973 18.4989 16.7975 18.1254 17.4614 17.4615C18.1254 16.7975 18.4989 15.8973 18.5 14.9584V8.58337H1.5V14.9584ZM13.5417 11.7709C13.7518 11.7709 13.9572 11.8332 14.132 11.9499C14.3067 12.0667 14.4429 12.2326 14.5233 12.4268C14.6037 12.6209 14.6247 12.8345 14.5838 13.0406C14.5428 13.2468 14.4416 13.4361 14.293 13.5847C14.1444 13.7333 13.9551 13.8345 13.7489 13.8754C13.5428 13.9164 13.3292 13.8954 13.1351 13.815C12.9409 13.7346 12.775 13.5984 12.6582 13.4237C12.5415 13.2489 12.4792 13.0435 12.4792 12.8334C12.4792 12.5516 12.5911 12.2813 12.7904 12.0821C12.9896 11.8828 13.2599 11.7709 13.5417 11.7709ZM10 11.7709C10.2101 11.7709 10.4156 11.8332 10.5903 11.9499C10.765 12.0667 10.9012 12.2326 10.9816 12.4268C11.062 12.6209 11.0831 12.8345 11.0421 13.0406C11.0011 13.2468 10.8999 13.4361 10.7513 13.5847C10.6027 13.7333 10.4134 13.8345 10.2073 13.8754C10.0012 13.9164 9.78755 13.8954 9.5934 13.815C9.39925 13.7346 9.23331 13.5984 9.11656 13.4237C8.99981 13.2489 8.9375 13.0435 8.9375 12.8334C8.9375 12.5516 9.04944 12.2813 9.2487 12.0821C9.44796 11.8828 9.71821 11.7709 10 11.7709ZM6.45833 11.7709C6.66848 11.7709 6.8739 11.8332 7.04863 11.9499C7.22335 12.0667 7.35954 12.2326 7.43996 12.4268C7.52037 12.6209 7.54141 12.8345 7.50042 13.0406C7.45942 13.2468 7.35823 13.4361 7.20963 13.5847C7.06104 13.7333 6.87172 13.8345 6.66562 13.8754C6.45951 13.9164 6.24588 13.8954 6.05173 13.815C5.85759 13.7346 5.69165 13.5984 5.5749 13.4237C5.45815 13.2489 5.39583 13.0435 5.39583 12.8334C5.39583 12.5516 5.50777 12.2813 5.70703 12.0821C5.90629 11.8828 6.17654 11.7709 6.45833 11.7709Z" fill="#B3B3B3"/>
<path d="M14.9583 2.91666H14.25V2.20833C14.25 2.02047 14.1754 1.8403 14.0425 1.70747C13.9097 1.57463 13.7295 1.5 13.5417 1.5C13.3538 1.5 13.1736 1.57463 13.0408 1.70747C12.908 1.8403 12.8333 2.02047 12.8333 2.20833V2.91666H7.16667V2.20833C7.16667 2.02047 7.09204 1.8403 6.9592 1.70747C6.82636 1.57463 6.64619 1.5 6.45833 1.5C6.27047 1.5 6.0903 1.57463 5.95747 1.70747C5.82463 1.8403 5.75 2.02047 5.75 2.20833V2.91666H5.04167C4.1027 2.91779 3.20252 3.29129 2.53857 3.95523C1.87462 4.61918 1.50112 5.51936 1.5 6.45832L1.5 7.16666H18.5V6.45832C18.4989 5.51936 18.1254 4.61918 17.4614 3.95523C16.7975 3.29129 15.8973 2.91779 14.9583 2.91666Z" fill="#B3B3B3"/>
</svg>
