<svg width="20" height="20" viewBox="0 0 20 20" fill="none" xmlns="http://www.w3.org/2000/svg">
<g clip-path="url(#clip0_112_6330)">
<path d="M15 10C14.122 10.001 13.2592 9.77056 12.4987 9.33183C11.7381 8.89311 11.1067 8.26163 10.668 7.50106C10.2294 6.74049 9.99894 5.87772 10 4.99971C10.0011 4.1217 10.2336 3.25949 10.6742 2.5H3.535L3.5 2.20667C3.42818 1.59883 3.13588 1.03846 2.67849 0.631753C2.2211 0.225045 1.6304 0.000260697 1.01833 0L0.833333 0C0.61232 0 0.400358 0.0877974 0.244078 0.244078C0.0877974 0.400358 0 0.61232 0 0.833333C0 1.05435 0.0877974 1.26631 0.244078 1.42259C0.400358 1.57887 0.61232 1.66667 0.833333 1.66667H1.01833C1.22244 1.66669 1.41945 1.74163 1.57198 1.87726C1.72451 2.0129 1.82195 2.19979 1.84583 2.4025L2.9925 12.1525C3.11154 13.1665 3.59873 14.1015 4.36159 14.78C5.12445 15.4585 6.10988 15.8334 7.13083 15.8333H15.8333C16.0543 15.8333 16.2663 15.7455 16.4226 15.5893C16.5789 15.433 16.6667 15.221 16.6667 15C16.6667 14.779 16.5789 14.567 16.4226 14.4107C16.2663 14.2545 16.0543 14.1667 15.8333 14.1667H7.13083C6.6149 14.1654 6.11201 14.0045 5.69112 13.7061C5.27023 13.4077 4.95198 12.9864 4.78 12.5H14.7142C15.6911 12.5001 16.6369 12.1569 17.3865 11.5304C18.1361 10.9039 18.6417 10.0339 18.815 9.0725L19.0133 7.97333C18.5498 8.6018 17.9451 9.11262 17.248 9.46463C16.5509 9.81665 15.7809 10 15 10Z" fill="white"/>
<path d="M5.83335 20.0001C6.75383 20.0001 7.50002 19.2539 7.50002 18.3334C7.50002 17.4129 6.75383 16.6667 5.83335 16.6667C4.91288 16.6667 4.16669 17.4129 4.16669 18.3334C4.16669 19.2539 4.91288 20.0001 5.83335 20.0001Z" fill="white"/>
<path d="M14.1667 20.0001C15.0871 20.0001 15.8333 19.2539 15.8333 18.3334C15.8333 17.4129 15.0871 16.6667 14.1667 16.6667C13.2462 16.6667 12.5 17.4129 12.5 18.3334C12.5 19.2539 13.2462 20.0001 14.1667 20.0001Z" fill="white"/>
<path d="M12.5 5.83341H14.1667V7.50008C14.1667 7.7211 14.2545 7.93306 14.4108 8.08934C14.567 8.24562 14.779 8.33341 15 8.33341C15.221 8.33341 15.433 8.24562 15.5893 8.08934C15.7456 7.93306 15.8334 7.7211 15.8334 7.50008V5.83341H17.5C17.721 5.83341 17.933 5.74562 18.0893 5.58934C18.2456 5.43306 18.3334 5.2211 18.3334 5.00008C18.3334 4.77907 18.2456 4.56711 18.0893 4.41083C17.933 4.25455 17.721 4.16675 17.5 4.16675H15.8334V2.50008C15.8334 2.27907 15.7456 2.06711 15.5893 1.91083C15.433 1.75455 15.221 1.66675 15 1.66675C14.779 1.66675 14.567 1.75455 14.4108 1.91083C14.2545 2.06711 14.1667 2.27907 14.1667 2.50008V4.16675H12.5C12.279 4.16675 12.067 4.25455 11.9108 4.41083C11.7545 4.56711 11.6667 4.77907 11.6667 5.00008C11.6667 5.2211 11.7545 5.43306 11.9108 5.58934C12.067 5.74562 12.279 5.83341 12.5 5.83341Z" fill="white"/>
</g>
<defs>
<clipPath id="clip0_112_6330">
<rect width="20" height="20" fill="white"/>
</clipPath>
</defs>
</svg>
