<svg width="30" height="30" viewBox="0 0 30 30" fill="none" xmlns="http://www.w3.org/2000/svg">
<path d="M26.0386 6.78963C25.7471 6.43983 25.3822 6.1585 24.9697 5.96562C24.5573 5.77273 24.1074 5.67303 23.6521 5.67358H6.89778L6.85425 5.30986C6.76518 4.55382 6.40181 3.85675 5.83301 3.3508C5.26421 2.84484 4.52953 2.56517 3.76827 2.56482L3.53822 2.56482C3.26338 2.56482 2.9998 2.674 2.80547 2.86833C2.61113 3.06267 2.50195 3.32624 2.50195 3.60107C2.50195 3.87591 2.61113 4.13948 2.80547 4.33382C2.9998 4.52815 3.26338 4.63733 3.53822 4.63733H3.76827C4.02208 4.63736 4.26706 4.73055 4.45673 4.89921C4.6464 5.06787 4.76758 5.30027 4.79727 5.55234L6.22317 17.6765C6.3712 18.9374 6.97703 20.1001 7.92565 20.9438C8.87428 21.7876 10.0997 22.2537 11.3692 22.2537H22.1909C22.4658 22.2537 22.7293 22.1445 22.9237 21.9501C23.118 21.7558 23.2272 21.4922 23.2272 21.2174C23.2272 20.9426 23.118 20.679 22.9237 20.4847C22.7293 20.2903 22.4658 20.1811 22.1909 20.1811H11.3692C10.7279 20.1793 10.1027 19.9792 9.57955 19.6082C9.05638 19.2371 8.66078 18.7133 8.44699 18.1086H20.7992C22.014 18.1087 23.1902 17.6819 24.1223 16.9029C25.0544 16.1238 25.6832 15.042 25.8987 13.8465L26.7121 9.33467C26.7933 8.88702 26.7751 8.42698 26.6587 7.98716C26.5423 7.54735 26.3306 7.13851 26.0386 6.78963Z" fill="#333333"/>
<path d="M9.75587 27.4352C10.9005 27.4352 11.8284 26.5073 11.8284 25.3627C11.8284 24.2181 10.9005 23.2902 9.75587 23.2902C8.61125 23.2902 7.68335 24.2181 7.68335 25.3627C7.68335 26.5073 8.61125 27.4352 9.75587 27.4352Z" fill="#333333"/>
<path d="M20.1184 27.4352C21.263 27.4352 22.1909 26.5073 22.1909 25.3627C22.1909 24.2181 21.263 23.2902 20.1184 23.2902C18.9737 23.2902 18.0458 24.2181 18.0458 25.3627C18.0458 26.5073 18.9737 27.4352 20.1184 27.4352Z" fill="#333333"/>
</svg>
