<svg width="20" height="20" viewBox="0 0 20 20" fill="none" xmlns="http://www.w3.org/2000/svg">
<path d="M18.5004 9.64576C18.5 9.15728 18.3553 8.67981 18.0845 8.27327C17.8137 7.86674 17.4288 7.54927 16.9782 7.36072C16.6906 5.71909 15.8334 4.23144 14.5572 3.15944C13.2811 2.08744 11.6679 1.49976 10.0012 1.49976C8.3346 1.49976 6.72134 2.08744 5.44523 3.15944C4.16911 4.23144 3.31186 5.71909 3.02428 7.36072C2.51004 7.57706 2.08381 7.96054 1.8145 8.44912C1.5452 8.93772 1.44856 9.50286 1.54023 10.0532C1.63189 10.6035 1.90649 11.1068 2.31963 11.4817C2.73277 11.8566 3.26029 12.0812 3.81689 12.1192C4.18273 12.8956 4.67888 13.6035 5.28382 14.2123C4.39742 15.1801 3.83488 16.4003 3.67452 17.7029C3.66196 17.8025 3.67074 17.9037 3.70027 17.9997C3.72979 18.0957 3.77939 18.1843 3.84577 18.2596C3.91215 18.335 3.9938 18.3954 4.08529 18.4368C4.17679 18.4782 4.27604 18.4996 4.37646 18.4998H15.6097C15.7101 18.4997 15.8094 18.4783 15.9009 18.437C15.9924 18.3957 16.0741 18.3354 16.1406 18.2601C16.207 18.1849 16.2567 18.0963 16.2863 18.0003C16.3159 17.9044 16.3248 17.8032 16.3124 17.7036C16.1531 16.4043 15.5934 15.1868 14.7109 14.2201C15.3191 13.6094 15.818 12.8988 16.1856 12.1192C16.8132 12.0775 17.4015 11.7988 17.8313 11.3395C18.2612 10.8803 18.5003 10.2748 18.5004 9.64576ZM15.8427 10.6891C15.6775 10.6588 15.5069 10.6887 15.3618 10.7733C15.2167 10.8578 15.1067 10.9916 15.0516 11.1502C14.4027 12.9904 12.2176 14.9582 10.0005 14.9582C7.78348 14.9582 5.59831 12.989 4.94949 11.1488C4.89427 10.9902 4.78419 10.8566 4.63911 10.772C4.49403 10.6875 4.3235 10.6576 4.1583 10.6877C4.09944 10.6992 4.03975 10.7061 3.9798 10.7082C3.71687 10.7051 3.46443 10.6046 3.27133 10.4261C3.07823 10.2476 2.95817 10.0038 2.93438 9.74196C2.91059 9.48008 2.98475 9.21869 3.14253 9.00833C3.30031 8.79797 3.53049 8.65359 3.78856 8.60311C3.93916 8.57581 4.07686 8.50047 4.18106 8.38835C4.28525 8.27624 4.35033 8.1334 4.36655 7.98121C4.46947 6.99805 4.82889 6.05918 5.4088 5.25861C5.98871 4.45805 6.76877 3.82389 7.67086 3.41963C7.52166 3.79916 7.46745 4.20941 7.51295 4.61467C7.55844 5.01994 7.70226 5.40795 7.93189 5.74496C8.16153 6.08197 8.47003 6.35778 8.83055 6.54839C9.19108 6.73899 9.59271 6.83863 10.0005 6.83863C10.4083 6.83863 10.81 6.73899 11.1705 6.54839C11.531 6.35778 11.8395 6.08197 12.0692 5.74496C12.2988 5.40795 12.4426 5.01994 12.4881 4.61467C12.5336 4.20941 12.4794 3.79916 12.3302 3.41963C13.2323 3.82389 14.0123 4.45805 14.5922 5.25861C15.1722 6.05918 15.5316 6.99805 15.6345 7.98121C15.6507 8.1334 15.7158 8.27624 15.82 8.38835C15.9242 8.50047 16.0619 8.57581 16.2125 8.60311C16.4706 8.65359 16.7007 8.79797 16.8585 9.00833C17.0163 9.21869 17.0905 9.48008 17.0667 9.74196C17.0429 10.0038 16.9228 10.2476 16.7297 10.4261C16.5366 10.6046 16.2842 10.7051 16.0212 10.7082C15.9613 10.7066 15.9016 10.7002 15.8427 10.6891Z" fill="#B3B3B3"/>
<path d="M7.91669 10.8334C8.60704 10.8334 9.16669 10.2737 9.16669 9.58337C9.16669 8.89302 8.60704 8.33337 7.91669 8.33337C7.22633 8.33337 6.66669 8.89302 6.66669 9.58337C6.66669 10.2737 7.22633 10.8334 7.91669 10.8334Z" fill="#B3B3B3"/>
<path d="M12.0833 10.8334C12.7737 10.8334 13.3333 10.2737 13.3333 9.58337C13.3333 8.89302 12.7737 8.33337 12.0833 8.33337C11.393 8.33337 10.8333 8.89302 10.8333 9.58337C10.8333 10.2737 11.393 10.8334 12.0833 10.8334Z" fill="#B3B3B3"/>
</svg>
