<svg width="30" height="30" viewBox="0 0 30 30" fill="none" xmlns="http://www.w3.org/2000/svg">
<path d="M26.25 4.99998H22.375C21.7769 2.09197 19.2188 0.00375 16.25 0H13.7499C10.7811 0.00375 8.22297 2.09197 7.62496 4.99998H3.74998C3.05963 4.99998 2.5 5.55961 2.5 6.24996C2.5 6.94031 3.05963 7.5 3.74998 7.5H4.99996V23.75C5.00412 27.2 7.79992 29.9959 11.25 30H18.75C22.2 29.9959 24.9958 27.2 25 23.75V7.5H26.25C26.9403 7.5 27.5 6.94037 27.5 6.25002C27.5 5.55967 26.9403 4.99998 26.25 4.99998ZM13.75 21.25C13.75 21.9404 13.1904 22.5 12.5 22.5C11.8096 22.5 11.25 21.9404 11.25 21.25V13.75C11.25 13.0597 11.8096 12.5 12.5 12.5C13.1903 12.5 13.7499 13.0597 13.7499 13.75V21.25H13.75ZM18.75 21.25C18.75 21.9404 18.1904 22.5 17.5 22.5C16.8096 22.5 16.25 21.9404 16.25 21.25V13.75C16.25 13.0597 16.8096 12.5 17.5 12.5C18.1904 12.5 18.75 13.0597 18.75 13.75V21.25ZM10.2138 4.99998C10.7454 3.50285 12.1613 2.50189 13.75 2.49996H16.25C17.8387 2.50189 19.2546 3.50285 19.7863 4.99998H10.2138Z" fill="#333333"/>
</svg>
