<svg width="20" height="20" viewBox="0 0 20 20" fill="none" xmlns="http://www.w3.org/2000/svg">
<path d="M5.34168 7.5H14.6583C14.8232 7.50069 14.9841 7.55024 15.1207 7.64237C15.2574 7.73451 15.3636 7.8651 15.4261 8.01762C15.4885 8.17015 15.5043 8.33777 15.4715 8.49928C15.4387 8.66079 15.3587 8.80894 15.2417 8.925L10.5917 13.575C10.5142 13.6531 10.422 13.7151 10.3205 13.7574C10.2189 13.7997 10.11 13.8215 10 13.8215C9.89 13.8215 9.78108 13.7997 9.67953 13.7574C9.57798 13.7151 9.48582 13.6531 9.40835 13.575L4.75835 8.925C4.64133 8.80894 4.56135 8.66079 4.52853 8.49928C4.49571 8.33777 4.51152 8.17015 4.57396 8.01762C4.6364 7.8651 4.74266 7.73451 4.87931 7.64237C5.01597 7.55024 5.17687 7.50069 5.34168 7.5Z" fill="#B3B3B3"/>
</svg>
