<svg width="20" height="20" viewBox="0 0 20 20" fill="none" xmlns="http://www.w3.org/2000/svg">
<path d="M5.34156 7.5H14.6582C14.823 7.50069 14.9839 7.55024 15.1206 7.64237C15.2572 7.73451 15.3635 7.8651 15.426 8.01762C15.4884 8.17015 15.5042 8.33777 15.4714 8.49928C15.4386 8.66079 15.3586 8.80894 15.2416 8.925L10.5916 13.575C10.5141 13.6531 10.4219 13.7151 10.3204 13.7574C10.2188 13.7997 10.1099 13.8215 9.99989 13.8215C9.88988 13.8215 9.78096 13.7997 9.67941 13.7574C9.57786 13.7151 9.48569 13.6531 9.40823 13.575L4.75823 8.925C4.64121 8.80894 4.56123 8.66079 4.52841 8.49928C4.49559 8.33777 4.5114 8.17015 4.57383 8.01762C4.63627 7.8651 4.74254 7.73451 4.87919 7.64237C5.01584 7.55024 5.17675 7.50069 5.34156 7.5Z" fill="#B3B3B3"/>
</svg>
