<svg width="30" height="30" viewBox="0 0 30 30" fill="none" xmlns="http://www.w3.org/2000/svg">
<g clip-path="url(#clip0_23_28)">
<path d="M14.9999 16.65C15.9149 16.65 16.6499 15.9075 16.6499 14.9999C16.6499 14.0924 15.9149 13.3499 14.9999 13.3499C14.0924 13.3499 13.3499 14.0924 13.3499 14.9999C13.3499 15.9075 14.0924 16.65 14.9999 16.65Z" fill="#F34646"/>
<path d="M15 0C6.71252 0 0 6.71252 0 15C0 23.28 6.71252 29.9999 15 29.9999C23.2874 29.9999 29.9999 23.28 29.9999 15C30 6.71252 23.2875 0 15 0ZM18.285 18.285L5.99997 24L11.715 11.715L24 5.99997L18.285 18.285Z" fill="#F34646"/>
</g>
<defs>
<clipPath id="clip0_23_28">
<rect width="30" height="30" fill="white"/>
</clipPath>
</defs>
</svg>
