<svg width="30" height="30" viewBox="0 0 30 30" fill="none" xmlns="http://www.w3.org/2000/svg">
<g clip-path="url(#clip0_457_983)">
<path d="M29.3725 7.73249C29.0275 6.43374 28.0112 5.41 26.72 5.0625C24.3812 4.4325 15 4.4325 15 4.4325C15 4.4325 5.61875 4.4325 3.27875 5.0625C1.98875 5.41 0.9725 6.43249 0.6275 7.73249C0 10.0875 0 15 0 15C0 15 0 19.9125 0.6275 22.2675C0.9725 23.5662 1.98875 24.59 3.28 24.9375C5.61875 25.5675 15 25.5675 15 25.5675C15 25.5675 24.3813 25.5675 26.7213 24.9375C28.0113 24.59 29.0275 23.5675 29.3738 22.2675C30 19.9125 30 15 30 15C30 15 30 10.0875 29.3725 7.73249ZM11.9325 19.4612V10.5387L19.7725 15L11.9325 19.4612Z" fill="#333333"/>
</g>
<defs>
<clipPath id="clip0_457_983">
<rect width="30" height="30" fill="white"/>
</clipPath>
</defs>
</svg>
