<svg width="30" height="30" viewBox="0 0 30 30" fill="none" xmlns="http://www.w3.org/2000/svg">
<g clip-path="url(#clip0_457_975)">
<path d="M30 15.0913C30 22.5776 24.5075 28.7838 17.3375 29.9101V19.4563H20.8237L21.4875 15.1313H17.3375V12.3251C17.3375 11.1413 17.9175 9.98881 19.775 9.98881H21.6613V6.30631C21.6613 6.30631 19.9487 6.01381 18.3125 6.01381C14.895 6.01381 12.6625 8.08506 12.6625 11.8338V15.1301H8.86375V19.4551H12.6625V29.9088C5.49375 28.7813 0 22.5763 0 15.0913C0 6.80756 6.71625 0.0913086 15 0.0913086C23.2838 0.0913086 30 6.80631 30 15.0913Z" fill="#333333"/>
</g>
<defs>
<clipPath id="clip0_457_975">
<rect width="30" height="30" fill="white"/>
</clipPath>
</defs>
</svg>
