<svg width="30" height="30" viewBox="0 0 30 30" fill="none" xmlns="http://www.w3.org/2000/svg">
<path d="M15 2C12.4288 2 9.91543 2.76244 7.77759 4.19089C5.63975 5.61935 3.97351 7.64967 2.98957 10.0251C2.00563 12.4006 1.74819 15.0144 2.2498 17.5362C2.7514 20.0579 3.98953 22.3743 5.80762 24.1924C7.6257 26.0105 9.94208 27.2486 12.4638 27.7502C14.9856 28.2518 17.5994 27.9944 19.9749 27.0104C22.3503 26.0265 24.3806 24.3602 25.8091 22.2224C27.2376 20.0846 28 17.5712 28 15C27.9963 11.5533 26.6254 8.24889 24.1883 5.81173C21.7511 3.37456 18.4467 2.00373 15 2ZM18.4905 9.58333H11.5095C12.429 7.76796 13.6045 6.09409 15 4.613C16.396 6.09367 17.5716 7.76762 18.4905 9.58333ZM19.3572 11.75C19.6901 12.8016 19.8639 13.897 19.8728 15C19.8639 16.103 19.6901 17.1984 19.3572 18.25H10.6407C10.3077 17.1984 10.1339 16.103 10.125 15C10.1339 13.897 10.3077 12.8016 10.6407 11.75H19.3572ZM12.1833 4.55233C10.935 6.0796 9.90464 7.77275 9.12184 9.58333H5.63242C7.06876 7.10947 9.42263 5.30173 12.1833 4.55233ZM4.16667 15C4.16657 13.8975 4.33499 12.8016 4.66609 11.75H8.39167C8.11083 12.8107 7.96523 13.9027 7.95834 15C7.96523 16.0973 8.11083 17.1893 8.39167 18.25H4.66609C4.33499 17.1984 4.16657 16.1024 4.16667 15ZM5.63242 20.4167H9.12184C9.90464 22.2272 10.935 23.9204 12.1833 25.4477C9.42263 24.6983 7.06876 22.8905 5.63242 20.4167ZM11.5095 20.4167H18.4905C17.571 22.232 16.3955 23.9059 15 25.387C13.604 23.9063 12.4284 22.2324 11.5095 20.4167ZM17.8221 25.4477C19.0686 23.9201 20.097 22.2269 20.8782 20.4167H24.3676C22.9325 22.8894 20.5808 24.697 17.8221 25.4477ZM25.8333 15C25.8334 16.1024 25.665 17.1984 25.3339 18.25H21.6083C21.8892 17.1893 22.0348 16.0973 22.0417 15C22.0348 13.9027 21.8892 12.8107 21.6083 11.75H25.3318C25.6636 12.8014 25.8327 13.8974 25.8333 15ZM20.8782 9.58333C20.097 7.77307 19.0686 6.07993 17.8221 4.55233C20.5808 5.303 22.9325 7.11059 24.3676 9.58333H20.8782Z" fill="#333333"/>
</svg>
