<svg width="25" height="25" viewBox="0 0 25 25" fill="none" xmlns="http://www.w3.org/2000/svg">
<path d="M19.7894 18.2278C19.7946 18.1654 19.7946 18.1027 19.7894 18.0403C19.7894 17.4878 19.5699 16.958 19.1792 16.5673C18.7886 16.1766 18.2587 15.9572 17.7062 15.9572C17.1537 15.9572 16.6238 16.1766 16.2332 16.5673C15.8425 16.958 15.623 17.4878 15.623 18.0403C15.6178 18.1027 15.6178 18.1654 15.623 18.2278C15.623 18.7803 15.8425 19.3102 16.2332 19.7009C16.6238 20.0915 17.1537 20.311 17.7062 20.311C18.2587 20.311 18.7886 20.0915 19.1792 19.7009C19.5699 19.3102 19.7894 18.7803 19.7894 18.2278Z" fill="#333333"/>
<path d="M11.4574 18.2278C11.4625 18.1654 11.4625 18.1027 11.4574 18.0403C11.4574 17.4878 11.2379 16.958 10.8472 16.5673C10.4565 16.1766 9.92667 15.9572 9.37418 15.9572C8.82168 15.9572 8.29181 16.1766 7.90114 16.5673C7.51046 16.958 7.29099 17.4878 7.29099 18.0403C7.28582 18.1027 7.28582 18.1654 7.29099 18.2278C7.29099 18.7803 7.51046 19.3102 7.90114 19.7009C8.29181 20.0915 8.82168 20.311 9.37418 20.311C9.92667 20.311 10.4565 20.0915 10.8472 19.7009C11.2379 19.3102 11.4574 18.7803 11.4574 18.2278Z" fill="#333333"/>
<path d="M3.64437 13.2802H2.08198C1.93855 13.2799 1.79787 13.3196 1.67576 13.3948C1.56965 13.4602 1.48073 13.5501 1.41644 13.6569C1.35215 13.7637 1.31434 13.8843 1.30619 14.0087C1.29803 14.1331 1.31976 14.2576 1.36955 14.3719C1.41935 14.4862 1.49577 14.5869 1.59243 14.6656C1.72876 14.782 1.90273 14.8449 2.08198 14.8426H4.68597C4.89315 14.8426 5.09185 14.9249 5.23836 15.0714C5.38486 15.218 5.46716 15.4167 5.46716 15.6238C5.46716 15.831 5.38486 16.0297 5.23836 16.1762C5.09185 16.3227 4.89315 16.405 4.68597 16.405H3.64437C3.43719 16.405 3.23849 16.4873 3.09198 16.6338C2.94548 16.7803 2.86318 16.979 2.86318 17.1862C2.86318 17.3934 2.94548 17.5921 3.09198 17.7386C3.23849 17.8851 3.43719 17.9674 3.64437 17.9674H6.51918C6.56399 17.4377 6.75912 16.9318 7.08164 16.5092C7.35119 16.1564 7.69773 15.8698 8.09485 15.6712C8.49196 15.4727 8.92917 15.3674 9.37315 15.3634C10.0887 15.3607 10.7791 15.6268 11.3077 16.1091C11.8363 16.5914 12.1645 17.2546 12.2271 17.9674H14.8519C14.9131 17.2526 15.2402 16.5867 15.7687 16.1015C16.2972 15.6163 16.9885 15.3471 17.7059 15.3471C18.4233 15.3471 19.1147 15.6163 19.6431 16.1015C20.1716 16.5867 20.4988 17.2526 20.5599 17.9674H21.9765C22.2201 17.9723 22.4578 17.8916 22.6481 17.7394C22.8385 17.5871 22.9694 17.373 23.0181 17.1342L23.7055 13.6969C23.7001 13.6729 23.7001 13.648 23.7055 13.624C23.7203 13.5343 23.7203 13.4428 23.7055 13.3532L21.7473 7.58272C21.6406 7.27627 21.4405 7.01097 21.1752 6.82414C20.9099 6.6373 20.5927 6.53832 20.2682 6.54112H18.3934L18.5079 5.70785C18.5359 5.48706 18.5168 5.26285 18.4517 5.05002C18.3866 4.83719 18.2771 4.6406 18.1304 4.47323C17.9837 4.30587 17.8032 4.17154 17.6007 4.07912C17.3983 3.98671 17.1785 3.93831 16.956 3.93713H5.20677C4.99958 3.93713 4.80088 4.01944 4.65438 4.16594C4.50787 4.31244 4.42557 4.51114 4.42557 4.71833C4.42557 4.92552 4.50787 5.12422 4.65438 5.27072C4.80088 5.41722 4.99958 5.49953 5.20677 5.49953H6.50876C6.71595 5.49953 6.91465 5.58183 7.06115 5.72833C7.20765 5.87484 7.28996 6.07354 7.28996 6.28072C7.28996 6.48791 7.20765 6.68661 7.06115 6.83311C6.91465 6.97962 6.71595 7.06192 6.50876 7.06192H2.08198C1.87563 7.06462 1.67849 7.14779 1.53257 7.29371C1.38665 7.43963 1.30348 7.63677 1.30078 7.84312C1.30049 8.04052 1.37596 8.23052 1.51161 8.37393C1.64727 8.51733 1.83278 8.60323 2.0299 8.6139H4.68597C4.89315 8.6139 5.09185 8.6962 5.23836 8.84271C5.38486 8.98921 5.46716 9.18791 5.46716 9.3951C5.46716 9.60228 5.38486 9.80098 5.23836 9.94748C5.09185 10.094 4.89315 10.1763 4.68597 10.1763H3.12357H2.95692C2.78326 10.2142 2.62773 10.3102 2.516 10.4485C2.40427 10.5867 2.34303 10.7589 2.34238 10.9367C2.34238 11.1438 2.42468 11.3425 2.57118 11.489C2.71769 11.6355 2.91639 11.7179 3.12357 11.7179H3.64437C3.85156 11.7179 4.05026 11.8002 4.19676 11.9467C4.34326 12.0932 4.42557 12.2919 4.42557 12.4991C4.42557 12.7062 4.34326 12.9049 4.19676 13.0514C4.05026 13.1979 3.85156 13.2802 3.64437 13.2802ZM18.2267 8.07227H20.1224C20.1771 8.0731 20.2302 8.09046 20.2748 8.12206C20.3195 8.15367 20.3535 8.19804 20.3724 8.24934L21.8723 12.7594H17.6018L18.2267 8.07227Z" fill="#333333"/>
</svg>
