<svg width="50" height="50" viewBox="0 0 50 50" fill="none" xmlns="http://www.w3.org/2000/svg">
<path d="M4.87199 3.5C3.83812 3.5 3 4.33811 3 5.37197C3 6.40583 3.83812 7.24394 4.87199 7.24394H8.20281C8.47537 7.24394 8.74101 7.3297 8.96212 7.48907C9.18322 7.64844 9.34857 7.87334 9.43474 8.13191L15.6067 26.651C15.8808 27.4733 15.9156 28.3585 15.7054 29.1994L15.1972 31.2359C14.4515 34.2186 16.7733 37.1955 19.8479 37.1955H42.3118C43.3456 37.1955 44.1838 36.3574 44.1838 35.3235C44.1838 34.2896 43.3456 33.4515 42.3118 33.4515H19.8479C19.119 33.4515 18.651 32.8534 18.8278 32.1463L19.2111 30.6156C19.276 30.3562 19.4258 30.126 19.6365 29.9615C19.8473 29.7969 20.107 29.7076 20.3744 29.7076H40.4398C41.2458 29.708 41.9616 29.1925 42.2167 28.4279L47.2075 13.4522C47.6117 12.2395 46.7088 10.9873 45.4305 10.9879H15.2703C14.9977 10.9879 14.7321 10.9021 14.511 10.7428C14.2899 10.5834 14.1245 10.3585 14.0383 10.0999L12.2649 4.77967C12.0098 4.01508 11.294 3.49958 10.488 3.5H4.87199ZM17.9759 39.0674C15.9082 39.0674 14.2319 40.7437 14.2319 42.8114C14.2319 44.8791 15.9082 46.5553 17.9759 46.5553C20.0437 46.5553 21.7199 44.8791 21.7199 42.8114C21.7199 40.7437 20.0437 39.0674 17.9759 39.0674ZM40.4398 39.0674C38.372 39.0674 36.6958 40.7437 36.6958 42.8114C36.6958 44.8791 38.372 46.5553 40.4398 46.5553C42.5075 46.5553 44.1838 44.8791 44.1838 42.8114C44.1838 40.7437 42.5075 39.0674 40.4398 39.0674Z" fill="#F34646"/>
</svg>
