<svg width="20" height="20" viewBox="0 0 20 20" fill="none" xmlns="http://www.w3.org/2000/svg">
<g clip-path="url(#clip0_210_8759)">
<path d="M20.0009 8.58371C20.0005 8.00903 19.8303 7.44728 19.5117 6.969C19.1931 6.49071 18.7402 6.11721 18.2101 5.89538C17.8718 3.96401 16.8632 2.2138 15.3619 0.952605C13.8605 -0.308593 11.9625 -1 10.0018 -1C8.04099 -1 6.143 -0.308593 4.64166 0.952605C3.14032 2.2138 2.13177 3.96401 1.79343 5.89538C1.18844 6.14991 0.686975 6.60106 0.370139 7.17588C0.0533021 7.75071 -0.060387 8.41559 0.0474551 9.06303C0.155297 9.71047 0.478366 10.3026 0.96442 10.7437C1.45047 11.1848 2.0711 11.449 2.72593 11.4937C3.15634 12.4071 3.74006 13.24 4.45177 13.9562C3.40892 15.0949 2.74709 16.5304 2.55843 18.0629C2.54366 18.1801 2.55399 18.2991 2.58873 18.4121C2.62346 18.525 2.68182 18.6292 2.75991 18.7179C2.83801 18.8065 2.93406 18.8776 3.04171 18.9263C3.14935 18.975 3.26612 19.0002 3.38427 19.0004H16.6001C16.7182 19.0003 16.835 18.9752 16.9427 18.9266C17.0504 18.878 17.1465 18.807 17.2247 18.7185C17.3028 18.6299 17.3613 18.5257 17.3961 18.4128C17.431 18.2999 17.4414 18.1809 17.4268 18.0637C17.2394 16.5351 16.5809 15.1027 15.5426 13.9654C16.2582 13.247 16.8451 12.4109 17.2776 11.4937C18.016 11.4447 18.7082 11.1168 19.2138 10.5764C19.7195 10.0361 20.0009 9.32375 20.0009 8.58371ZM16.8743 9.81121C16.6799 9.7756 16.4792 9.81073 16.3085 9.91023C16.1377 10.0097 16.0083 10.167 15.9434 10.3537C15.1801 12.5187 12.6093 14.8337 10.0009 14.8337C7.3926 14.8337 4.82177 12.517 4.05843 10.352C3.99346 10.1655 3.86395 10.0083 3.69327 9.90879C3.52258 9.80931 3.32196 9.77411 3.1276 9.80955C3.05835 9.82313 2.98813 9.83121 2.9176 9.83371C2.60826 9.83002 2.31127 9.71174 2.08409 9.50175C1.8569 9.29177 1.71565 9.005 1.68766 8.6969C1.65967 8.3888 1.74693 8.08127 1.93256 7.83378C2.11818 7.58629 2.38899 7.41643 2.6926 7.35705C2.86978 7.32493 3.03179 7.23629 3.15437 7.10439C3.27696 6.97249 3.35352 6.80443 3.3726 6.62538C3.49369 5.4687 3.91654 4.36413 4.5988 3.42227C5.28106 2.48041 6.19879 1.73432 7.2601 1.25871C7.08457 1.70524 7.02079 2.18789 7.07432 2.66468C7.12784 3.14147 7.29704 3.59796 7.56721 3.99446C7.83737 4.39095 8.20032 4.71543 8.62447 4.93968C9.04863 5.16392 9.52115 5.28115 10.0009 5.28115C10.4807 5.28115 10.9532 5.16392 11.3774 4.93968C11.8016 4.71543 12.1645 4.39095 12.4347 3.99446C12.7048 3.59796 12.874 3.14147 12.9276 2.66468C12.9811 2.18789 12.9173 1.70524 12.7418 1.25871C13.8031 1.73432 14.7208 2.48041 15.4031 3.42227C16.0853 4.36413 16.5082 5.4687 16.6293 6.62538C16.6483 6.80443 16.7249 6.97249 16.8475 7.10439C16.9701 7.23629 17.1321 7.32493 17.3093 7.35705C17.6129 7.41643 17.8837 7.58629 18.0693 7.83378C18.2549 8.08127 18.3422 8.3888 18.3142 8.6969C18.2862 9.005 18.145 9.29177 17.9178 9.50175C17.6906 9.71174 17.3936 9.83002 17.0843 9.83371C17.0138 9.83176 16.9436 9.82423 16.8743 9.81121Z" fill="#B3B3B3"/>
<path d="M7.91602 10.8334C8.60637 10.8334 9.16602 10.2737 9.16602 9.58337C9.16602 8.89302 8.60637 8.33337 7.91602 8.33337C7.22566 8.33337 6.66602 8.89302 6.66602 9.58337C6.66602 10.2737 7.22566 10.8334 7.91602 10.8334Z" fill="#B3B3B3"/>
<path d="M12.084 10.8334C12.7743 10.8334 13.334 10.2737 13.334 9.58337C13.334 8.89302 12.7743 8.33337 12.084 8.33337C11.3936 8.33337 10.834 8.89302 10.834 9.58337C10.834 10.2737 11.3936 10.8334 12.084 10.8334Z" fill="#B3B3B3"/>
</g>
<defs>
<clipPath id="clip0_210_8759">
<rect width="20" height="20" fill="white"/>
</clipPath>
</defs>
</svg>
