<svg width="20" height="20" viewBox="0 0 20 20" fill="none" xmlns="http://www.w3.org/2000/svg">
<path d="M3.27961 17.28H4.67961C5.60362 17.28 6.35961 16.524 6.35961 15.6V10.616C6.35961 9.68645 5.60362 8.93604 4.67961 8.93604H3.27961C2.3556 8.93604 1.59961 9.68645 1.59961 10.616V15.6C1.59961 16.524 2.3556 17.28 3.27961 17.28Z" fill="#F34646"/>
<path d="M10.6991 5.828H9.29914C8.37513 5.828 7.61914 6.58399 7.61914 7.508V15.6C7.61914 16.524 8.37513 17.28 9.29914 17.28H10.6991C11.6232 17.28 12.3791 16.524 12.3791 15.6V7.508C12.3791 6.58399 11.6232 5.828 10.6991 5.828Z" fill="#F34646"/>
<path d="M16.7196 2.72009H15.3196C14.3956 2.72009 13.6396 3.47608 13.6396 4.40009V15.6001C13.6396 16.5241 14.3956 17.2801 15.3196 17.2801H16.7196C17.6437 17.2801 18.3996 16.5241 18.3996 15.6001V4.40009C18.3996 3.47608 17.6437 2.72009 16.7196 2.72009Z" fill="#F34646"/>
</svg>
