<svg width="25" height="25" viewBox="0 0 25 25" fill="none" xmlns="http://www.w3.org/2000/svg">
<path d="M4.1 21.6002H5.85C7.00501 21.6002 7.95 20.6552 7.95 19.5002V13.2702C7.95 12.1082 7.00501 11.1702 5.85 11.1702H4.1C2.94499 11.1702 2 12.1082 2 13.2702V19.5002C2 20.6552 2.94499 21.6002 4.1 21.6002Z" fill="#333333"/>
<path d="M13.3754 7.28516H11.6254C10.4704 7.28516 9.52539 8.23014 9.52539 9.38516V19.5002C9.52539 20.6551 10.4704 21.6002 11.6254 21.6002H13.3754C14.5304 21.6002 15.4754 20.6551 15.4754 19.5002V9.38516C15.4754 8.23014 14.5304 7.28516 13.3754 7.28516Z" fill="#333333"/>
<path d="M20.8998 3.40015H19.1498C17.9948 3.40015 17.0498 4.34513 17.0498 5.50015V19.5001C17.0498 20.6551 17.9948 21.6001 19.1498 21.6001H20.8998C22.0548 21.6001 22.9998 20.6551 22.9998 19.5001V5.50015C22.9998 4.34513 22.0548 3.40015 20.8998 3.40015Z" fill="#333333"/>
</svg>
