<svg width="25" height="25" viewBox="0 0 25 25" fill="none" xmlns="http://www.w3.org/2000/svg">
<path d="M12.5 2.5437C10.2949 2.54613 8.18089 3.4231 6.62161 4.98222C5.06232 6.54135 4.18514 8.65531 4.1825 10.8604C4.1825 13.002 5.84083 16.3537 9.11166 20.822C9.50105 21.3554 10.0109 21.7894 10.5997 22.0886C11.1885 22.3878 11.8396 22.5437 12.5 22.5437C13.1604 22.5437 13.8115 22.3878 14.4003 22.0886C14.9891 21.7894 15.499 21.3554 15.8883 20.822C19.1592 16.3537 20.8175 13.002 20.8175 10.8604C20.8149 8.65531 19.9377 6.54135 18.3784 4.98222C16.8191 3.4231 14.705 2.54613 12.5 2.5437ZM12.5 14.1753C11.8407 14.1753 11.1963 13.9799 10.6481 13.6136C10.0999 13.2473 9.67269 12.7267 9.4204 12.1176C9.16811 11.5085 9.1021 10.8383 9.23071 10.1917C9.35933 9.54512 9.6768 8.95118 10.143 8.485C10.6092 8.01883 11.2031 7.70136 11.8497 7.57274C12.4963 7.44413 13.1665 7.51014 13.7756 7.76243C14.3847 8.01472 14.9053 8.44196 15.2716 8.99012C15.6378 9.53829 15.8333 10.1828 15.8333 10.842C15.8333 11.7261 15.4821 12.5739 14.857 13.199C14.2319 13.8242 13.3841 14.1753 12.5 14.1753Z" fill="#333333"/>
</svg>
