<svg width="30" height="30" viewBox="0 0 30 30" fill="none" xmlns="http://www.w3.org/2000/svg">
<path d="M22.2916 11.275V9.79165C22.2916 5.7646 19.0271 2.5 15 2.5C10.9729 2.5 7.70831 5.7646 7.70831 9.79165V11.275C5.81251 12.1024 4.58605 13.9732 4.58331 16.0417V22.2917C4.58673 25.1667 6.91656 27.4966 9.79161 27.5H20.2082C23.0833 27.4966 25.4131 25.1667 25.4166 22.2917V16.0417C25.4139 13.9732 24.1874 12.1024 22.2916 11.275ZM16.0416 20.2083C16.0416 20.7836 15.5752 21.25 15 21.25C14.4247 21.25 13.9583 20.7836 13.9583 20.2083V18.125C13.9583 17.5497 14.4247 17.0833 15 17.0833C15.5752 17.0833 16.0416 17.5497 16.0416 18.125V20.2083ZM20.2083 10.8334H9.79161V9.7917C9.79161 6.91523 12.1234 4.58335 15 4.58335C17.8765 4.58335 20.2083 6.91519 20.2083 9.7917V10.8334Z" fill="#333333"/>
</svg>
