<svg width="20" height="20" viewBox="0 0 20 20" fill="none" xmlns="http://www.w3.org/2000/svg">
    <g clip-path="url(#clip0_60_1117)">
        <path d="M20 10.0608C20 15.0516 16.3383 19.1891 11.5583 19.94V12.9708H13.8825L14.325 10.0875H11.5583V8.21662C11.5583 7.42746 11.945 6.65912 13.1833 6.65912H14.4408V4.20412C14.4408 4.20412 13.2992 4.00912 12.2083 4.00912C9.93 4.00912 8.44167 5.38996 8.44167 7.88912V10.0866H5.90917V12.97H8.44167V19.9391C3.6625 19.1875 0 15.0508 0 10.0608C0 4.53829 4.4775 0.060791 10 0.060791C15.5225 0.060791 20 4.53746 20 10.0608Z" fill="#F34646"/>
    </g>
    <defs>
        <clipPath id="clip0_60_1117">
            <rect width="20" height="20" fill="white"/>
        </clipPath>
    </defs>
</svg>
