<svg width="20" height="20" viewBox="0 0 20 20" fill="none" xmlns="http://www.w3.org/2000/svg">
    <path d="M11.3334 13.8033L8.97724 16.1595C7.53984 17.5584 5.24055 17.5273 3.84158 16.0899C2.4696 14.6803 2.4693 12.4346 3.84087 11.0246L6.19705 8.66624C6.47909 8.38399 6.47892 7.92657 6.19668 7.64453C5.91443 7.36249 5.45701 7.36265 5.17496 7.6449L2.8195 10.0032C0.837457 11.9863 0.83827 15.2006 2.82129 17.1827C4.80432 19.1648 8.01867 19.1639 10.0007 17.1809L12.3569 14.8247C12.6341 14.5378 12.6261 14.0805 12.3392 13.8034C12.0593 13.533 11.6155 13.533 11.3356 13.8034H11.3334V13.8033Z" fill="#333333" fill-opacity="0.8"/>
    <path d="M17.1833 2.81988C16.2339 1.86396 14.9414 1.32784 13.5941 1.33119C12.2476 1.32761 10.9555 1.8626 10.0057 2.817L7.64588 5.17389C7.36363 5.45593 7.36346 5.91336 7.6455 6.1956C7.92754 6.47785 8.38497 6.47801 8.66722 6.19597L11.0256 3.8398C11.7048 3.15647 12.6292 2.77336 13.5927 2.77583C15.5984 2.77651 17.2239 4.40303 17.2232 6.40881C17.2229 7.37147 16.8404 8.29465 16.1598 8.97545L13.8036 11.3316C13.5213 11.6139 13.5213 12.0715 13.8036 12.3537C14.0858 12.6359 14.5434 12.6359 14.8257 12.3537L17.1818 9.99895C19.1611 8.01539 19.1617 4.80419 17.1833 2.81988Z" fill="#333333" fill-opacity="0.8"/>
    <path d="M11.6569 7.32127L7.32305 11.6552C7.0361 11.9323 7.02818 12.3896 7.30531 12.6765C7.58244 12.9634 8.03973 12.9714 8.32665 12.6942C8.33268 12.6884 8.33857 12.6825 8.34439 12.6765L12.6783 8.34261C12.9554 8.05566 12.9474 7.59841 12.6605 7.32127C12.3806 7.05095 11.9369 7.05095 11.6569 7.32127Z" fill="#333333" fill-opacity="0.8"/>
</svg>
