<svg width="20" height="20" viewBox="0 0 20 20" fill="none" xmlns="http://www.w3.org/2000/svg">
    <path d="M16.8923 6.46393C16.9024 6.61632 16.9024 6.76943 16.9024 6.92326C16.9024 11.6228 13.3246 17.0416 6.78411 17.0416V17.0387C4.85216 17.0416 2.95994 16.4884 1.3335 15.4448C1.61444 15.4787 1.89683 15.4953 2.17994 15.4961C3.78183 15.4975 5.3375 14.9602 6.59633 13.9707C5.07461 13.9418 3.73994 12.9495 3.27411 11.5007C3.80711 11.6033 4.356 11.5823 4.87961 11.4401C3.21994 11.1049 2.02683 9.64677 2.02683 7.95388C2.02683 7.93871 2.02683 7.92354 2.02683 7.9091C2.52155 8.18499 3.07477 8.33738 3.641 8.35399C2.07811 7.31038 1.59566 5.23182 2.53961 3.60681C4.34516 5.82837 7.00944 7.17893 9.86872 7.32265C9.582 6.08765 9.97416 4.79343 10.8972 3.92459C12.3293 2.57764 14.5819 2.64698 15.9289 4.07915C16.7255 3.92242 17.4889 3.62992 18.1873 3.21609C17.9215 4.03942 17.3661 4.73854 16.6237 5.18343C17.3293 5.09893 18.0175 4.91043 18.6668 4.62298C18.1894 5.33726 17.5885 5.96054 16.8923 6.46393Z" fill="#333333" fill-opacity="0.8"/>
</svg>
