<svg width="14" height="14" viewBox="0 0 14 14" fill="none" xmlns="http://www.w3.org/2000/svg">
<g clip-path="url(#clip0_338_16498)">
<path d="M11.7257 3.61703C11.7494 3.42439 11.7618 3.22826 11.7618 3.02922C11.7618 1.35625 10.4056 0 8.73257 0H3.67009C3.35165 0 3.07977 0.229961 3.02694 0.543977L1.16155 11.6312C1.09461 12.029 1.4013 12.3916 1.8047 12.3916H3.65617C3.97462 12.3916 4.25161 12.1618 4.30441 11.8477C4.30441 11.8477 4.3075 11.8293 4.31308 11.7962H4.31311L4.05509 13.3298C3.99614 13.6804 4.26643 14 4.62198 14H6.24174C6.52243 14 6.76207 13.7973 6.80861 13.5205L7.26877 10.7856C7.3481 10.3141 7.75626 9.96893 8.23431 9.96893H8.65983C10.9712 9.96893 12.8449 8.0952 12.8449 5.78386C12.8449 4.88947 12.4028 4.09888 11.7257 3.61703Z" fill="#002987"/>
<path d="M11.7256 3.61707C11.4359 5.97352 9.42748 7.7982 6.99274 7.7982H5.58003C5.26117 7.7982 4.98579 8.01058 4.89941 8.31087L4.05498 13.3298C3.996 13.6804 4.2663 14 4.62185 14H6.24161C6.52229 14 6.76193 13.7973 6.80847 13.5206L7.26864 10.7856C7.34796 10.3142 7.75612 9.96896 8.23417 9.96896H8.6597C10.9711 9.96896 12.8448 8.09523 12.8448 5.78389C12.8448 4.88951 12.4027 4.09892 11.7256 3.61707Z" fill="#0085CC"/>
<path d="M5.58298 7.79818H6.9957C9.43047 7.79818 11.4389 5.9735 11.7285 3.61707C11.2941 3.30793 10.7632 3.12549 10.1893 3.12549H6.50204C6.08223 3.12549 5.72378 3.42865 5.65411 3.84263L4.90234 8.31082C4.98872 8.01053 5.26413 7.79818 5.58298 7.79818Z" fill="#00186A"/>
</g>
<defs>
<clipPath id="clip0_338_16498">
<rect width="14" height="14" fill="white"/>
</clipPath>
</defs>
</svg>
