<svg width="20" height="20" viewBox="0 0 20 20" fill="none" xmlns="http://www.w3.org/2000/svg">
<path d="M3.97921 3.27083C3.97921 2.29333 4.77254 1.5 5.75005 1.5C6.72755 1.5 7.52088 2.29333 7.52088 3.27083C7.52088 4.24833 6.72755 5.04167 5.75005 5.04167C4.77254 5.04167 3.97921 4.24833 3.97921 3.27083ZM6.45838 5.75H5.04171C3.47629 5.75 2.20837 7.01792 2.20837 8.58333V10.7083C2.20837 11.7567 2.78212 12.6704 3.62504 13.1592V17.7917C3.62504 18.1812 3.94379 18.5 4.33338 18.5C4.72296 18.5 5.04171 18.1812 5.04171 17.7917V13.5417H6.45838V17.7917C6.45838 18.1812 6.77713 18.5 7.16671 18.5C7.5563 18.5 7.87505 18.1812 7.87505 17.7917V13.1592C8.71797 12.6704 9.29172 11.7496 9.29172 10.7083V8.58333C9.29172 7.01792 8.0238 5.75 6.45838 5.75ZM14.2501 5.04167C15.2276 5.04167 16.0209 4.24833 16.0209 3.27083C16.0209 2.29333 15.2276 1.5 14.2501 1.5C13.2726 1.5 12.4792 2.29333 12.4792 3.27083C12.4792 4.24833 13.2726 5.04167 14.2501 5.04167ZM17.7776 13.2796L17.1542 8.31417C16.9701 6.855 15.7234 5.75 14.2501 5.75C12.7767 5.75 11.5301 6.855 11.3459 8.31417L10.7226 13.2796C10.6446 13.8817 10.8359 14.4908 11.2396 14.9512C11.4805 15.2275 11.7851 15.4258 12.1251 15.5462V17.7917C12.1251 18.1812 12.4438 18.5 12.8334 18.5C13.223 18.5 13.5417 18.1812 13.5417 17.7917V15.6667H14.9584V17.7917C14.9584 18.1812 15.2771 18.5 15.6667 18.5C16.0563 18.5 16.3751 18.1812 16.3751 17.7917V15.5462C16.7151 15.4258 17.0196 15.2204 17.2605 14.9512C17.6642 14.4908 17.8484 13.8887 17.7776 13.2796Z" fill="#B3B3B3"/>
</svg>
