<svg width="20" height="20" viewBox="0 0 20 20" fill="none" xmlns="http://www.w3.org/2000/svg">
<path d="M9.99971 2.03497C8.23567 2.03691 6.54442 2.73849 5.29699 3.98579C4.04957 5.23309 3.34782 6.92426 3.3457 8.6883C3.3457 10.4016 4.67237 13.083 7.28904 16.6576C7.60054 17.0844 8.00841 17.4315 8.47944 17.6709C8.95047 17.9102 9.47136 18.035 9.99971 18.035C10.5281 18.035 11.0489 17.9102 11.52 17.6709C11.991 17.4315 12.3989 17.0844 12.7104 16.6576C15.327 13.083 16.6537 10.4016 16.6537 8.6883C16.6516 6.92426 15.9498 5.23309 14.7024 3.98579C13.455 2.73849 11.7637 2.03691 9.99971 2.03497ZM9.99971 11.3403C9.47229 11.3403 8.95672 11.1839 8.51819 10.8909C8.07965 10.5979 7.73786 10.1814 7.53603 9.69412C7.33419 9.20685 7.28138 8.67067 7.38428 8.15339C7.48717 7.63611 7.74115 7.16095 8.11409 6.78801C8.48703 6.41507 8.96218 6.1611 9.47947 6.05821C9.99675 5.95531 10.5329 6.00812 11.0202 6.20995C11.5075 6.41179 11.9239 6.75358 12.217 7.19211C12.51 7.63064 12.6664 8.14621 12.6664 8.67363C12.6664 9.38087 12.3854 10.0591 11.8853 10.5592C11.3852 11.0593 10.707 11.3403 9.99971 11.3403Z" fill="white"/>
</svg>
