<svg width="20" height="20" viewBox="0 0 20 20" fill="none" xmlns="http://www.w3.org/2000/svg">
<path d="M9.99957 1.53503C8.12527 1.5371 6.32833 2.28252 5.00293 3.60778C3.67754 4.93303 2.93194 6.7299 2.92969 8.60419C2.92969 10.4246 4.33927 13.2735 7.11948 17.0716C7.45046 17.525 7.88381 17.8939 8.38428 18.1482C8.88475 18.4025 9.43819 18.535 9.99957 18.535C10.5609 18.535 11.1144 18.4025 11.6148 18.1482C12.1153 17.8939 12.5487 17.525 12.8797 17.0716C15.6599 13.2735 17.0694 10.4246 17.0694 8.60419C17.0672 6.7299 16.3216 4.93303 14.9962 3.60778C13.6708 2.28252 11.8739 1.5371 9.99957 1.53503ZM9.99957 11.4219C9.43919 11.4219 8.89139 11.2558 8.42545 10.9444C7.95951 10.6331 7.59635 10.1906 7.38191 9.67287C7.16746 9.15515 7.11135 8.58546 7.22067 8.03585C7.33 7.48624 7.59985 6.98139 7.9961 6.58514C8.39234 6.18889 8.8972 5.91904 9.44681 5.80972C9.99642 5.70039 10.5661 5.7565 11.0838 5.97095C11.6016 6.1854 12.0441 6.54855 12.3554 7.01449C12.6667 7.48043 12.8329 8.02823 12.8329 8.58861C12.8329 9.34005 12.5344 10.0607 12.003 10.5921C11.4717 11.1234 10.751 11.4219 9.99957 11.4219Z" fill="#B3B3B3"/>
</svg>
