<svg width="50" height="50" viewBox="0 0 50 50" fill="none" xmlns="http://www.w3.org/2000/svg">
<path d="M25 16.6016C29.5844 16.6016 33.3008 12.8852 33.3008 8.30078C33.3008 3.71639 29.5844 0 25 0C20.4156 0 16.6992 3.71639 16.6992 8.30078C16.6992 12.8852 20.4156 16.6016 25 16.6016Z" fill="#F34646"/>
<path d="M31.0994 17.7261C29.3419 18.8674 27.2471 19.5312 24.9999 19.5312C22.7527 19.5312 20.6579 18.8674 18.9004 17.7261C16.9575 18.4686 15.1562 19.564 13.5898 20.9698L24.9999 25.2486L36.41 20.9698C34.8437 19.564 33.0423 18.4685 31.0994 17.7261Z" fill="#F34646"/>
<path d="M42.5781 30.2734H41.6016C40.7926 30.2734 40.1367 30.9293 40.1367 31.7383V35.6445C40.1367 36.4535 40.7926 37.1094 41.6016 37.1094H42.5781C44.4658 37.1094 45.9961 35.5791 45.9961 33.6914C45.9961 31.8037 44.4658 30.2734 42.5781 30.2734Z" fill="#F34646"/>
<path d="M8.54063 22.8785C8.1457 23.1523 7.91016 23.6021 7.91016 24.0825V27.3438H8.39844C10.8216 27.3438 12.793 29.3151 12.793 31.7383V35.6445C12.793 38.0677 10.8216 40.0391 8.39844 40.0391H7.91016V43.1255C7.91016 43.7361 8.28896 44.2827 8.86064 44.4971L23.5352 50V27.8281L9.88936 22.7109C9.43945 22.5421 8.93545 22.6047 8.54063 22.8785Z" fill="#F34646"/>
<path d="M37.207 35.6445V31.7383C37.207 29.3151 39.1784 27.3438 41.6016 27.3438H42.0898V24.0825C42.0898 23.6021 41.8543 23.1523 41.4594 22.8785C41.0645 22.6047 40.5604 22.5421 40.1106 22.7109L26.4648 27.8281V50L41.1394 44.4971C41.711 44.2827 42.0898 43.7361 42.0898 43.1255V40.0391H41.6016C39.1784 40.0391 37.207 38.0677 37.207 35.6445Z" fill="#F34646"/>
<path d="M9.86328 35.6445V31.7383C9.86328 30.9293 9.20742 30.2734 8.39844 30.2734H7.42188C5.53418 30.2734 4.00391 31.8037 4.00391 33.6914C4.00391 35.5791 5.53418 37.1094 7.42188 37.1094H8.39844C9.20742 37.1094 9.86328 36.4535 9.86328 35.6445Z" fill="#F34646"/>
</svg>
