<svg width="25" height="25" viewBox="0 0 25 25" fill="none" xmlns="http://www.w3.org/2000/svg">
<path d="M5.68823 3.71411C5.9562 3.8313 6.17026 4.04536 6.28745 4.31333L6.45698 4.70083C6.48511 4.76489 6.57651 4.76489 6.60464 4.70083L6.77417 4.31333C6.89136 4.04536 7.10542 3.8313 7.37339 3.71411L7.76089 3.54458C7.82495 3.51646 7.82495 3.42505 7.76089 3.39692L7.37417 3.22739C7.1062 3.11021 6.89214 2.89614 6.77495 2.62817L6.60464 2.24067C6.57651 2.17661 6.48511 2.17661 6.45698 2.24067L6.28745 2.62817C6.17026 2.89614 5.9562 3.11021 5.68823 3.22739L5.30073 3.39692C5.23667 3.42505 5.23667 3.51646 5.30073 3.54458L5.68823 3.71411Z" fill="#333333"/>
<path d="M3.68357 14.5821C3.4156 14.4649 3.20154 14.2509 3.08435 13.9829L2.91482 13.5954C2.88669 13.5313 2.79529 13.5313 2.76716 13.5954L2.59763 13.9829C2.48044 14.2509 2.26638 14.4649 1.99841 14.5821L1.61091 14.7517C1.54685 14.7798 1.54685 14.8712 1.61091 14.8993L1.99841 15.0688C2.26638 15.186 2.48044 15.4001 2.59763 15.6681L2.76716 16.0556C2.79529 16.1196 2.88669 16.1196 2.91482 16.0556L3.08435 15.6681C3.20154 15.4001 3.4156 15.186 3.68357 15.0688L4.07107 14.8993C4.13513 14.8712 4.13513 14.7798 4.07107 14.7517L3.68357 14.5821Z" fill="#333333"/>
<path d="M17.6265 3.71411C17.8945 3.8313 18.1086 4.04536 18.2258 4.31333L18.3953 4.70083C18.4234 4.76489 18.5148 4.76489 18.5429 4.70083L18.7125 4.31333C18.8297 4.04536 19.0437 3.8313 19.3117 3.71411L19.6992 3.54458C19.7633 3.51646 19.7633 3.42505 19.6992 3.39692L19.3125 3.22739C19.0445 3.11021 18.8304 2.89614 18.7133 2.62817L18.5437 2.24067C18.5156 2.17661 18.4242 2.17661 18.3961 2.24067L18.2265 2.62817C18.1094 2.89614 17.8953 3.11021 17.6273 3.22739L17.2398 3.39692C17.1758 3.42505 17.1758 3.51646 17.2398 3.54458L17.6265 3.71411Z" fill="#333333"/>
<path d="M23.3891 14.7517L23.0016 14.5821C22.7336 14.4649 22.5195 14.2509 22.4023 13.9829L22.2328 13.5954C22.2047 13.5313 22.1133 13.5313 22.0852 13.5954L21.9156 13.9829C21.7984 14.2509 21.5844 14.4649 21.3164 14.5821L20.9289 14.7517C20.8648 14.7798 20.8648 14.8712 20.9289 14.8993L21.3164 15.0688C21.5844 15.186 21.7984 15.4001 21.9156 15.6681L22.0852 16.0556C22.1133 16.1196 22.2047 16.1196 22.2328 16.0556L22.4023 15.6681C22.5195 15.4001 22.7336 15.186 23.0016 15.0688L23.3891 14.8993C23.4539 14.8712 23.4539 14.7798 23.3891 14.7517Z" fill="#333333"/>
<path d="M13.3429 21.6001C13.075 21.4829 12.8609 21.2688 12.7437 21.0009L12.5742 20.6134C12.5461 20.5493 12.4547 20.5493 12.4265 20.6134L12.257 21.0009C12.1398 21.2688 11.9257 21.4829 11.6578 21.6001L11.2703 21.7696C11.2062 21.7977 11.2062 21.8891 11.2703 21.9173L11.6578 22.0868C11.9257 22.204 12.1398 22.418 12.257 22.686L12.4265 23.0735C12.4547 23.1376 12.5461 23.1376 12.5742 23.0735L12.7437 22.686C12.8609 22.418 13.075 22.204 13.3429 22.0868L13.7304 21.9173C13.7945 21.8891 13.7945 21.7977 13.7304 21.7696L13.3429 21.6001Z" fill="#333333"/>
<path d="M13.6218 2.57505L15.5554 6.49302C15.7375 6.86177 16.0898 7.11802 16.4968 7.17739L20.8203 7.80474C21.8461 7.95396 22.2554 9.21411 21.5132 9.93755L18.3851 12.9868C18.0906 13.2743 17.9562 13.6883 18.0257 14.0938L18.764 18.4C18.939 19.4219 17.8671 20.2008 16.95 19.718L13.0828 17.6852C12.7187 17.4938 12.2835 17.4938 11.9187 17.6852L8.05152 19.718C7.13433 20.2001 6.06167 19.4211 6.23746 18.4L6.97574 14.0938C7.04527 13.6883 6.91089 13.2743 6.61636 12.9868L3.48824 9.93755C2.74605 9.21411 3.15542 7.95396 4.18121 7.80474L8.50464 7.17661C8.91167 7.11724 9.26402 6.86177 9.44605 6.49224L11.3796 2.57427C11.8375 1.64536 13.1632 1.64536 13.6218 2.57505Z" fill="#333333"/>
</svg>
