<svg width="25" height="25" viewBox="0 0 25 25" fill="none" xmlns="http://www.w3.org/2000/svg">
<path d="M13.3947 13.5386H11.6063C11.4863 13.5386 11.3887 13.6362 11.3887 13.7562V15.5527C11.3887 15.6727 11.4863 15.7703 11.6063 15.7703H13.3947C13.5148 15.7703 13.6124 15.6727 13.6124 15.5527V13.7562C13.6124 13.6362 13.5148 13.5386 13.3947 13.5386Z" fill="#333333" fill-opacity="0.6"/>
<path d="M19.9911 6.19382H16.3025V4.65039C16.3025 3.84387 15.64 3.18774 14.8258 3.18774H10.1749C9.36061 3.18774 8.69816 3.84387 8.69816 4.65039V6.19387H5.00954C3.16648 6.19382 1.66699 7.69329 1.66699 9.53637V11.5397C1.79107 12.1439 2.22728 12.6411 2.83094 12.8343L10.1151 14.6145V13.756C10.1151 12.9339 10.784 12.265 11.6061 12.265H13.3945C14.2167 12.265 14.8856 12.9339 14.8856 13.756V14.6145L22.1697 12.8343C22.7734 12.6411 23.2096 12.1439 23.3337 11.5397V9.53637C23.3337 7.69329 21.8342 6.19382 19.9911 6.19382ZM15.0291 6.19387H9.97159V4.65039C9.97159 4.54248 10.059 4.46111 10.1749 4.46111H14.8258C14.9417 4.46111 15.0291 4.54248 15.0291 4.65039V6.19387Z" fill="#333333" fill-opacity="0.6"/>
<path d="M22.5288 14.0562C22.5166 14.06 22.5044 14.0634 22.492 14.0664L14.8348 15.9377C14.6645 16.5737 14.0835 17.0434 13.3945 17.0434H11.6061C10.9172 17.0434 10.3361 16.5737 10.1658 15.9377L2.50865 14.0664C2.49629 14.0634 2.48402 14.06 2.47183 14.0562C2.17946 13.9659 1.90964 13.8343 1.66699 13.6697V19.0817C1.66699 20.5872 2.89179 21.812 4.39733 21.812H20.6033C22.1088 21.812 23.3337 20.5873 23.3337 19.0817V13.6697C23.091 13.8343 22.8212 13.9659 22.5288 14.0562Z" fill="#333333" fill-opacity="0.6"/>
</svg>
