<svg width="20" height="20" viewBox="0 0 20 20" fill="none" xmlns="http://www.w3.org/2000/svg">
<path d="M10.7152 10.8309H9.28446C9.18845 10.8309 9.11035 10.909 9.11035 11.005V12.4422C9.11035 12.5382 9.18845 12.6163 9.28446 12.6163H10.7152C10.8112 12.6163 10.8893 12.5382 10.8893 12.4422V11.005C10.8893 10.909 10.8112 10.8309 10.7152 10.8309Z" fill="#F34646"/>
<path d="M15.9923 4.95516H13.0414V3.72041C13.0414 3.07519 12.5114 2.55029 11.86 2.55029H8.13932C7.4879 2.55029 6.95794 3.07519 6.95794 3.72041V4.95519H4.00705C2.5326 4.95516 1.33301 6.15473 1.33301 7.62919V9.23186C1.43227 9.71519 1.78124 10.113 2.26417 10.2675L8.09148 11.6917V11.0049C8.09148 10.3472 8.62658 9.81211 9.2843 9.81211H10.715C11.3728 9.81211 11.9079 10.3472 11.9079 11.0049V11.6917L17.7352 10.2675C18.2181 10.113 18.5671 9.71519 18.6663 9.23186V7.62919C18.6663 6.15473 17.4668 4.95516 15.9923 4.95516ZM12.0227 4.95519H7.97668V3.72041C7.97668 3.63408 8.04659 3.56898 8.13932 3.56898H11.86C11.9528 3.56898 12.0227 3.63408 12.0227 3.72041V4.95519Z" fill="#F34646"/>
<path d="M18.0225 11.2452C18.0127 11.2482 18.0029 11.2509 17.993 11.2533L11.8673 12.7504C11.731 13.2591 11.2662 13.6349 10.715 13.6349H9.2843C8.73316 13.6349 8.2683 13.2591 8.13207 12.7504L2.00633 11.2533C1.99645 11.2509 1.98663 11.2481 1.97688 11.2452C1.74298 11.1729 1.52713 11.0676 1.33301 10.9359V15.2656C1.33301 16.4699 2.31285 17.4498 3.51728 17.4498H16.4821C17.6865 17.4498 18.6663 16.47 18.6663 15.2656V10.9359C18.4722 11.0676 18.2564 11.1729 18.0225 11.2452Z" fill="#F34646"/>
</svg>
