<svg width="20" height="20" viewBox="0 0 20 20" fill="none" xmlns="http://www.w3.org/2000/svg">
<path d="M7.27341 3.77716C7.51858 3.53418 7.52034 3.13845 7.27735 2.89329C7.03437 2.64812 6.63864 2.64636 6.39347 2.88934L5.19252 4.07963C4.74571 4.52245 4.37306 4.89177 4.10735 5.22262C3.82867 5.56964 3.61668 5.93434 3.56005 6.37867C3.49094 6.92085 3.94057 7.29159 4.3763 7.29159H15.8335C16.1787 7.29159 16.4585 7.01176 16.4585 6.66659C16.4585 6.32141 16.1787 6.04159 15.8335 6.04159H5.05327C5.0625 6.02974 5.07207 6.01765 5.08197 6.00533C5.29788 5.73647 5.61901 5.41686 6.09809 4.94204L7.27341 3.77716Z" fill="#F34646"/>
<path d="M4.16675 12.7083C3.82157 12.7083 3.54175 12.9881 3.54175 13.3333C3.54175 13.6784 3.82157 13.9583 4.16675 13.9583H15.1139C15.1047 13.9701 15.0951 13.9822 15.0852 13.9945C14.8692 14.2633 14.5482 14.583 14.0691 15.0578L12.8937 16.2227C12.6486 16.4657 12.6468 16.8614 12.8898 17.1066C13.1327 17.3518 13.5285 17.3535 13.7737 17.1105L14.9746 15.9203C15.4214 15.4774 15.7941 15.1081 16.0598 14.7773C16.3385 14.4302 16.5504 14.0655 16.6071 13.6212C16.6096 13.6018 16.6117 13.5824 16.6137 13.563C16.6647 13.0606 16.2517 12.7083 15.8334 12.7083H4.16675Z" fill="#F34646"/>
</svg>
