<svg width="50" height="50" viewBox="0 0 50 50" fill="none" xmlns="http://www.w3.org/2000/svg">
<path d="M46.2091 19.7222C46.0927 19.6586 45.96 19.631 45.8279 19.6428C45.6958 19.6546 45.5702 19.7053 45.4669 19.7885C45.3636 19.8716 45.2873 19.9836 45.2476 20.1101C45.2079 20.2367 45.2066 20.3721 45.2438 20.4994C45.5259 21.4633 45.7387 22.4461 45.8805 23.4403C45.9039 23.5998 45.9837 23.7457 46.1053 23.8514C46.227 23.9571 46.3825 24.0157 46.5437 24.0165C46.5756 24.0164 46.6075 24.0142 46.639 24.0098C46.815 23.9845 46.9738 23.8904 47.0805 23.7482C47.1873 23.606 47.2332 23.4272 47.2084 23.2512C47.0575 22.1933 46.8311 21.1475 46.5309 20.122C46.5064 20.0374 46.4653 19.9585 46.41 19.8898C46.3548 19.8212 46.2865 19.7642 46.2091 19.7222Z" fill="#F34646"/>
<path d="M42.3701 13.314C42.3037 13.3614 42.2472 13.4214 42.2039 13.4906C42.1606 13.5599 42.1314 13.6369 42.1179 13.7175C42.1044 13.798 42.1069 13.8804 42.1253 13.9599C42.1437 14.0395 42.1775 14.1147 42.2249 14.1811C42.8092 15.0007 43.3343 15.8608 43.7964 16.7549C43.8721 16.9014 44.0029 17.0119 44.16 17.062C44.3171 17.1121 44.4877 17.0977 44.6342 17.0221C44.7807 16.9464 44.8912 16.8156 44.9413 16.6585C44.9914 16.5014 44.9771 16.3308 44.9014 16.1843C44.4121 15.2377 43.8561 14.3272 43.2374 13.4597C43.1901 13.3931 43.1301 13.3365 43.0609 13.2931C42.9917 13.2498 42.9146 13.2205 42.834 13.207C42.7534 13.1934 42.671 13.1959 42.5914 13.2143C42.5118 13.2326 42.4366 13.2665 42.3701 13.314Z" fill="#F34646"/>
<path d="M34.6094 19.8969C34.264 20.143 34.0168 20.5034 33.9115 20.9142L33.5951 22.1502C33.5086 22.4883 33.5225 22.8442 33.6351 23.1745C33.7477 23.5048 33.954 23.7951 34.229 24.01C34.6702 24.3568 35.0045 24.8212 35.1935 25.3496C35.3825 25.8781 35.4185 26.4491 35.2972 26.9971L34.6579 29.8487C34.5341 30.4023 34.2538 30.9087 33.8506 31.3077L33.2931 31.8598C33.1007 32.0495 32.9538 32.2803 32.8635 32.535C32.7732 32.7897 32.7418 33.0616 32.7718 33.3301L33.1119 36.4468C35.6279 34.4116 37.2846 31.5028 37.7515 28.3005C38.2185 25.0982 37.4615 21.8376 35.6314 19.1686L34.6094 19.8969Z" fill="#F34646"/>
<path d="M33.0262 30.4754C33.2701 30.2339 33.4396 29.9275 33.5145 29.5926L34.1538 26.741C34.2271 26.4095 34.2054 26.0639 34.091 25.7442C33.9767 25.4244 33.7744 25.1435 33.5074 24.9336C33.053 24.5785 32.7119 24.0987 32.5259 23.5528C32.3398 23.0069 32.3169 22.4187 32.4599 21.86L32.7763 20.6239C32.9503 19.945 33.3589 19.3494 33.9296 18.9426L34.9257 18.2332C33.7926 16.8604 32.3871 15.7376 30.7979 14.9356C29.2088 14.1337 27.4706 13.6701 25.6932 13.5742L26.2603 17.0224C26.324 17.4111 26.2736 17.8101 26.1151 18.1708C25.9566 18.5314 25.6969 18.8384 25.3674 19.0544L23.1045 20.5362C22.9613 20.6295 22.8492 20.7634 22.7825 20.9207C22.7157 21.078 22.6974 21.2517 22.7299 21.4194L23.0341 23.0125C23.0596 23.1448 23.1157 23.2693 23.1978 23.3761C23.2799 23.4829 23.3858 23.569 23.507 23.6277L25.097 24.3933C25.497 24.587 25.8229 24.9061 26.025 25.302C26.2271 25.6979 26.2943 26.149 26.2165 26.5866L25.6372 29.8039C25.5809 30.1149 25.4532 30.4086 25.2642 30.6619C25.0764 30.9155 24.8316 31.1215 24.5497 31.2632C24.2678 31.405 23.9565 31.4785 23.6409 31.478C23.5687 31.478 23.4965 31.4743 23.4247 31.4668C23.0742 31.432 22.7389 31.3061 22.4521 31.1015C22.1654 30.8969 21.9372 30.6208 21.7902 30.3007L21.2075 29.0465C21.138 28.8976 21.0275 28.7717 20.889 28.6833C20.7505 28.5949 20.5897 28.5478 20.4254 28.5475H18.0689C17.8916 28.5471 17.7185 28.6017 17.5734 28.7037L15.9891 29.8164C15.7536 29.9816 15.4859 30.095 15.2034 30.1491C14.921 30.2033 14.6302 30.197 14.3504 30.1307L12.5303 29.6985C13.9766 35.2328 19.0187 39.3289 24.9998 39.3289C27.493 39.3317 29.9328 38.607 32.0201 37.2435L31.607 33.4576C31.5574 33.0138 31.6092 32.5644 31.7585 32.1435C31.9077 31.7225 32.1505 31.3409 32.4687 31.0274L33.0262 30.4754Z" fill="#F34646"/>
<path d="M15.3159 28.8574L16.9004 27.7453C17.2425 27.5044 17.6508 27.3754 18.0691 27.3761H20.4255C20.813 27.3769 21.1923 27.488 21.519 27.6965C21.8457 27.9049 22.1063 28.2021 22.2703 28.5531L22.8531 29.8073C22.916 29.9427 23.0129 30.0594 23.1343 30.146C23.2558 30.2327 23.3976 30.2863 23.546 30.3018C23.6944 30.3172 23.8443 30.2939 23.9809 30.234C24.1176 30.1742 24.2364 30.08 24.3258 29.9605C24.4059 29.8531 24.4601 29.7286 24.484 29.5967L25.0633 26.3794C25.0963 26.1939 25.0678 26.0027 24.9821 25.8348C24.8964 25.667 24.7583 25.5317 24.5887 25.4496L22.9987 24.6841C22.7126 24.5456 22.4628 24.3423 22.2691 24.0903C22.0755 23.8383 21.9433 23.5445 21.8831 23.2324L21.5789 21.6395C21.5024 21.2437 21.5456 20.8341 21.703 20.463C21.8604 20.0919 22.1248 19.7761 22.4625 19.556L24.7255 18.0741C24.8652 17.9826 24.9753 17.8524 25.0425 17.6995C25.1096 17.5466 25.131 17.3774 25.104 17.2126L24.5043 13.566C17.6274 13.8276 12.1133 19.5026 12.1133 26.4422C12.1132 27.1083 12.1646 27.7734 12.267 28.4316L14.6213 28.9905C14.7399 29.0187 14.8631 29.0215 14.9829 28.9985C15.1026 28.9756 15.2161 28.9275 15.3159 28.8574Z" fill="#F34646"/>
<path d="M40.1449 15.9679C40.2976 15.9678 40.4482 15.9327 40.5851 15.8653C40.7221 15.7978 40.8417 15.6998 40.9348 15.5788C40.9764 15.525 41.0083 15.4645 41.0291 15.3998L42.0026 12.3683L44.6958 10.6528C44.753 10.6165 44.8034 10.5704 44.8448 10.5168C44.9607 10.3665 45.0315 10.1863 45.0489 9.99733C45.0662 9.80832 45.0294 9.61827 44.9428 9.44938C44.8562 9.2805 44.7233 9.13975 44.5597 9.04357C44.396 8.94739 44.2084 8.89976 44.0187 8.90624L40.8884 8.48769L39.322 7.27822L41.4734 4.49287C41.5494 4.39448 41.6053 4.28207 41.6379 4.16208C41.6705 4.04208 41.6791 3.91684 41.6633 3.7935C41.6475 3.67017 41.6075 3.55116 41.5457 3.44328C41.4839 3.33539 41.4014 3.24075 41.303 3.16474L40.6292 2.64423C40.3896 2.45999 40.0938 2.36414 39.7917 2.3729C39.4897 2.38165 39.1999 2.49447 38.9714 2.69228L36.3434 4.97744L32.1884 1.76806C31.6867 1.38195 31.0522 1.2107 30.4243 1.29191C29.7964 1.37312 29.2264 1.70015 28.8394 2.20122C28.4523 2.70228 28.2799 3.33644 28.36 3.96449C28.4401 4.59253 28.7661 5.16314 29.2665 5.55107L33.4213 8.76035L31.8748 11.8807C31.7411 12.1516 31.7052 12.4604 31.773 12.7548C31.8408 13.0492 32.0082 13.3112 32.2469 13.4964L32.9208 14.0172C33.0857 14.1453 33.2887 14.2148 33.4975 14.2147C33.5385 14.2147 33.5794 14.2121 33.6201 14.2068C33.7435 14.1913 33.8626 14.1515 33.9705 14.0897C34.0784 14.0278 34.1729 13.9452 34.2487 13.8466L36.4002 11.0611L37.9667 12.2711L39.1678 15.1874C39.2181 15.409 39.3422 15.607 39.5197 15.7488C39.6973 15.8906 39.9177 15.9678 40.145 15.9679H40.1449ZM33.1254 5.40038C33.0414 5.50904 32.9272 5.59037 32.7971 5.6341C32.6669 5.67782 32.5268 5.68198 32.3943 5.64604C32.2618 5.6101 32.1429 5.53568 32.0527 5.43219C31.9625 5.3287 31.905 5.20079 31.8875 5.06463C31.87 4.92846 31.8933 4.79017 31.9543 4.66723C32.0154 4.54428 32.1116 4.44222 32.2307 4.37393C32.3498 4.30564 32.4865 4.27421 32.6234 4.28359C32.7604 4.29298 32.8915 4.34276 33.0002 4.42665C33.1457 4.53931 33.2406 4.70509 33.2641 4.88763C33.2876 5.07018 33.2377 5.25458 33.1254 5.40038ZM34.8386 6.72412C34.7547 6.83276 34.6404 6.91408 34.5103 6.95779C34.3801 7.0015 34.2399 7.00563 34.1074 6.96968C33.9749 6.93372 33.8561 6.85929 33.7659 6.75578C33.6757 6.65228 33.6182 6.52435 33.6007 6.38818C33.5832 6.252 33.6064 6.1137 33.6675 5.99075C33.7286 5.8678 33.8248 5.76572 33.9439 5.69742C34.063 5.62913 34.1997 5.59768 34.3367 5.60705C34.4736 5.61643 34.6048 5.66621 34.7134 5.75009C34.8592 5.86266 34.9542 6.0285 34.9777 6.21115C35.0012 6.39379 34.9511 6.57828 34.8385 6.72402L34.8386 6.72412ZM36.5519 8.04755C36.468 8.1562 36.3537 8.23752 36.2236 8.28123C36.0934 8.32493 35.9532 8.32907 35.8207 8.29312C35.6882 8.25716 35.5694 8.18272 35.4792 8.07922C35.389 7.97571 35.3315 7.84779 35.314 7.71161C35.2965 7.57544 35.3197 7.43714 35.3808 7.31418C35.4419 7.19123 35.5381 7.08916 35.6572 7.02086C35.7763 6.95256 35.913 6.92112 36.0499 6.93049C36.1869 6.93987 36.318 6.98964 36.4267 7.07353C36.4989 7.12926 36.5594 7.19866 36.6048 7.27778C36.6501 7.35689 36.6794 7.44417 36.6911 7.53462C36.7027 7.62508 36.6964 7.71693 36.6725 7.80494C36.6486 7.89295 36.6076 7.97539 36.5518 8.04755H36.5519ZM38.2653 9.3708C38.1814 9.47943 38.0671 9.56073 37.937 9.60444C37.8068 9.64814 37.6667 9.65227 37.5342 9.61631C37.4017 9.58036 37.2828 9.50592 37.1927 9.40242C37.1025 9.29893 37.045 9.17101 37.0275 9.03485C37.01 8.89869 37.0333 8.7604 37.0944 8.63747C37.1555 8.51454 37.2517 8.41248 37.3708 8.34421C37.4899 8.27593 37.6265 8.2445 37.7635 8.25389C37.9004 8.26329 38.0315 8.31307 38.1402 8.39697C38.2858 8.50964 38.3807 8.67545 38.4041 8.85801C38.4276 9.04058 38.3776 9.22499 38.2653 9.3708Z" fill="#F34646"/>
<path d="M30.1317 47.0241C30.0864 47.0241 30.0414 47.0295 29.9974 47.0401C29.0165 47.277 28.02 47.4434 27.0154 47.5382C26.8641 47.5524 26.7246 47.6262 26.6277 47.7432C26.5308 47.8603 26.4844 48.011 26.4986 48.1623C26.5129 48.3136 26.5866 48.4531 26.7037 48.55C26.8207 48.6469 26.9715 48.6933 27.1228 48.6791C28.1818 48.579 29.2324 48.4036 30.2664 48.1541C30.4028 48.1212 30.5223 48.0393 30.6024 47.9242C30.6824 47.809 30.7175 47.6684 30.7008 47.5292C30.6842 47.3899 30.617 47.2615 30.5121 47.1685C30.4071 47.0754 30.2717 47.0241 30.1314 47.0242L30.1317 47.0241Z" fill="#F34646"/>
<path d="M42.4615 39.4468C42.3609 39.3671 42.2364 39.3238 42.1081 39.3239C42.0852 39.3239 42.0624 39.3252 42.0397 39.328C41.9649 39.3367 41.8926 39.3601 41.8269 39.397C41.7613 39.4339 41.7036 39.4834 41.6572 39.5428C41.0324 40.3357 40.3522 41.0833 39.6219 41.7802C39.5119 41.8851 39.4481 42.0294 39.4445 42.1813C39.4409 42.3332 39.4978 42.4804 39.6027 42.5904C39.7076 42.7003 39.8519 42.7641 40.0038 42.7677C40.1558 42.7713 40.3029 42.7144 40.4129 42.6095C41.1826 41.8752 41.8993 41.0873 42.5576 40.2517C42.6515 40.1322 42.6941 39.9803 42.6761 39.8294C42.658 39.6785 42.5809 39.5409 42.4615 39.4468Z" fill="#F34646"/>
<path d="M46.7634 25.8691C46.6115 25.8693 46.4658 25.9297 46.3584 26.0371C46.251 26.1446 46.1905 26.2902 46.1903 26.4421C46.1903 27.4514 46.1192 28.4595 45.9774 29.4589C45.9668 29.5334 45.9709 29.6092 45.9896 29.6821C46.0083 29.755 46.0412 29.8235 46.0864 29.8837C46.1316 29.9439 46.1881 29.9946 46.2529 30.0329C46.3177 30.0712 46.3893 30.0963 46.4638 30.1069C46.6141 30.1275 46.7665 30.088 46.8878 29.9969C47.0091 29.9059 47.0896 29.7707 47.1119 29.6206C47.2614 28.5677 47.3365 27.5056 47.3365 26.4421C47.3363 26.2902 47.2759 26.1445 47.1684 26.0371C47.061 25.9297 46.9153 25.8693 46.7634 25.8691Z" fill="#F34646"/>
<path d="M22.9856 47.5382C21.981 47.4433 20.9844 47.2769 20.0035 47.0401C19.9304 47.0225 19.8544 47.0194 19.7801 47.031C19.7058 47.0427 19.6345 47.0689 19.5703 47.1081C19.506 47.1473 19.4502 47.1988 19.4058 47.2596C19.3615 47.3204 19.3296 47.3893 19.3119 47.4625C19.2943 47.5356 19.2912 47.6115 19.3028 47.6858C19.3145 47.7602 19.3407 47.8315 19.3799 47.8957C19.4191 47.9599 19.4706 48.0158 19.5314 48.0601C19.5922 48.1044 19.6611 48.1363 19.7343 48.154C20.7684 48.4035 21.8189 48.5789 22.878 48.6789C22.9529 48.686 23.0285 48.6782 23.1004 48.656C23.1723 48.6339 23.2392 48.5978 23.2971 48.5498C23.3551 48.5018 23.403 48.4429 23.4382 48.3764C23.4734 48.3099 23.4951 48.2371 23.5022 48.1622C23.5092 48.0873 23.5015 48.0117 23.4793 47.9398C23.4572 47.8679 23.4211 47.801 23.3731 47.7431C23.3251 47.6851 23.2662 47.6372 23.1996 47.602C23.1331 47.5668 23.0603 47.5451 22.9854 47.538L22.9856 47.5382Z" fill="#F34646"/>
<path d="M45.76 33.02C45.6163 32.9703 45.4589 32.9797 45.3222 33.0461C45.1855 33.1125 45.0808 33.2305 45.031 33.3741C44.7007 34.3282 44.3024 35.2573 43.8391 36.1544C43.7695 36.2894 43.7564 36.4466 43.8025 36.5913C43.8486 36.736 43.9503 36.8566 44.0851 36.9264C44.152 36.961 44.225 36.9821 44.3 36.9885C44.375 36.9948 44.4505 36.9863 44.5222 36.9635C44.5939 36.9406 44.6604 36.9038 44.7179 36.8553C44.7754 36.8067 44.8227 36.7472 44.8572 36.6804C45.3456 35.7345 45.7656 34.7548 46.1141 33.7489C46.1387 33.6778 46.149 33.6025 46.1446 33.5274C46.1401 33.4523 46.1209 33.3788 46.088 33.3111C46.0551 33.2434 46.0092 33.1829 45.9529 33.1329C45.8966 33.083 45.8311 33.0446 45.76 33.02Z" fill="#F34646"/>
<path d="M36.7648 44.1816C36.6551 44.1815 36.5477 44.2131 36.4555 44.2726C35.6075 44.8184 34.7215 45.303 33.8044 45.7227C33.6855 45.7771 33.5887 45.8706 33.5302 45.9876C33.4717 46.1047 33.455 46.2382 33.4829 46.366C33.5108 46.4938 33.5815 46.6083 33.6835 46.6903C33.7854 46.7724 33.9123 46.8171 34.0431 46.817C34.1252 46.817 34.2064 46.7992 34.281 46.7648C35.2479 46.3224 36.1819 45.8115 37.0759 45.236C37.1801 45.169 37.2598 45.07 37.303 44.9539C37.3462 44.8378 37.3506 44.7109 37.3155 44.592C37.2805 44.4732 37.2079 44.369 37.1086 44.2949C37.0093 44.2209 36.8887 44.181 36.7648 44.1813V44.1816Z" fill="#F34646"/>
<path d="M4.96897 33.3736C4.9444 33.3025 4.90605 33.2369 4.8561 33.1806C4.80616 33.1243 4.74561 33.0784 4.67791 33.0455C4.61021 33.0126 4.53669 32.9934 4.46156 32.989C4.38643 32.9845 4.31116 32.9949 4.24006 33.0196C4.09648 33.0693 3.97852 33.174 3.91211 33.3107C3.84571 33.4473 3.8363 33.6047 3.88596 33.7483C4.23415 34.7536 4.65391 35.7327 5.14202 36.678C5.17618 36.7455 5.22336 36.8055 5.28083 36.8547C5.33831 36.9038 5.40494 36.9411 5.4769 36.9644C5.54885 36.9876 5.6247 36.9964 5.70007 36.9902C5.77543 36.984 5.84883 36.963 5.91602 36.9283C5.98322 36.8936 6.04288 36.846 6.09157 36.7881C6.14026 36.7302 6.17701 36.6633 6.19971 36.5912C6.2224 36.519 6.2306 36.4431 6.22381 36.3678C6.21703 36.2925 6.1954 36.2193 6.16018 36.1523C5.69728 35.2557 5.29919 34.3271 4.96897 33.3736Z" fill="#F34646"/>
<path d="M16.1955 45.7231C15.2776 45.3028 14.3908 44.8175 13.5418 44.271C13.4498 44.2114 13.3425 44.1797 13.2328 44.1797C13.1917 44.1797 13.1506 44.1841 13.1104 44.1929C12.9997 44.217 12.8987 44.2733 12.82 44.3548C12.7414 44.4362 12.6886 44.5392 12.6684 44.6506C12.6482 44.762 12.6614 44.8769 12.7064 44.9808C12.7515 45.0847 12.8263 45.1729 12.9214 45.2344C13.8163 45.8104 14.7512 46.3217 15.7189 46.7646C15.7934 46.7991 15.8746 46.8169 15.9568 46.8169C16.0874 46.8168 16.2141 46.772 16.3159 46.69C16.4176 46.608 16.4883 46.4937 16.5161 46.3661C16.544 46.2384 16.5274 46.1051 16.4691 45.9881C16.4108 45.8712 16.3143 45.7777 16.1955 45.7231Z" fill="#F34646"/>
<path d="M8.34142 39.541C8.29503 39.4817 8.23734 39.4321 8.17168 39.3952C8.10602 39.3584 8.0337 39.3349 7.9589 39.3261C7.93621 39.3235 7.91338 39.3221 7.89054 39.3221C7.78303 39.3223 7.67773 39.3527 7.58668 39.4099C7.49563 39.4671 7.4225 39.5487 7.37564 39.6455C7.32879 39.7422 7.3101 39.8502 7.32171 39.9571C7.33333 40.064 7.37477 40.1654 7.44132 40.2499C8.09942 41.0853 8.81582 41.8731 9.58517 42.6074C9.69541 42.7108 9.84204 42.7665 9.99314 42.7623C10.1442 42.7581 10.2875 42.6943 10.3919 42.585C10.4962 42.4756 10.5531 42.3294 10.5501 42.1783C10.5472 42.0272 10.4847 41.8833 10.3762 41.7781C9.64598 41.0814 8.96603 40.3338 8.34142 39.541Z" fill="#F34646"/>
<path d="M3.51791 22.885C3.59182 22.8992 3.66781 22.8988 3.74154 22.8836C3.81527 22.8684 3.88528 22.8389 3.94757 22.7966C4.00986 22.7544 4.06321 22.7003 4.10455 22.6374C4.1459 22.5745 4.17443 22.504 4.18852 22.4301C4.37862 21.4392 4.63951 20.4631 4.96918 19.5095C5.01704 19.3663 5.00648 19.2101 4.93982 19.0747C4.87315 18.9393 4.75575 18.8356 4.61311 18.7863C4.47048 18.7369 4.31413 18.7458 4.17802 18.8111C4.04192 18.8763 3.93704 18.9926 3.88618 19.1347C3.53863 20.1403 3.26351 21.1695 3.06293 22.2144C3.0344 22.3636 3.0663 22.5181 3.15161 22.6439C3.23693 22.7696 3.36868 22.8563 3.51791 22.885Z" fill="#F34646"/>
<path d="M4.02203 29.4583C3.88016 28.4589 3.80902 27.4507 3.80914 26.4413C3.81006 26.3654 3.79591 26.2901 3.76749 26.2198C3.73908 26.1494 3.69698 26.0854 3.64363 26.0314C3.59027 25.9775 3.52674 25.9346 3.4567 25.9054C3.38667 25.8762 3.31153 25.8612 3.23564 25.8613C3.15976 25.8613 3.08465 25.8765 3.01466 25.9058C2.94468 25.9351 2.88121 25.9781 2.82795 26.0321C2.77469 26.0862 2.7327 26.1502 2.70441 26.2207C2.67611 26.2911 2.66209 26.3664 2.66314 26.4423C2.66318 27.5055 2.73824 28.5674 2.88775 29.62C2.89837 29.6945 2.92356 29.7662 2.96187 29.8309C3.00019 29.8957 3.05089 29.9523 3.11107 29.9974C3.17125 30.0426 3.23974 30.0754 3.31262 30.0941C3.3855 30.1128 3.46136 30.117 3.53585 30.1064C3.61034 30.0958 3.68201 30.0706 3.74676 30.0323C3.81152 29.9939 3.8681 29.9432 3.91326 29.8831C3.95842 29.8229 3.99129 29.7544 4.00999 29.6815C4.02868 29.6086 4.03284 29.5328 4.02222 29.4583H4.02203Z" fill="#F34646"/>
<path d="M8.24718 12.5373C8.12772 12.4434 7.97591 12.4008 7.82505 12.4188C7.67419 12.4367 7.53661 12.5137 7.4425 12.633C6.78434 13.4691 6.18638 14.3508 5.65314 15.2716C5.6028 15.3587 5.57625 15.4574 5.57617 15.558C5.57609 15.6586 5.60247 15.7574 5.65267 15.8446C5.70287 15.9317 5.77512 16.0042 5.86216 16.0546C5.9492 16.105 6.04797 16.1316 6.14855 16.1317C6.24911 16.1316 6.34786 16.1051 6.43499 16.0549C6.52211 16.0047 6.59457 15.9325 6.64513 15.8456C7.15091 14.9719 7.71823 14.1353 8.34279 13.3421C8.43661 13.2226 8.47923 13.0708 8.46131 12.9199C8.44339 12.7691 8.36639 12.6315 8.24718 12.5373Z" fill="#F34646"/>
<path d="M20.167 4.79823C20.0774 4.74329 19.9745 4.71416 19.8694 4.71405C19.8237 4.71412 19.7781 4.71959 19.7337 4.73036C18.6994 4.98046 17.6844 5.30454 16.6966 5.70009C16.6262 5.72771 16.562 5.76897 16.5077 5.82151C16.4534 5.87404 16.41 5.9368 16.38 6.00618C16.35 6.07556 16.3341 6.15018 16.3331 6.22575C16.332 6.30131 16.346 6.37633 16.3741 6.44649C16.4022 6.51664 16.4439 6.58054 16.4968 6.6345C16.5497 6.68847 16.6128 6.73143 16.6824 6.76092C16.752 6.79041 16.8267 6.80585 16.9023 6.80633C16.9778 6.80682 17.0528 6.79235 17.1227 6.76376C18.0594 6.38878 19.0218 6.08145 20.0025 5.84413C20.1127 5.81753 20.2125 5.75886 20.2893 5.67553C20.3661 5.59221 20.4165 5.48798 20.434 5.37603C20.4516 5.26407 20.4356 5.14942 20.388 5.04657C20.3404 4.94373 20.2634 4.8573 20.1667 4.79823H20.167Z" fill="#F34646"/>
<path d="M13.7158 7.8203C13.6335 7.6926 13.5038 7.60282 13.3553 7.57067C13.2068 7.53851 13.0516 7.56662 12.9238 7.64881C12.0299 8.22483 11.178 8.86347 10.3743 9.55995C10.3175 9.60924 10.2709 9.66925 10.2373 9.73655C10.2036 9.80385 10.1835 9.87712 10.1782 9.95217C10.1729 10.0272 10.1824 10.1026 10.2062 10.174C10.2299 10.2454 10.2676 10.3114 10.3169 10.3682C10.3662 10.425 10.4262 10.4716 10.4935 10.5053C10.5608 10.5389 10.634 10.559 10.7091 10.5643C10.7841 10.5697 10.8595 10.5602 10.9309 10.5364C11.0023 10.5126 11.0683 10.475 11.1251 10.4257C11.8876 9.76479 12.6961 9.15884 13.5444 8.61239C13.6719 8.52994 13.7616 8.40026 13.7938 8.25178C13.8259 8.1033 13.7979 7.94814 13.7158 7.8203Z" fill="#F34646"/>
<path d="M23.9376 4.13088C23.8241 4.13648 23.7147 4.17567 23.6234 4.2435C23.5321 4.31132 23.463 4.40472 23.4249 4.51186C23.3867 4.61899 23.3812 4.73504 23.4091 4.8453C23.437 4.95555 23.497 5.05505 23.5815 5.13117C23.6366 5.1813 23.7013 5.21991 23.7715 5.24473C23.8418 5.26955 23.9164 5.28008 23.9908 5.2757C24.3256 5.25995 24.6614 5.25207 24.9982 5.25207C25.672 5.25207 26.3474 5.28361 27.0152 5.3466C27.0904 5.35425 27.1664 5.34693 27.2387 5.32508C27.3111 5.30323 27.3784 5.26727 27.4369 5.21928C27.4953 5.17129 27.5436 5.11221 27.5791 5.04545C27.6146 4.97869 27.6365 4.90557 27.6436 4.8303C27.6506 4.75503 27.6428 4.67911 27.6204 4.6069C27.598 4.53469 27.5615 4.46763 27.5131 4.40958C27.4647 4.35152 27.4052 4.30363 27.3382 4.26865C27.2712 4.23367 27.1979 4.21231 27.1226 4.20578C26.064 4.10611 24.9997 4.08108 23.9376 4.13088Z" fill="#F34646"/>
</svg>
