<svg width="50" height="10" viewBox="0 0 50 10" fill="none" xmlns="http://www.w3.org/2000/svg">
<path d="M10.2773 1.06897H5.90234V8.93093H10.2773V1.06897Z" fill="#FF5F00"/>
<path d="M6.18012 4.99998C6.17943 4.24281 6.35101 3.49542 6.68187 2.81437C7.01273 2.13332 7.49419 1.53647 8.08982 1.069C7.35222 0.489227 6.46638 0.128677 5.53356 0.0285563C4.60074 -0.0715645 3.65856 0.0927804 2.81473 0.502814C1.97089 0.912848 1.25944 1.55203 0.761698 2.34728C0.263954 3.14254 0 4.0618 0 4.99998C0 5.93816 0.263954 6.85741 0.761698 7.65267C1.25944 8.44793 1.97089 9.08711 2.81473 9.49714C3.65856 9.90717 4.60074 10.0715 5.53356 9.9714C6.46638 9.87128 7.35222 9.51073 8.08982 8.93096C7.4942 8.46349 7.01274 7.86663 6.68188 7.18559C6.35102 6.50454 6.17944 5.75714 6.18012 4.99998Z" fill="#EB001B"/>
<path d="M16.1794 4.99998C16.1795 5.93814 15.9155 6.85739 15.4178 7.65265C14.9201 8.44791 14.2087 9.08709 13.3648 9.49713C12.521 9.90716 11.5789 10.0715 10.6461 9.9714C9.71325 9.87128 8.82742 9.51073 8.08984 8.93096C8.68495 8.46302 9.16604 7.86607 9.49684 7.18513C9.82765 6.50418 9.99953 5.75702 9.99953 4.99998C9.99953 4.24293 9.82765 3.49577 9.49684 2.81483C9.16604 2.13388 8.68495 1.53694 8.08984 1.069C8.82742 0.489225 9.71325 0.128674 10.6461 0.0285549C11.5789 -0.0715646 12.521 0.0927876 13.3648 0.502825C14.2087 0.912863 14.9201 1.55204 15.4178 2.3473C15.9155 3.14256 16.1795 4.06181 16.1794 4.99998Z" fill="#F79E1B"/>
<path d="M15.702 8.09824V7.93729H15.7669V7.90449H15.6016V7.93729H15.6665V8.09824H15.702ZM16.0229 8.09824V7.90417H15.9722L15.9139 8.03766L15.8556 7.90417H15.8049V8.09824H15.8407V7.95185L15.8954 8.07806H15.9325L15.9871 7.95154V8.09824H16.0229Z" fill="#F79E1B"/>
<path d="M28.2734 9.73814L29.9488 0.314087H32.5666L30.9436 9.73814H28.2734Z" fill="#3C58BF"/>
<path d="M28.2734 9.73814L30.42 0.314087H32.5666L30.9436 9.73814H28.2734Z" fill="#293688"/>
<path d="M40.4206 0.418846C39.897 0.209423 39.0593 0 38.0122 0C35.3944 0 33.5096 1.3089 33.5096 3.19371C33.5096 4.60731 34.8185 5.3403 35.8656 5.8115C36.9128 6.2827 37.2269 6.59684 37.2269 7.01568C37.2269 7.64395 36.3892 7.95809 35.6562 7.95809C34.6091 7.95809 34.0332 7.80102 33.1431 7.43453L32.7766 7.27746L32.4102 9.42405C33.0384 9.68583 34.1903 9.94761 35.3944 9.94761C38.1693 9.94761 40.0018 8.63871 40.0018 6.64919C40.0018 5.54972 39.3211 4.71203 37.7505 4.0314C36.808 3.5602 36.2321 3.29842 36.2321 2.82722C36.2321 2.40837 36.7033 1.98952 37.7505 1.98952C38.6405 1.98952 39.2688 2.14659 39.74 2.35601L40.0018 2.46072L40.4206 0.418846Z" fill="#3C58BF"/>
<path d="M40.4206 0.418846C39.897 0.209423 39.0593 0 38.0122 0C35.3944 0 33.9808 1.3089 33.9808 3.19371C33.9808 4.60731 34.8185 5.3403 35.8656 5.8115C36.9128 6.2827 37.2269 6.59684 37.2269 7.01568C37.2269 7.64395 36.3892 7.95809 35.6562 7.95809C34.6091 7.95809 34.0332 7.80102 33.1431 7.43453L32.7766 7.27746L32.4102 9.42405C33.0384 9.68583 34.1903 9.94761 35.3944 9.94761C38.1693 9.94761 40.0018 8.63871 40.0018 6.64919C40.0018 5.54972 39.3211 4.71203 37.7505 4.0314C36.808 3.5602 36.2321 3.29842 36.2321 2.82722C36.2321 2.40837 36.7033 1.98952 37.7505 1.98952C38.6405 1.98952 39.2688 2.14659 39.74 2.35601L40.0018 2.46072L40.4206 0.418846Z" fill="#293688"/>
<path d="M44.9208 0.314087C44.2925 0.314087 43.8213 0.366443 43.5595 0.994714L39.6328 9.73814H42.46L42.9836 8.16746H46.3344L46.6485 9.73814H49.1616L46.9626 0.314087H44.9208ZM43.7166 6.59679C43.8736 6.12559 44.7637 3.82193 44.7637 3.82193C44.7637 3.82193 44.9731 3.24602 45.1302 2.87952L45.2872 3.76957C45.2872 3.76957 45.8108 6.12559 45.9155 6.64915H43.7166V6.59679Z" fill="#3C58BF"/>
<path d="M45.549 0.314087C44.9208 0.314087 44.4496 0.366443 44.1878 0.994714L39.6328 9.73814H42.46L42.9836 8.16746H46.3344L46.6485 9.73814H49.1616L46.9626 0.314087H45.549ZM43.7166 6.59679C43.926 6.07323 44.7637 3.82193 44.7637 3.82193C44.7637 3.82193 44.9731 3.24602 45.1302 2.87952L45.2872 3.76957C45.2872 3.76957 45.8108 6.12559 45.9155 6.64915H43.7166V6.59679Z" fill="#293688"/>
<path d="M23.4579 6.91094L23.1962 5.54968C22.725 3.97901 21.2066 2.25127 19.5312 1.41357L21.8873 9.79051H24.7145L28.9553 0.366455H26.1281L23.4579 6.91094Z" fill="#3C58BF"/>
<path d="M23.4579 6.91094L23.1962 5.54968C22.725 3.97901 21.2066 2.25127 19.5312 1.41357L21.8873 9.79051H24.7145L28.9553 0.366455H26.6516L23.4579 6.91094Z" fill="#293688"/>
<path d="M16.1797 0.314087L16.6509 0.418799C20.0017 1.20414 22.3053 3.19366 23.1954 5.54967L22.253 1.09942C22.0959 0.471154 21.6247 0.314087 21.0488 0.314087H16.1797Z" fill="#FFBC00"/>
<path d="M16.1797 0.314087C19.5305 1.09942 22.3053 3.1413 23.1954 5.49732L22.3053 1.78005C22.1483 1.15178 21.6247 0.78529 21.0488 0.78529L16.1797 0.314087Z" fill="#F7981D"/>
<path d="M16.1797 0.314087C19.5305 1.09942 22.3053 3.1413 23.1954 5.49732L22.5671 3.45544C22.41 2.82717 22.2006 2.1989 21.4676 1.93712L16.1797 0.314087Z" fill="#ED7C00"/>
<path d="M26.0781 6.59691L24.298 4.81681L23.4603 6.80634L23.2508 5.49744C22.7796 3.92677 21.2613 2.19902 19.5859 1.36133L21.942 9.73826H24.7692L26.0781 6.59691Z" fill="#051244"/>
<path d="M30.9475 9.73835L28.6962 7.43469L28.2773 9.73835H30.9475Z" fill="#051244"/>
<path d="M36.969 6.49219C37.1784 6.70161 37.2832 6.85868 37.2308 7.0681C37.2308 7.69637 36.3931 8.01051 35.6601 8.01051C34.613 8.01051 34.0371 7.85344 33.147 7.48695L32.7806 7.32988L32.4141 9.47647C33.0423 9.73825 34.1942 10 35.3983 10C37.0737 10 38.435 9.52883 39.2203 8.69113L36.969 6.49219Z" fill="#051244"/>
<path d="M40.0039 9.73825H42.4646L42.9882 8.16758H46.339L46.6531 9.73825H49.1662L48.2761 5.91628L45.1348 2.87964L45.2918 3.71733C45.2918 3.71733 45.8154 6.07334 45.9201 6.5969H43.7212C43.9306 6.07334 44.7683 3.82204 44.7683 3.82204C44.7683 3.82204 44.9777 3.24613 45.1348 2.87964" fill="#051244"/>
</svg>
